<svg width="29" height="28" viewBox="0 0 29 28" fill="none" xmlns="http://www.w3.org/2000/svg">
<path d="M16.4856 25.5189H15.3418V19.2559H13.7465V25.5189H12.6028C12.1513 25.5189 11.8202 25.8803 11.8202 26.3018C11.8202 26.7535 12.1814 27.0847 12.6028 27.0847H16.4555C16.907 27.0847 17.2381 26.7234 17.2381 26.3018C17.2983 25.8803 16.9371 25.5189 16.4856 25.5189Z" fill="black"/>
<path d="M15.3719 7.33203H13.7766V12.9026H15.3719V7.33203Z" fill="black"/>
<path d="M1.79701 5.73615H27.2913C27.6826 5.73615 28.0137 5.46515 28.0739 5.0737C28.1341 4.68226 27.8933 4.32093 27.5321 4.20048L14.7699 0.0451665C14.6194 -0.0150555 14.4388 -0.0150555 14.2883 0.0451665L1.52611 4.20048C1.16492 4.32093 0.924118 4.68226 0.984317 5.0737C1.07462 5.46515 1.40571 5.73615 1.79701 5.73615Z" fill="black"/>
<path d="M6.13135 15.2814V16.8773C6.13135 17.329 6.49254 17.6602 6.91393 17.6602H22.1744C22.6259 17.6602 22.957 17.2989 22.957 16.8773V15.2814C22.957 14.8298 22.5958 14.4985 22.1744 14.4985H6.91393C6.49254 14.4985 6.13135 14.8599 6.13135 15.2814Z" fill="black"/>
<path d="M7.60653 20.7616H2.57985V16.0944C2.57985 15.6427 2.21865 15.3115 1.79725 15.3115C1.34575 15.3115 1.01465 15.6729 1.01465 16.0944V26.3321C1.01465 26.7838 1.37585 27.115 1.79725 27.115C2.24874 27.115 2.57985 26.7537 2.57985 26.3321V22.3575H5.86072V26.3321C5.86072 26.7838 6.22193 27.115 6.64333 27.115C7.09483 27.115 7.42592 26.7537 7.42592 26.3321V22.3575H7.57642C8.02792 22.3575 8.35902 21.9962 8.35902 21.5746C8.41922 21.1229 8.05803 20.7616 7.60653 20.7616Z" fill="black"/>
<path d="M27.3214 15.2812C26.8699 15.2812 26.5388 15.6426 26.5388 16.0641V20.7313H21.5122C21.0607 20.7313 20.7296 21.0927 20.7296 21.5142C20.7296 21.9659 21.0908 22.2971 21.5122 22.2971H21.6627V26.2717C21.6627 26.7234 22.0239 27.0546 22.4453 27.0546C22.8968 27.0546 23.2279 26.6933 23.2279 26.2717V22.3573H26.5087V26.332C26.5087 26.7836 26.8699 27.1148 27.2913 27.1148C27.7428 27.1148 28.0739 26.7535 28.0739 26.332V16.0942C28.104 15.6426 27.7428 15.2812 27.3214 15.2812Z" fill="black"/>
</svg>
