<svg width="33" height="16" viewBox="0 0 33 16" fill="none" xmlns="http://www.w3.org/2000/svg">
<path d="M29.5442 0H3.11428C1.58157 0 0.310547 1.25118 0.310547 2.8436V13.1564C0.310547 14.7109 1.54419 16 3.11428 16H4.38531V12.0948C4.38531 11.6777 4.72176 11.3365 5.13297 11.3365H27.4881C27.8993 11.3365 28.2358 11.6777 28.2358 12.0948V15.9621H29.5068C31.0395 15.9621 32.3105 14.7109 32.3105 13.1185V2.8436C32.3105 1.25118 31.0769 0 29.5442 0ZM28.4975 8.75829H4.08625C3.67503 8.75829 3.33859 8.41706 3.33859 8C3.33859 7.58294 3.67503 7.24171 4.08625 7.24171H28.4975C28.9087 7.24171 29.2451 7.58294 29.2451 8C29.2825 8.41706 28.9461 8.75829 28.4975 8.75829ZM28.4975 4.62559H4.08625C3.67503 4.62559 3.33859 4.28436 3.33859 3.8673C3.33859 3.45024 3.67503 3.109 4.08625 3.109H28.4975C28.9087 3.109 29.2451 3.45024 29.2451 3.8673C29.2825 4.28436 28.9461 4.62559 28.4975 4.62559Z" fill="black"/>
</svg>
