<svg width="46" height="68" viewBox="0 0 46 68" fill="none" xmlns="http://www.w3.org/2000/svg">
<path d="M45 22.9349C45 25.8715 43.6457 30.102 41.4935 34.9116C39.3593 39.6808 36.5057 44.8813 33.6402 49.7068C30.7766 54.529 27.9116 58.9594 25.7616 62.1852C24.6869 63.7977 23.7916 65.1082 23.1654 66.0149C23.108 66.098 23.0528 66.1778 23 66.2541C22.9472 66.1778 22.892 66.098 22.8346 66.0149C22.2084 65.1082 21.3131 63.7977 20.2384 62.1852C18.0884 58.9594 15.2234 54.529 12.3598 49.7068C9.49431 44.8813 6.64069 39.6808 4.50653 34.9116C2.35429 30.102 1 25.8715 1 22.9349C1 10.8233 10.8471 1 23 1C35.1529 1 45 10.8233 45 22.9349Z" fill="#ECCD2C" stroke="#F6E96D" stroke-width="2"/>
<path d="M18.9845 28.7796L18.6365 19.4678H14.0884L13.7404 28.7796H18.9845Z" fill="#575757"/>
<path d="M28.266 19.4458L27.918 28.7577H33.1621L32.814 19.4458H28.266Z" fill="#575757"/>
<path d="M21.1658 19.4458L20.8177 28.7795H26.0618L25.7138 19.4676H21.1658V19.4458Z" fill="#575757"/>
<path d="M34.9025 30.2188H12V33.5989H34.9025V30.2188Z" fill="#575757"/>
<path d="M34.9026 18.0065V16.5672L23.4398 9L12.0001 16.5891V18.0284H34.9026V18.0065ZM20.7249 15.346V13.9067H26.1779V15.346H20.7249Z" fill="#575757"/>
</svg>
