<svg width="46" height="68" viewBox="0 0 46 68" fill="none" xmlns="http://www.w3.org/2000/svg">
<path d="M45 22.9349C45 25.8715 43.6457 30.102 41.4935 34.9116C39.3593 39.6808 36.5057 44.8813 33.6402 49.7068C30.7766 54.529 27.9116 58.9594 25.7616 62.1852C24.6869 63.7977 23.7916 65.1082 23.1654 66.0149C23.108 66.098 23.0528 66.1778 23 66.2541C22.9472 66.1778 22.892 66.098 22.8346 66.0149C22.2084 65.1082 21.3131 63.7977 20.2384 62.1852C18.0884 58.9594 15.2234 54.529 12.3598 49.7068C9.49431 44.8813 6.64069 39.6808 4.50653 34.9116C2.35429 30.102 1 25.8715 1 22.9349C1 10.8233 10.8471 1 23 1C35.1529 1 45 10.8233 45 22.9349Z" fill="#ECCD2C" stroke="#F6E96D" stroke-width="2"/>
<path d="M25.6175 20.8634L26.0167 21.372L26.8374 22.3893L30.9188 19.1383L31.2293 16.396L30.209 17.1922V17.2143L27.148 19.647L25.6175 20.8634Z" fill="#575757"/>
<path d="M23.3771 28.56C23.732 28.6042 24.0869 28.4936 24.3974 28.2725L26.0166 26.9898C26.6155 26.5032 26.7043 25.6407 26.2385 25.0436L25.1738 23.7388L24.464 24.3138L25.5287 25.6186C25.6839 25.8176 25.6617 26.1051 25.4621 26.26L23.8429 27.5427C23.6432 27.6975 23.3549 27.6753 23.1996 27.4763L22.1349 26.1715L21.4251 26.7465L22.4898 28.0513C22.6895 28.3609 23.0222 28.5379 23.3771 28.56Z" fill="#575757"/>
<path d="M24.4641 25.9724L23.6434 24.9551L22.9114 25.5301L23.7321 26.5474L24.4641 25.9724Z" fill="#575757"/>
<path d="M33.5583 12.0173L32.7376 11L31.7395 11.8183L31.5177 13.6539L33.5583 12.0173Z" fill="#575757"/>
<path d="M34.2904 13.9413L34.7784 13.5432L34.2904 13.9413Z" fill="#575757"/>
<path d="M28.9889 15.6887L29.7874 16.6839L33.8687 13.4329L34.3789 13.0348L34.8891 12.6146L34.0684 11.6194L28.9889 15.6887Z" fill="#575757"/>
<path d="M25.9279 18.1212L26.3271 18.6299L27.1479 19.6472L30.2089 17.2145L27.1479 19.6472L26.7486 19.1385L29.7874 16.7058L28.9889 15.6885L25.9279 18.1212Z" fill="#575757"/>
<path d="M24.7968 19.8462L25.6175 20.8636L27.148 19.6472L26.3273 18.6299L24.7968 19.8462Z" fill="#575757"/>
<path d="M11 31.302L15.5472 36.4328L20.7376 27.277L26.8374 22.3894L26.0389 21.3721L25.6174 20.8634L25.3734 20.5759L22.3346 23.0086L21.7579 22.3009L24.7967 19.8461L26.3272 18.6298L25.928 18.1211L21.3365 21.7923L19.2958 23.4067L19.2071 24.3356L17.8318 24.1808L18.6303 25.1981L11.0444 31.2578L11 31.302Z" fill="#575757"/>
<path d="M14.7264 35.4155L19.9169 26.2596L26.0389 21.3721L26.8374 22.3894L20.7376 27.2769L15.5472 36.4328L11 31.302L11.0444 31.2578L14.7264 35.4155Z" fill="#575757"/>
<path d="M19.1405 37.2513C21.4252 37.4946 25.0851 36.809 29.0111 31.656C33.9132 25.2204 35.5546 15.003 35.6212 14.5607L34.7117 14.428C34.6895 14.5386 33.0481 24.8666 28.2792 31.1032C22.3568 38.8657 17.4325 35.858 17.2107 35.7253L16.7006 36.4994C16.7449 36.5215 17.6544 37.0744 19.1405 37.2513Z" fill="#575757"/>
<path d="M24.7968 19.8461L25.3735 20.5759L22.3346 23.0086L22.5565 23.2961L27.148 19.6471L26.3273 18.6298L25.928 18.1211L21.3365 21.7923L21.7579 22.3009L24.7968 19.8461Z" fill="#575757"/>
<path d="M26.0389 21.3723L26.8374 22.3896L30.9188 19.1386L31.1184 17.303L26.0389 21.3723Z" fill="#575757"/>
<path d="M29.7876 16.7057L30.2091 17.2144V17.1923L29.7876 16.6836V16.7057Z" fill="white"/>
<path d="M34.2904 13.9413L34.6897 14.45L35.0889 14.9586L35.5991 14.5826L34.7784 13.5432L34.2904 13.9413Z" fill="#575757"/>
<path d="M16.013 35.4155L14.9926 33.7568L14.4381 34.1107L15.4806 35.7472L16.013 35.4155Z" fill="#575757"/>
</svg>
