<svg width="46" height="68" viewBox="0 0 46 68" fill="none" xmlns="http://www.w3.org/2000/svg">
<path d="M45 22.9349C45 25.8715 43.6457 30.102 41.4935 34.9116C39.3593 39.6808 36.5057 44.8813 33.6402 49.7068C30.7766 54.529 27.9116 58.9594 25.7616 62.1852C24.6869 63.7977 23.7916 65.1082 23.1654 66.0149C23.108 66.098 23.0528 66.1778 23 66.2541C22.9472 66.1778 22.892 66.098 22.8346 66.0149C22.2084 65.1082 21.3131 63.7977 20.2384 62.1852C18.0884 58.9594 15.2234 54.529 12.3598 49.7068C9.49431 44.8813 6.64069 39.6808 4.50653 34.9116C2.35429 30.102 1 25.8715 1 22.9349C1 10.8233 10.8471 1 23 1C35.1529 1 45 10.8233 45 22.9349Z" fill="#ECCD2C" stroke="#F6E96D" stroke-width="2"/>
<path d="M22.8834 28.521V33.1393H16.9342V34.575H30.2719V33.1393H24.3227V28.521H22.8834Z" fill="#575757"/>
<path d="M20.2446 23.0413L21.2761 22.0123L22.9073 23.6395V20.4809L20.2686 17.8487L21.3001 16.8198L22.9313 18.4469V16.2694H24.3707V21.0552L26.0019 19.428L27.0334 20.457L24.3946 23.0892V28.545H30.1519C32.4309 28.545 34.278 26.7024 34.278 24.4292C34.278 23.4959 33.9661 22.5866 33.3664 21.8448C32.9586 21.3423 32.4548 20.9355 31.8551 20.6723C32.0231 20.1698 32.095 19.6194 32.095 19.0691C32.095 17.753 31.6152 16.4848 30.7756 15.4797C30.056 14.6422 29.0964 14.044 28.0409 13.7568C27.897 12.8236 27.4652 11.9382 26.7695 11.2682C25.8819 10.4547 24.7785 10 23.603 10C22.4276 10 21.3241 10.4547 20.5085 11.2682C19.8128 11.9382 19.381 12.8236 19.2371 13.7568C18.1816 14.044 17.222 14.6422 16.5024 15.4797C15.6388 16.4848 15.183 17.753 15.183 19.0691C15.183 19.6194 15.2549 20.1459 15.4229 20.6723C14.8471 20.9355 14.3194 21.3423 13.9116 21.8448C13.3119 22.5627 13 23.472 13 24.4052C13 26.6785 14.8471 28.521 17.1261 28.521H22.8834V25.6735L20.2446 23.0413Z" fill="#575757"/>
</svg>
