<svg width="22" height="17" viewBox="0 0 22 17" fill="none" xmlns="http://www.w3.org/2000/svg">
<path d="M14.532 8.75L20.7109 2.85051V14.6495L14.532 8.75ZM8.41328 9.58692L10.5918 11.6464C10.8453 11.8844 11.2492 11.8844 11.5027 11.6464L13.6254 9.61974L19.8 15.5192H2.2L8.41328 9.58692ZM11.043 10.3418L2.20859 1.98077H19.8L11.043 10.3418ZM1.28906 2.84641L7.49805 8.72128L1.28906 14.6495V2.84641ZM22 2.59615C22 1.58282 21.1363 0.75 20.0664 0.75H1.93359C0.867969 0.75 0 1.57872 0 2.59615V14.9038C0 15.9172 0.863672 16.75 1.93359 16.75H20.0664C21.1277 16.75 22 15.9254 22 14.9038V2.59615Z" fill="#424242"/>
</svg>
