<svg width="25" height="31" viewBox="0 0 25 31" fill="none" xmlns="http://www.w3.org/2000/svg">
<path d="M0.962646 3.61331H9.99249C10.9858 3.61331 11.7985 2.80032 11.7985 1.80666C11.7985 0.812995 10.9858 0 9.99249 0H1.86563C1.35394 0 0.962646 0.391442 0.962646 0.903328V3.61331Z" fill="black"/>
<path d="M24.4103 17.2232C24.4103 15.7176 23.2063 14.5132 21.7013 14.5132H9.9624V18.1265H24.4103V17.2232Z" fill="black"/>
<path d="M0.962646 15.4167C0.962646 16.9223 2.16663 18.1267 3.6716 18.1267H8.18652V5.41992H0.962646V15.4167Z" fill="black"/>
<path d="M24.35 19.9331H2.76868V22.6431C2.76868 24.2992 3.43086 25.9553 4.57464 27.1296V29.93C4.57464 30.4418 4.96594 30.8333 5.47763 30.8333C5.68832 30.8333 21.942 30.8333 21.7313 30.8333C22.243 30.8333 22.6343 30.4418 22.6343 29.93C22.6343 29.4181 22.243 29.0266 21.7313 29.0266H19.0224V27.9426C22.0624 26.3769 24.049 23.3055 24.35 19.9331Z" fill="black"/>
</svg>
