<svg width="35" height="26" viewBox="0 0 35 26" fill="none" xmlns="http://www.w3.org/2000/svg">
<path d="M26.0843 15.3952C26.3879 15.7007 26.4554 16.1759 26.253 16.5833C25.5445 17.9072 23.7228 18.4843 22.3733 17.4659C19.2022 15.0896 14.8503 15.1236 11.7128 17.4659C10.3634 18.4843 8.54168 17.9072 7.83323 16.5833C7.63082 16.2099 7.69829 15.7346 8.00191 15.3952C12.9611 10.337 21.0914 10.337 26.0843 15.3952Z" fill="black"/>
<path d="M27.3663 13.901C21.5637 8.1639 12.4213 8.23179 6.68624 13.901C6.45009 14.1386 6.079 14.2404 5.74164 14.1725C4.69583 13.901 3.91991 13.0183 3.8187 11.8981C3.78497 11.5926 3.88617 11.287 4.12232 11.0834C11.3418 4.02235 22.7782 4.02235 29.9639 11.0834C30.1663 11.287 30.3013 11.5926 30.2675 11.8981C30.1663 12.9844 29.3904 13.901 28.3446 14.1725C27.9735 14.2404 27.6362 14.1386 27.3663 13.901Z" fill="black"/>
<path d="M33.2361 9.75982C33.1349 9.86166 33.0675 9.92955 32.9662 9.99745C32.5614 10.303 32.0216 10.269 31.6506 9.8956C23.5877 1.68038 10.4308 1.68038 2.36802 9.8956C1.99692 10.269 1.42342 10.303 1.01859 9.9635C0.951119 9.8956 0.883648 9.86166 0.816177 9.79376C-0.364571 8.60561 -0.195891 6.90825 0.88365 5.95773C10.1272 -1.98591 23.8239 -1.98591 33.0675 5.95773C34.2482 6.9422 34.3157 8.70745 33.2361 9.75982Z" fill="black"/>
<path d="M19.6743 22.9655C19.6743 24.4252 18.4936 25.6473 17.0092 25.6473C15.5586 25.6473 14.3441 24.4592 14.3441 22.9655C14.3441 21.5058 15.5249 20.2837 17.0092 20.2837C18.4936 20.3176 19.6743 21.5058 19.6743 22.9655Z" fill="black"/>
</svg>
