<svg width="47" height="48" viewBox="0 0 47 48" fill="none" xmlns="http://www.w3.org/2000/svg">
<path fill-rule="evenodd" clip-rule="evenodd" d="M30.7142 0.59082H16.2858C3.11785 0.59082 0 3.70867 0 16.8766V31.305C0 44.473 3.11785 47.5908 16.2858 47.5908H30.7142C43.8821 47.5908 47 44.473 47 31.305V16.8766C47 3.70867 43.849 0.59082 30.7142 0.59082ZM37.945 34.1243H34.5286C33.235 34.1243 32.837 33.0961 30.5152 30.7411C28.4919 28.7842 27.5963 28.5188 27.0988 28.5188C26.4023 28.5188 26.2032 28.7178 26.2032 29.6797V32.7644C26.2032 33.5936 25.9379 34.0912 23.7488 34.0912C20.1334 34.0912 16.12 31.902 13.3006 27.8223C9.05505 21.8519 7.89414 17.3742 7.89414 16.4454C7.89414 15.9479 8.09315 15.4836 9.05505 15.4836H12.4714C13.3338 15.4836 13.6655 15.8816 13.9972 16.8103C15.6888 21.6861 18.5081 25.9649 19.669 25.9649C20.1002 25.9649 20.2992 25.7658 20.2992 24.6713V19.6296C20.1665 17.3078 18.9393 17.1088 18.9393 16.2796C18.9393 15.8816 19.271 15.4836 19.8017 15.4836H25.175C25.9047 15.4836 26.1701 15.8816 26.1701 16.744V23.5435C26.1701 24.2732 26.5018 24.5386 26.7008 24.5386C27.132 24.5386 27.4968 24.2732 28.2929 23.4772C30.7474 20.7242 32.5053 16.4786 32.5053 16.4786C32.7375 15.9811 33.1355 15.5167 33.9979 15.5167H37.4143C38.4425 15.5167 38.6747 16.0474 38.4425 16.7771C38.0113 18.7673 33.832 24.6713 33.832 24.6713C33.4672 25.2683 33.3345 25.5337 33.832 26.197C34.1969 26.6946 35.391 27.7228 36.187 28.6515C37.6464 30.3099 38.7742 31.703 39.0727 32.6649C39.4044 33.6268 38.9068 34.1243 37.945 34.1243Z" fill="#CECECE"/>
</svg>
