<svg width="34" height="32" viewBox="0 0 34 32" fill="none" xmlns="http://www.w3.org/2000/svg">
<path d="M25.886 3.94446C25.8559 3.97457 25.8559 3.97457 25.8258 4.00468C25.9161 4.09502 26.0365 4.18535 26.1268 4.27568C26.3074 4.42624 26.4579 4.54668 26.6385 4.72735C26.789 4.8779 26.9394 5.05857 27.0899 5.23923C27.1802 5.35968 27.2705 5.45001 27.3608 5.54034C27.3608 5.54034 27.3909 5.51023 27.421 5.48012C27.8424 5.05857 27.8424 4.36602 27.421 3.94446C26.9695 3.55302 26.3074 3.55302 25.886 3.94446Z" fill="black"/>
<path d="M30.2505 30.3518V2.70998H29.3776L28.4746 3.61331C28.9863 4.45642 28.8659 5.57052 28.1435 6.26308C27.9328 6.50396 27.6318 6.65452 27.3308 6.65452H27.2706C26.8191 6.56419 26.4278 6.29319 26.2171 5.90175C26.0967 5.7813 25.9764 5.63075 25.856 5.48019C25.7356 5.35975 25.5851 5.2393 25.4346 5.11886C25.0433 4.87797 24.7724 4.48653 24.6821 4.06498C24.6821 3.73376 24.8326 3.40254 25.0734 3.19176C25.7657 2.52932 26.8191 2.37876 27.6619 2.86054L28.7455 1.77655C28.8358 1.68621 28.9863 1.62599 29.1368 1.62599H30.2204V0H17.7592V30.3518H16.6756V0H4.21442V30.3518H0.993774V31.4358H33.5012V30.3518H30.2505ZM26.0666 6.65452L26.8191 7.40729L24.652 9.57528L23.8995 8.82251L26.0666 6.65452ZM24.9831 5.57052L25.7356 6.3233L23.5684 8.49129L22.8159 7.73851L24.9831 5.57052ZM23.8995 4.48653L24.652 5.2393L22.4848 7.40729L21.7323 6.65452L23.8995 4.48653ZM18.8729 14.0919H19.9565V16.2599H18.8729V14.0919ZM14.5385 14.0919H15.6221V16.2599H14.5385V14.0919Z" fill="black"/>
</svg>
