<svg width="32" height="21" viewBox="0 0 32 21" fill="none" xmlns="http://www.w3.org/2000/svg">
<path d="M3.91489 6.09246C3.91489 4.44891 5.26661 3.08874 6.89995 3.08874H13.6023C14.6442 3.08874 15.5735 3.62714 16.1086 4.44891C16.6436 3.62714 17.573 3.08874 18.6149 3.08874H25.3172C26.9506 3.08874 28.3023 4.44891 28.3023 6.09246V6.23415H29.0626V3.2871C29.0626 1.47353 27.5983 0 25.7959 0H6.42121C4.61891 0 3.15454 1.47353 3.15454 3.2871V6.20581H3.91489V6.09246Z" fill="black"/>
<path d="M30.5832 7.62256H1.57777C0.873758 7.62256 0.310547 8.1893 0.310547 8.89772V16.237C0.310547 16.9454 0.873758 17.5122 1.57777 17.5122H2.11282L1.49329 19.2691C1.35249 19.6375 1.54961 20.0342 1.9157 20.1759C2.00018 20.2042 2.08466 20.2042 2.14098 20.2042C2.42259 20.2042 2.7042 20.0342 2.78868 19.7508L3.57717 17.5405H28.6119L29.4004 19.7508C29.5131 20.0342 29.7665 20.2042 30.0481 20.2042C30.1326 20.2042 30.2171 20.2042 30.2734 20.1759C30.6395 20.0342 30.8366 19.6375 30.6958 19.2691L30.0763 17.5122H30.6113C31.3153 17.5122 31.8785 16.9454 31.8785 16.237V8.89772C31.8504 8.1893 31.2872 7.62256 30.5832 7.62256Z" fill="black"/>
<path d="M18.587 4.47754C17.714 4.47754 16.9818 5.18597 16.9818 6.09275V6.23444H26.8661V6.09275C26.8661 5.2143 26.1621 4.47754 25.2891 4.47754H18.587Z" fill="black"/>
<path d="M6.89998 4.47754C6.02699 4.47754 5.2948 5.18597 5.2948 6.09275V6.23444H15.1793V6.09275C15.1793 5.2143 14.4753 4.47754 13.5741 4.47754H6.89998Z" fill="black"/>
</svg>
