<svg width="47" height="47" viewBox="0 0 47 47" fill="none" xmlns="http://www.w3.org/2000/svg">
<path d="M42.6032 32.3188C42.6032 37.979 37.979 42.6032 32.3188 42.6032H14.6812C9.02097 42.6032 4.39677 37.979 4.39677 32.3188V14.6812C4.39677 9.02097 9.02097 4.39677 14.6812 4.39677H32.3188C37.979 4.39677 42.6032 9.02097 42.6032 14.6812V32.3188ZM32.3188 0H14.6812C6.56989 0 0 6.56989 0 14.6812V32.3188C0 40.4301 6.56989 47 14.6812 47H32.3188C40.4301 47 47 40.4301 47 32.3188V14.6812C47 6.56989 40.4301 0 32.3188 0Z" fill="#CECECE"/>
<path d="M23.4999 30.852C19.4569 30.852 16.1467 27.5673 16.1467 23.4993C16.1467 19.4565 19.4317 16.1465 23.4999 16.1465C27.5682 16.1465 30.8532 19.4312 30.8532 23.4993C30.8532 27.542 27.5429 30.852 23.4999 30.852ZM23.4999 11.75C17.0059 11.75 11.7499 17.0056 11.7499 23.4993C11.7499 29.993 17.0059 35.2485 23.4999 35.2485C29.994 35.2485 35.2499 29.993 35.2499 23.4993C35.2499 17.0056 29.994 11.75 23.4999 11.75Z" fill="#CECECE"/>
<path d="M36.1343 9.29883C36.9935 9.29883 37.701 10.0063 37.701 10.8655C37.701 11.7246 36.9935 12.4321 36.1343 12.4321C35.2752 12.4321 34.5676 11.7246 34.5676 10.8655C34.5676 10.0063 35.2752 9.29883 36.1343 9.29883Z" fill="#CECECE"/>
</svg>
