<svg width="46" height="68" viewBox="0 0 46 68" fill="none" xmlns="http://www.w3.org/2000/svg">
<path d="M46 22.9349C46 35.6015 23 68 23 68C23 68 0 35.6015 0 22.9349C0 10.2683 10.2975 0 23 0C35.7025 0 46 10.2683 46 22.9349Z" fill="#FFF8B9"/>
<path d="M18.9845 28.7796L18.6365 19.4678H14.0884L13.7404 28.7796H18.9845Z" fill="#575757"/>
<path d="M28.266 19.4458L27.918 28.7577H33.1621L32.814 19.4458H28.266Z" fill="#575757"/>
<path d="M21.1658 19.4458L20.8177 28.7795H26.0618L25.7138 19.4676H21.1658V19.4458Z" fill="#575757"/>
<path d="M34.9025 30.219H12V33.5992H34.9025V30.219Z" fill="#575757"/>
<path d="M34.9026 18.0065V16.5672L23.4398 9L12.0001 16.5891V18.0284H34.9026V18.0065ZM20.7249 15.346V13.9067H26.1779V15.346H20.7249Z" fill="#575757"/>
</svg>
