<svg width="35" height="34" viewBox="0 0 35 34" fill="none" xmlns="http://www.w3.org/2000/svg">
<path d="M29.0159 14.0618V12.3455H27.24V10.3582H29.0159V3.3122C29.0159 2.58954 28.4139 1.98732 27.6915 1.98732C26.9691 1.98732 26.3671 2.58954 26.3671 3.3122V5.69097H24.3806V3.3122C24.3806 1.47544 25.8855 0 27.6915 0C29.5276 0 31.0025 1.50555 31.0025 3.3122V14.0317H31.0928C32.7182 14.0317 34.0125 15.3566 34.0125 16.9525V18.0666H18.6616V14.0618H29.0159Z" fill="black"/>
<path d="M18.6617 26.7686H8.06665V20.084H2.04675V22.4326C2.04675 25.9255 4.03332 28.9968 6.92287 30.5325L6.29078 32.0079H4.03332V33.9952H7.61516L8.78904 31.2551C9.57162 31.4659 10.3843 31.5864 11.197 31.5864H22.8455C23.6883 31.5864 24.501 31.4659 25.2534 31.2551L26.4273 33.9952H30.0092V32.0079H27.7517L27.1196 30.5325C30.0092 28.9968 31.9957 25.9556 31.9957 22.4326V20.084H18.6617V26.7686Z" fill="black"/>
<path d="M16.645 14.0615H10.0531V24.781H16.645V14.0615Z" fill="black"/>
<path d="M2.9196 14.0615C1.32436 14.0615 0 15.3563 0 16.9823V18.0964H8.06653V14.0615H2.9196Z" fill="black"/>
</svg>
