<svg width="24" height="32" viewBox="0 0 24 32" fill="none" xmlns="http://www.w3.org/2000/svg">
<path d="M15.591 26.0762C16.6144 25.5342 17.397 24.7212 18.0291 23.7576C18.6311 22.7941 18.9922 21.68 19.0524 20.5057C19.1126 19.7529 19.7146 19.1808 20.4671 19.241C21.2196 19.3012 21.7915 19.9034 21.7313 20.6562C21.641 22.2822 21.1293 23.7877 20.3166 25.1728C19.5039 26.4977 18.3301 27.6419 16.9154 28.4549C16.2532 28.8163 15.4405 28.6055 15.1094 27.9431C14.6579 27.2204 14.9288 26.4375 15.591 26.0762ZM12.1898 31.3757C15.2599 31.3757 18.1194 30.111 20.136 28.0936C22.1527 26.0762 23.4169 23.2458 23.4169 20.1443C23.4169 15.6879 17.4572 6.95574 13.5141 1.08411C12.6413 -0.391324 11.7383 -0.331103 10.8955 1.08411C6.92235 6.95574 0.962646 15.7481 0.962646 20.1443C0.962646 23.2156 2.22682 26.0762 4.24349 28.0936C6.26016 30.111 9.08951 31.3757 12.1898 31.3757Z" fill="black"/>
</svg>
