<svg width="28" height="28" viewBox="0 0 28 28" fill="none" xmlns="http://www.w3.org/2000/svg">
<path d="M27.9657 3.25642V0.823052C27.9657 0.357849 27.6101 0 27.1478 0H1.11626C0.653957 0 0.29834 0.357849 0.29834 0.823052V3.29221H27.9657V3.25642Z" fill="black"/>
<path d="M19.8575 22.9738V16.4252L16.5503 13.0972H11.785L8.47766 16.4252V22.9738H10.8248C10.3269 22.2581 10.078 21.3635 10.078 20.3615C10.078 19.4669 10.3625 18.5722 10.8959 17.7134C11.1093 17.3913 11.5005 17.2482 11.8916 17.3913C11.9628 17.4271 11.9983 17.4271 12.0694 17.4629C12.2117 16.4609 12.7807 15.4947 13.7409 14.9222C14.2743 14.6001 14.9855 14.9938 14.9855 15.6379C14.9855 16.6756 18.2572 17.2482 18.2572 20.3973C18.2572 21.3992 18.0083 22.2939 17.5105 23.0096H19.8575V22.9738Z" fill="black"/>
<path d="M1.1875 7.37163C1.1875 7.83684 1.54312 8.19468 2.00543 8.19468C2.46773 8.19468 2.82336 8.55253 2.82336 9.01773C2.82336 9.44715 3.14341 9.805 3.57016 9.84078V23.0096H6.84188V16.1031C6.84188 15.8884 6.91301 15.6737 7.09082 15.5306L10.896 11.7016C11.0382 11.5585 11.2516 11.4511 11.465 11.4511H16.906C17.1193 11.4511 17.3327 11.5227 17.475 11.7016L21.2446 15.5306C21.3868 15.6737 21.4935 15.8884 21.4935 16.1031V22.9738H24.7652V9.805C25.2275 9.805 25.5831 9.44715 25.5831 8.98195C25.5831 8.51675 25.9388 8.1589 26.4011 8.1589C26.8634 8.1589 27.219 7.80105 27.219 7.33585V4.8667H1.22306V7.37163H1.1875Z" fill="black"/>
<path d="M1.89868 24.6196V27.1246C1.89868 27.5898 2.2543 27.9476 2.71661 27.9476H25.6187C26.081 27.9476 26.4366 27.5898 26.4366 27.1246V24.6196C26.1521 24.6196 3.60567 24.6196 1.89868 24.6196Z" fill="black"/>
<path d="M16.5858 20.3617C16.5858 18.5724 14.8433 18.2146 13.8476 17.0337C13.6342 17.4631 13.5631 17.9641 13.6698 18.4293C13.8476 19.0376 13.3142 19.6818 12.5318 19.3955C12.3896 19.3597 12.034 19.2166 11.9273 19.145C11.7495 19.5386 11.6783 19.968 11.6783 20.3617C11.6783 21.6857 12.2829 22.5803 13.3142 22.8666V22.1151C13.3142 21.6499 13.6698 21.2921 14.1321 21.2921C14.5944 21.2921 14.95 21.6499 14.95 22.1151V22.8666C16.0168 22.5803 16.5858 21.6857 16.5858 20.3617Z" fill="black"/>
</svg>
