<svg width="46" height="68" viewBox="0 0 46 68" fill="none" xmlns="http://www.w3.org/2000/svg">
<path d="M46 22.9349C46 35.6015 23 68 23 68C23 68 0 35.6015 0 22.9349C0 10.2683 10.2975 0 23 0C35.7025 0 46 10.2683 46 22.9349Z" fill="#FFF8B9"/>
<path d="M22.8834 28.521V33.1393H16.9342V34.575H30.2719V33.1393H24.3227V28.521H22.8834Z" fill="#575757"/>
<path d="M20.2446 23.0413L21.2761 22.0123L22.9073 23.6395V20.4809L20.2686 17.8487L21.3001 16.8198L22.9313 18.4469V16.2694H24.3707V21.0552L26.0019 19.428L27.0334 20.457L24.3946 23.0892V28.545H30.1519C32.4309 28.545 34.278 26.7024 34.278 24.4292C34.278 23.4959 33.9661 22.5866 33.3664 21.8448C32.9586 21.3423 32.4548 20.9355 31.8551 20.6723C32.0231 20.1698 32.095 19.6194 32.095 19.0691C32.095 17.753 31.6152 16.4848 30.7756 15.4797C30.056 14.6422 29.0964 14.044 28.0409 13.7568C27.897 12.8236 27.4652 11.9382 26.7695 11.2682C25.8819 10.4547 24.7785 10 23.603 10C22.4276 10 21.3241 10.4547 20.5085 11.2682C19.8128 11.9382 19.381 12.8236 19.2371 13.7568C18.1816 14.044 17.222 14.6422 16.5024 15.4797C15.6388 16.4848 15.183 17.753 15.183 19.0691C15.183 19.6194 15.2549 20.1459 15.4229 20.6723C14.8471 20.9355 14.3194 21.3423 13.9116 21.8448C13.3119 22.5627 13 23.472 13 24.4052C13 26.6785 14.8471 28.521 17.1261 28.521H22.8834V25.6735L20.2446 23.0413Z" fill="#575757"/>
</svg>
