<svg width="46" height="68" viewBox="0 0 46 68" fill="none" xmlns="http://www.w3.org/2000/svg">
<path d="M45 22.9349C45 25.8715 43.6457 30.102 41.4935 34.9116C39.3593 39.6808 36.5057 44.8813 33.6402 49.7068C30.7766 54.529 27.9116 58.9594 25.7616 62.1852C24.6869 63.7977 23.7916 65.1082 23.1654 66.0149C23.108 66.098 23.0528 66.1778 23 66.2541C22.9472 66.1778 22.892 66.098 22.8346 66.0149C22.2084 65.1082 21.3131 63.7977 20.2384 62.1852C18.0884 58.9594 15.2234 54.529 12.3598 49.7068C9.49431 44.8813 6.64069 39.6808 4.50653 34.9116C2.35429 30.102 1 25.8715 1 22.9349C1 10.8233 10.8471 1 23 1C35.1529 1 45 10.8233 45 22.9349Z" fill="#ECCD2C" stroke="#F6E96D" stroke-width="2"/>
<path d="M35.3669 33.7473C34.6789 33.7473 34.5013 33.4033 33.9021 32.9948L35.2337 30.1782C35.4779 29.6622 35.1006 29.0817 34.5013 29.0817H23.382V15.6222C26.2894 19.0623 26.5557 23.8355 24.2253 27.5336C34.923 27.5551 34.5901 27.4691 35.1006 27.5981C36.6098 20.6748 31.1944 13.6656 23.382 13.6656V13.4076L27.5545 12.053C28.2647 11.8165 28.2647 10.8275 27.5545 10.591L22.8493 9.04292C22.3388 8.87091 21.8062 9.23642 21.8062 9.77394V14.1171L11.7521 26.2866C11.3304 26.7811 11.7077 27.5336 12.3735 27.5336C22.3388 27.5336 21.6952 27.5336 21.8062 27.5336V29.0817H10.6646C10.0875 29.0817 9.71022 29.6622 9.93216 30.1782L11.2638 32.9948C10.6646 33.4248 10.487 33.7473 9.799 33.7473C9.35511 33.7473 9 34.0913 9 34.5214C9 34.9514 9.35511 35.2954 9.799 35.2954C10.8865 35.2954 11.4858 34.8224 11.9075 34.4569C12.6843 33.8118 13.2835 33.8118 14.0825 34.4569C14.5042 34.8009 15.1035 35.2954 16.191 35.2954C17.2785 35.2954 17.8777 34.8224 18.2994 34.4569C19.0762 33.8118 19.6755 33.8118 20.4745 34.4569C20.8962 34.8009 21.4954 35.2954 22.583 35.2954C23.6705 35.2954 24.2697 34.8224 24.6914 34.4569C25.0465 34.1558 25.2685 33.9838 25.7789 33.9838C26.2894 33.9838 26.5114 34.1558 26.8665 34.4569C27.2882 34.8009 27.8874 35.2954 28.9749 35.2954C30.0625 35.2954 30.6617 34.8224 31.0834 34.4569C31.4385 34.1558 31.6605 33.9838 32.1709 33.9838C32.6814 33.9838 32.9033 34.1558 33.2584 34.4569C33.6801 34.8009 34.2794 35.2954 35.3669 35.2954C35.8108 35.2954 36.1659 34.9514 36.1659 34.5214C36.1659 34.0913 35.8108 33.7473 35.3669 33.7473Z" fill="#575757"/>
</svg>
