<svg width="32" height="29" viewBox="0 0 32 29" fill="none" xmlns="http://www.w3.org/2000/svg">
<path d="M22.3162 10.5223L22.8126 7.89171V7.85841C23.1104 5.86051 22.5147 3.86261 21.1911 2.36418C19.9005 0.865757 18.0143 0 15.9958 0C13.9772 0 12.1241 0.865757 10.8005 2.36418C9.50991 3.86261 8.91426 5.89381 9.17899 7.85841L9.67535 10.5223H0.310547V28.237H2.16366V12.3537H10.1055L10.6681 15.3172C9.67535 15.7501 8.94735 16.7158 8.94735 17.8812V20.9447H15.1023V24.6741H8.88117V28.237H10.7343V26.5388H15.1023V28.237H16.9554V26.5388H21.3235V28.237H23.1766V24.6408H16.9554V20.9447H23.1104V17.9145C23.1104 16.7491 22.4155 15.7501 21.3896 15.3505L21.9522 12.387H29.8941V28.237H31.7472V10.5223H22.3162Z" fill="black"/>
</svg>
