<svg width="45" height="69" viewBox="0 0 45 69" fill="none" xmlns="http://www.w3.org/2000/svg">
<path d="M1.84251 0.560487C1.32363 0.371322 0.749652 0.638608 0.560487 1.15749C0.371322 1.67637 0.638608 2.25035 1.15749 2.43951L1.84251 0.560487ZM34.614 68.0141C34.8979 68.4878 35.5121 68.6417 35.9858 68.3578L43.7056 63.7312C44.1793 63.4473 44.3332 62.8331 44.0493 62.3594C43.7654 61.8857 43.1512 61.7318 42.6775 62.0157L35.8154 66.1282L31.703 59.2661C31.4191 58.7924 30.8049 58.6385 30.3312 58.9224C29.8574 59.2064 29.7036 59.8205 29.9875 60.2943L34.614 68.0141ZM1.15749 2.43951C8.71375 5.19426 19.4908 11.7582 27.1505 22.453C34.7831 33.1098 39.3505 47.9039 34.5017 67.257L36.4418 67.743C41.4399 47.7939 36.7348 32.4 28.7765 21.2884C20.8453 10.2147 9.71303 3.4298 1.84251 0.560487L1.15749 2.43951Z" fill="white"/>
</svg>
