<svg width="39" height="46" viewBox="0 0 39 46" fill="none" xmlns="http://www.w3.org/2000/svg">
<path d="M0.588719 40.7718C0.422752 41.5836 0.946222 42.3755 1.75792 42.5407L14.9853 45.2324C15.797 45.3976 16.5895 44.8734 16.7555 44.0617C16.9215 43.25 16.398 42.4581 15.5863 42.2929L3.82865 39.9002L6.23273 28.1421C6.3987 27.3304 5.87523 26.5385 5.06353 26.3733C4.25184 26.2081 3.45928 26.7323 3.29332 27.544L0.588719 40.7718ZM32.3244 2.37004C35.1781 6.3904 35.6678 9.84934 34.7813 12.9668C33.8665 16.184 31.4174 19.2875 27.8745 22.3686C24.3478 25.4355 19.8908 28.3511 15.1815 31.2388C10.5156 34.1 5.56124 36.9569 1.23168 39.8202L2.88518 42.3217C7.16108 39.4939 11.9794 36.7199 16.7483 33.7956C21.474 30.8978 26.1142 27.8733 29.8422 24.6312C33.554 21.4033 36.5171 17.8289 37.6671 13.7846C38.8455 9.64069 38.0526 5.25477 34.7716 0.632369L32.3244 2.37004Z" fill="white"/>
</svg>
