<svg width="428" height="262" viewBox="0 0 428 262" fill="none" xmlns="http://www.w3.org/2000/svg">
<path d="M184.808 203.221L178.332 199.859C178.332 199.859 185.913 200.885 190.938 198.79C183.704 196.76 175.257 193.136 171.445 187.57C177.249 190.713 188.166 191.477 188.166 191.477L184.7 186.282C184.7 186.282 187.191 186.719 188.815 185.518C186.26 185.758 182.837 184.252 182.837 184.252C182.837 184.252 187.819 181.262 190.678 177.617C188.079 179.188 172.788 183.379 164.319 181.327C171.012 180.127 174.997 174.19 174.997 174.19C174.997 174.19 166.788 178.643 157.691 179.057C148.595 179.472 149.634 178.337 141.339 173.12C145.324 175.478 150.436 174.954 150.436 174.954C150.436 174.954 147.035 174.168 144.219 170.828C148.161 173.317 156.37 173.12 156.37 173.12L152.038 171.418C152.038 171.418 159.294 172.269 162.998 169.933C159.576 170.064 155.46 168.907 152.017 165.786C158.016 165.961 166.203 165.655 175.712 158.867C173.827 159.369 169.106 158.67 165.814 157.382C172.246 155.767 175.084 151.86 175.084 151.86C175.084 151.86 172.831 152.777 171.077 153.17C172.333 152.209 172.463 150.921 171.705 150.529C172.918 149.83 173.416 148.499 173.416 148.499C173.416 148.499 172.246 148.258 169.106 149.786C165.987 151.314 153.966 149.721 153.966 149.721C153.966 149.721 159.771 149.001 162.933 146.185C148.79 148.913 136.336 145.705 135.837 145.29C135.318 144.875 135.101 143.544 134.365 142.321C133.607 141.099 132.329 140.662 132.654 140.008C132.957 139.353 133.195 138.152 133.585 138.021C133.953 137.89 134.321 137.956 135.231 139.156C136.162 140.379 137.115 140.51 137.852 140.357C138.61 140.204 138.393 140.706 139.411 140.968C140.451 141.252 141.49 140.902 141.707 139.287C143.851 141.23 145.281 140.073 146.472 140.029C147.685 139.986 150.566 139.462 153.403 138.567C156.24 137.672 157.302 136.93 160.355 137.454C158.255 134.201 151.93 133.394 148.79 134.572C149.743 133.503 151.324 132.848 152.818 132.761C154.313 132.652 155.179 132.673 156.132 131.713C157.063 130.753 158.558 130.884 159.446 129.989C160.334 129.094 161.828 128.657 164.796 128.221C163.258 127.413 159.684 127.784 159.684 127.784C159.684 127.784 160.225 127.216 159.944 126.103C160.204 125.776 162.825 123.68 166.052 123.331C161.222 121.847 156.89 124.248 151.237 125.012C145.584 125.754 142.725 122.305 142.725 122.305C142.725 122.305 147.988 122.567 149.439 120.625C144.263 121.956 133.953 117.656 132.654 115.735C131.354 113.792 130.314 114.185 129.21 112.221C128.105 110.256 128.17 109.907 129.21 108.685C129.86 107.899 130.054 106.895 130.054 106.895C130.054 106.895 133.087 108.794 133.866 108.728C134.646 108.663 135.599 108.095 136.357 108.663C137.115 109.252 137.852 109.121 138.501 109.121C139.13 109.121 139.433 110.3 140.018 110.606C140.602 110.911 142.703 111.195 143.18 110.649C143.635 110.104 143.028 106.436 143.028 106.436C147.057 108.838 148.681 107.768 148.66 107.331C148.638 106.895 145.021 105.105 142.508 102.377C145.129 103.774 149.288 104.865 152.991 102.246C146.732 103.402 141.231 96.2211 137.527 95.4353C133.823 94.6495 131.116 93.2962 127.824 91.2226C135.837 90.6769 137.613 86.0494 137.613 86.0494C137.613 86.0494 132.307 87.2063 128.842 86.1804C128.582 83.8884 127.044 83.9103 127.001 83.4082C126.957 82.9062 127.585 81.8148 126.351 81.0072C128.603 81.16 129.816 80.527 129.816 80.527C129.816 80.527 127.022 79.4138 125.354 79.4138C123.687 79.4138 122.409 79.261 120.871 78.0168C122.907 77.6894 121.781 76.0741 122.127 75.8558C122.474 75.6594 123.08 73.5203 122.69 72.3634C122.301 71.2065 121.283 71.8177 121.001 70.8355C120.719 69.8532 119.745 69.0674 118.51 69.5913C117.297 70.1151 115.608 68.6963 115.391 66.71C115.196 64.7019 116.388 64.5054 116.301 63.545C116.214 62.5846 114.655 61.8861 114.438 60.3581C114.243 59.0267 114.2 58.0881 113.247 57.8916C113.117 57.8698 112.554 57.8698 112.446 57.8916C111.406 58.0662 111.384 59.0267 111.254 60.4018C111.103 61.9297 109.587 62.6937 109.522 63.6541C109.457 64.6146 110.67 64.7674 110.54 66.7755C110.41 68.7837 108.764 70.2461 107.529 69.7659C106.295 69.2857 105.342 70.1151 105.103 71.0974C104.843 72.0796 103.804 71.5121 103.457 72.6908C103.111 73.8695 103.804 75.965 104.15 76.1614C104.497 76.3579 103.414 78.0168 105.472 78.2569C103.977 79.5666 102.721 79.763 101.031 79.8285C99.3637 79.894 96.5913 81.0945 96.5913 81.0945C96.5913 81.0945 97.8259 81.662 100.078 81.4437C98.8655 82.295 99.5369 83.3646 99.5153 83.8666C99.4936 84.3687 97.9558 84.4123 97.7826 86.7042C94.3604 87.8611 89.0107 86.9007 89.0107 86.9007C89.0107 86.9007 90.9383 91.4627 98.9738 91.7246C95.7466 93.9292 93.0825 95.3698 89.4222 96.2866C85.7618 97.2034 80.4987 104.581 74.1959 103.643C77.9862 106.131 82.1231 104.887 84.6789 103.402C82.253 106.218 78.701 108.139 78.701 108.576C78.701 109.012 80.3687 110.016 84.3106 107.484C84.3106 107.484 83.8342 111.173 84.3106 111.697C84.7871 112.221 86.8881 111.85 87.4512 111.544C88.0143 111.217 88.2743 110.038 88.9024 110.016C89.5305 109.994 90.2885 110.082 91.0249 109.471C91.7613 108.859 92.736 109.405 93.5157 109.449C94.2955 109.471 97.2627 107.462 97.2627 107.462C97.2627 107.462 97.501 108.445 98.1724 109.209C99.2554 110.409 99.342 110.737 98.3024 112.745C97.2627 114.753 96.2231 114.404 94.9885 116.39C93.754 118.376 83.5959 123.026 78.3761 121.869C79.8922 123.746 85.1553 123.309 85.1553 123.309C85.1553 123.309 82.4263 126.867 76.7517 126.322C71.077 125.776 66.6586 123.528 61.8936 125.165C65.1208 125.405 67.8281 127.413 68.0881 127.719C67.8281 128.832 68.3913 129.399 68.3913 129.399C68.3913 129.399 64.8175 129.159 63.2798 130.01C66.2687 130.338 67.7632 130.731 68.6945 131.582C69.6258 132.433 71.0987 132.259 72.0733 133.175C73.048 134.114 73.9143 134.07 75.4088 134.114C76.9033 134.158 78.4844 134.769 79.4807 135.795C76.2968 134.747 70.0157 135.773 68.0231 139.091C71.0337 138.436 72.1383 139.156 74.9973 139.942C77.8779 140.728 80.7586 141.164 81.9715 141.164C83.1844 141.164 84.6572 142.256 86.7148 140.248C86.9747 141.841 88.036 142.168 89.054 141.841C90.0719 141.535 89.8337 141.055 90.5918 141.164C91.3498 141.274 92.3028 141.121 93.1692 139.877C94.0572 138.632 94.4037 138.567 94.7936 138.676C95.1835 138.785 95.465 139.986 95.7899 140.641C96.1148 141.295 94.8586 141.754 94.1438 142.998C93.4291 144.242 93.2558 145.574 92.7577 146.01C92.2595 146.447 79.9355 150.092 65.7056 147.866C68.9544 150.572 74.7807 151.096 74.7807 151.096C74.7807 151.096 62.8249 153.126 59.641 151.707C56.4572 150.288 55.2876 150.594 55.2876 150.594C55.2876 150.594 55.8291 151.904 57.0636 152.558C56.3055 152.973 56.5005 154.261 57.7784 155.156C56.0023 154.829 53.7281 153.977 53.7281 153.977C53.7281 153.977 56.7171 157.775 63.1931 159.172C59.9443 160.591 55.2443 161.442 53.3383 161.006C63.0632 167.467 71.2719 167.467 77.2498 167.074C73.936 170.326 69.8424 171.614 66.4203 171.614C70.2106 173.819 77.4231 172.705 77.4231 172.705L73.1563 174.561C73.1563 174.561 81.365 174.474 85.2203 171.832C82.513 175.281 79.1558 176.176 79.1558 176.176C79.1558 176.176 84.289 176.504 88.166 174.015C80.0438 179.516 81.1484 180.607 72.03 180.52C62.9115 180.433 54.5728 176.263 54.5728 176.263C54.5728 176.263 58.753 182.048 65.489 183.008C57.0853 185.344 41.6641 181.72 39 180.236C41.9889 183.772 47.0788 186.588 47.0788 186.588C47.0788 186.588 43.7 188.225 41.1442 188.072C42.812 189.229 45.2811 188.683 45.2811 188.683L42.0106 193.988C42.0106 193.988 52.8834 192.831 58.5797 189.491C54.9627 195.188 46.6673 199.095 39.4982 201.409C44.5664 203.33 52.1254 202.02 52.1254 202.02L45.7576 205.6C45.7576 205.6 52.1254 205.36 59.8143 201.54C67.5033 197.72 71.5318 194.271 76.1885 193.224C75.907 194.708 69.4526 203.308 63.2364 204.312C63.2581 205.556 64.2544 206.167 64.2544 206.167C64.2544 206.167 61.4821 207.935 59.9659 208.219C63.6696 208.918 67.4816 207.15 69.7558 206.342C72.03 205.534 76.7733 203.635 76.7733 203.635C76.7733 203.635 73.9793 207.215 71.2936 209.289C68.5862 211.362 65.5106 213.589 65.5106 213.589C65.5106 213.589 66.9185 213.152 68.4563 213.589C69.994 214.025 73.2646 214.156 73.2646 214.156C73.2646 214.156 63.4097 218.151 58.5148 217.474C53.6198 216.798 50.9125 217.54 50.9125 217.54C50.9125 217.54 52.2553 219.155 53.8364 219.111C55.3959 219.068 56.4788 219.46 57.0203 220.072C57.5618 220.661 57.4968 221.272 58.5797 222.058C59.6627 222.844 63.9945 224.197 69.041 223.324C65.294 224.263 62.0668 224.044 59.4244 225.048C61.3088 225.354 61.9369 226.38 64.9908 225.943C68.0447 225.485 75.9503 224.721 84.5922 219.875C82.8162 222.516 79.9355 224.306 75.647 225.572C71.3369 226.838 68.6295 228.759 68.6295 228.759C68.6295 228.759 71.0337 228.323 74.3258 228.475C77.618 228.628 85.112 226.838 92.3028 223.586C91.5014 224.808 88.2743 227.057 88.2743 227.057C88.2743 227.057 92.6494 225.812 98.7139 222.822C96.5696 225.725 93.2342 229.065 93.2342 229.065C93.2342 229.065 98.519 225.594 101.616 224.284C104.713 222.975 107.334 222.189 107.334 222.189L107.486 232.448C107.486 232.448 85.8051 233.649 82.5779 233.889C79.3507 234.129 78.5494 234.609 78.5494 235.286C78.5494 235.875 105.58 235.438 112.662 235.307L119.333 235.22V235.176C126.979 235.046 153.056 234.5 153.035 233.932C153.013 233.256 152.19 232.819 148.963 232.688C145.736 232.557 124.012 232.142 124.012 232.142L123.817 221.883C123.817 221.883 126.459 222.582 129.621 223.782C132.74 225.027 138.133 228.301 138.133 228.301C138.133 228.301 134.69 225.07 132.437 222.254C138.61 225.027 143.028 226.118 143.028 226.118C143.028 226.118 139.714 223.979 138.891 222.778C146.19 225.769 153.749 227.297 157.02 227.013C160.312 226.729 162.716 227.1 162.716 227.1C162.716 227.1 159.922 225.288 155.59 224.153C151.237 223.04 148.313 221.359 146.45 218.762C155.244 223.302 163.171 223.782 166.247 224.132C169.322 224.481 169.929 223.433 171.791 223.04C169.127 222.123 165.9 222.451 162.131 221.665C167.221 222.342 171.488 220.857 172.549 220.028C173.611 219.199 173.524 218.609 174.044 217.998C174.564 217.387 175.625 216.928 177.184 216.928C178.744 216.928 180.043 215.248 180.043 215.248C180.043 215.248 177.336 214.593 172.441 215.444C167.546 216.295 157.583 212.65 157.583 212.65C157.583 212.65 160.854 212.388 162.37 211.908C163.886 211.428 165.315 211.799 165.315 211.799C165.315 211.799 162.153 209.682 159.381 207.695C156.608 205.709 153.706 202.238 153.706 202.238C153.706 202.238 158.514 203.985 160.832 204.705C163.128 205.425 167.005 207.062 170.687 206.233C169.149 205.993 166.398 204.443 166.398 204.443C166.398 204.443 167.373 203.788 167.351 202.544C161.092 201.758 154.356 193.376 154.009 191.914C158.688 192.809 162.846 196.105 170.665 199.641C178.441 203.221 184.808 203.221 184.808 203.221Z" fill="#C4C4C4"/>
<path d="M383.39 198.583L377.464 195.518C377.464 195.518 384.401 196.453 389 194.542C382.38 192.691 374.649 189.387 371.16 184.312C376.473 187.178 386.463 187.874 386.463 187.874L383.291 183.137C383.291 183.137 385.571 183.535 387.058 182.441C384.719 182.659 381.587 181.286 381.587 181.286C381.587 181.286 386.146 178.559 388.762 175.235C386.384 176.668 372.389 180.49 364.639 178.619C370.764 177.524 374.411 172.11 374.411 172.11C374.411 172.11 366.899 176.171 358.574 176.549C350.248 176.927 351.2 175.892 343.608 171.135C347.255 173.285 351.933 172.807 351.933 172.807C351.933 172.807 348.821 172.09 346.244 169.045C349.852 171.314 357.364 171.135 357.364 171.135L353.4 169.582C353.4 169.582 360.04 170.359 363.43 168.229C360.298 168.348 356.532 167.293 353.38 164.447C358.871 164.606 366.364 164.328 375.065 158.137C373.341 158.595 369.02 157.958 366.007 156.784C371.894 155.311 374.49 151.748 374.49 151.748C374.49 151.748 372.429 152.584 370.823 152.942C371.973 152.067 372.092 150.892 371.398 150.534C372.508 149.897 372.964 148.683 372.964 148.683C372.964 148.683 371.894 148.464 369.02 149.857C366.165 151.251 355.164 149.798 355.164 149.798C355.164 149.798 360.476 149.141 363.37 146.573C350.427 149.061 339.029 146.135 338.573 145.757C338.098 145.379 337.899 144.165 337.225 143.05C336.532 141.935 335.362 141.537 335.659 140.94C335.937 140.343 336.155 139.248 336.512 139.129C336.849 139.01 337.186 139.069 338.018 140.164C338.871 141.279 339.743 141.398 340.417 141.259C341.11 141.119 340.912 141.577 341.844 141.816C342.795 142.075 343.747 141.756 343.945 140.283C345.907 142.055 347.216 141 348.306 140.96C349.416 140.92 352.052 140.443 354.649 139.627C357.245 138.81 358.217 138.134 361.012 138.611C359.089 135.646 353.301 134.909 350.427 135.984C351.299 135.009 352.746 134.412 354.114 134.332C355.481 134.233 356.274 134.252 357.146 133.377C357.999 132.501 359.366 132.62 360.179 131.804C360.992 130.988 362.359 130.59 365.075 130.192C363.668 129.456 360.397 129.794 360.397 129.794C360.397 129.794 360.893 129.276 360.635 128.261C360.873 127.963 363.271 126.052 366.225 125.733C361.804 124.38 357.84 126.569 352.667 127.266C347.493 127.943 344.877 124.798 344.877 124.798C344.877 124.798 349.693 125.037 351.021 123.265C346.284 124.479 336.849 120.558 335.659 118.807C334.47 117.035 333.519 117.394 332.508 115.602C331.497 113.811 331.556 113.492 332.508 112.378C333.102 111.661 333.281 110.746 333.281 110.746C333.281 110.746 336.056 112.477 336.769 112.417C337.483 112.358 338.355 111.84 339.049 112.358C339.743 112.895 340.417 112.776 341.011 112.776C341.586 112.776 341.864 113.851 342.399 114.129C342.934 114.408 344.857 114.667 345.293 114.169C345.709 113.671 345.154 110.328 345.154 110.328C348.841 112.517 350.328 111.542 350.308 111.144C350.288 110.746 346.978 109.113 344.678 106.625C347.077 107.899 350.883 108.894 354.272 106.506C348.544 107.561 343.509 101.012 340.119 100.296C336.73 99.5793 334.252 98.3452 331.239 96.4543C338.573 95.9567 340.199 91.737 340.199 91.737C340.199 91.737 335.342 92.7919 332.171 91.8564C331.933 89.7665 330.526 89.7864 330.486 89.3286C330.446 88.8708 331.021 87.8756 329.891 87.1391C331.953 87.2785 333.063 86.7013 333.063 86.7013C333.063 86.7013 330.506 85.6861 328.979 85.6861C327.453 85.6861 326.284 85.5468 324.876 84.4123C326.74 84.1137 325.709 82.6408 326.026 82.4418C326.343 82.2626 326.898 80.312 326.541 79.2571C326.185 78.2022 325.253 78.7595 324.995 77.8638C324.738 76.9681 323.846 76.2515 322.716 76.7292C321.606 77.2069 320.06 75.9132 319.861 74.1019C319.683 72.2707 320.773 72.0916 320.694 71.2158C320.615 70.34 319.187 69.7031 318.989 68.3098C318.811 67.0956 318.771 66.2397 317.899 66.0606C317.78 66.0407 317.265 66.0407 317.166 66.0606C316.214 66.2198 316.194 67.0956 316.075 68.3496C315.937 69.7429 314.549 70.4395 314.49 71.3153C314.43 72.1911 315.54 72.3304 315.421 74.1616C315.302 75.9928 313.796 77.3264 312.666 76.8885C311.536 76.4506 310.664 77.2069 310.446 78.1026C310.208 78.9983 309.257 78.4808 308.94 79.5556C308.622 80.6305 309.257 82.5413 309.574 82.7204C309.891 82.8995 308.9 84.4123 310.783 84.6312C309.415 85.8255 308.266 86.0046 306.72 86.0643C305.193 86.124 302.656 87.2188 302.656 87.2188C302.656 87.2188 303.786 87.7363 305.847 87.5372C304.737 88.3135 305.352 89.2888 305.332 89.7466C305.312 90.2044 303.905 90.2442 303.746 92.3341C300.614 93.3891 295.718 92.5133 295.718 92.5133C295.718 92.5133 297.483 96.6733 304.836 96.9121C301.883 98.9224 299.445 100.236 296.095 101.072C292.745 101.908 287.928 108.636 282.16 107.78C285.629 110.049 289.415 108.914 291.754 107.561C289.534 110.129 286.283 111.88 286.283 112.278C286.283 112.676 287.809 113.592 291.417 111.283C291.417 111.283 290.981 114.647 291.417 115.124C291.853 115.602 293.776 115.264 294.291 114.985C294.807 114.687 295.044 113.612 295.619 113.592C296.194 113.572 296.888 113.652 297.562 113.094C298.236 112.537 299.128 113.035 299.841 113.074C300.555 113.094 303.271 111.263 303.271 111.263C303.271 111.263 303.489 112.159 304.103 112.855C305.094 113.95 305.173 114.249 304.222 116.08C303.271 117.911 302.319 117.593 301.189 119.404C300.059 121.215 290.763 125.455 285.986 124.4C287.373 126.112 292.19 125.714 292.19 125.714C292.19 125.714 289.693 128.958 284.499 128.46C279.306 127.963 275.262 125.913 270.901 127.405C273.855 127.624 276.333 129.456 276.57 129.734C276.333 130.749 276.848 131.267 276.848 131.267C276.848 131.267 273.577 131.048 272.17 131.824C274.905 132.123 276.273 132.481 277.125 133.257C277.978 134.033 279.326 133.874 280.218 134.71C281.11 135.566 281.903 135.526 283.27 135.566C284.638 135.606 286.085 136.163 286.997 137.099C284.083 136.143 278.335 137.079 276.511 140.104C279.266 139.507 280.277 140.164 282.894 140.881C285.53 141.597 288.166 141.995 289.276 141.995C290.386 141.995 291.734 142.99 293.617 141.159C293.855 142.612 294.826 142.911 295.758 142.612C296.69 142.334 296.472 141.896 297.165 141.995C297.859 142.095 298.731 141.955 299.524 140.821C300.337 139.686 300.654 139.627 301.011 139.726C301.368 139.826 301.625 140.92 301.923 141.517C302.22 142.115 301.07 142.533 300.416 143.667C299.762 144.802 299.603 146.016 299.148 146.414C298.692 146.812 287.413 150.136 274.39 148.106C277.363 150.574 282.695 151.052 282.695 151.052C282.695 151.052 271.754 152.903 268.84 151.609C265.926 150.315 264.856 150.594 264.856 150.594C264.856 150.594 265.351 151.788 266.481 152.385C265.787 152.763 265.966 153.938 267.135 154.754C265.51 154.455 263.429 153.679 263.429 153.679C263.429 153.679 266.164 157.142 272.091 158.416C269.117 159.71 264.816 160.486 263.072 160.088C271.972 165.98 279.484 165.98 284.955 165.621C281.922 168.587 278.176 169.762 275.044 169.762C278.513 171.772 285.114 170.757 285.114 170.757L281.209 172.449C281.209 172.449 288.721 172.369 292.25 169.961C289.772 173.105 286.699 173.922 286.699 173.922C286.699 173.922 291.397 174.22 294.945 171.951C287.512 176.967 288.523 177.962 280.178 177.882C271.833 177.803 264.202 174.001 264.202 174.001C264.202 174.001 268.027 179.276 274.192 180.152C266.501 182.281 252.388 178.977 249.95 177.624C252.685 180.848 257.343 183.416 257.343 183.416C257.343 183.416 254.251 184.909 251.912 184.769C253.438 185.824 255.698 185.327 255.698 185.327L252.705 190.163C252.705 190.163 262.656 189.108 267.869 186.063C264.558 191.258 256.967 194.821 250.406 196.931C255.044 198.682 261.962 197.488 261.962 197.488L256.134 200.752C256.134 200.752 261.962 200.533 268.999 197.05C276.035 193.567 279.722 190.422 283.984 189.467C283.726 190.82 277.819 198.662 272.13 199.578C272.15 200.713 273.062 201.27 273.062 201.27C273.062 201.27 270.525 202.882 269.137 203.141C272.527 203.778 276.015 202.166 278.097 201.429C280.178 200.693 284.519 198.961 284.519 198.961C284.519 198.961 281.962 202.225 279.504 204.116C277.026 206.007 274.212 208.037 274.212 208.037C274.212 208.037 275.5 207.639 276.907 208.037C278.315 208.435 281.308 208.555 281.308 208.555C281.308 208.555 272.289 212.197 267.809 211.58C263.329 210.963 260.852 211.64 260.852 211.64C260.852 211.64 262.081 213.113 263.528 213.073C264.955 213.033 265.946 213.392 266.441 213.949C266.937 214.486 266.878 215.044 267.869 215.76C268.86 216.477 272.824 217.711 277.443 216.915C274.013 217.771 271.06 217.571 268.642 218.487C270.366 218.766 270.941 219.701 273.736 219.303C276.531 218.885 283.766 218.189 291.675 213.77C290.049 216.178 287.413 217.81 283.488 218.965C279.544 220.119 277.066 221.871 277.066 221.871C277.066 221.871 279.266 221.473 282.279 221.612C285.292 221.751 292.15 220.119 298.731 217.153C297.998 218.268 295.044 220.318 295.044 220.318C295.044 220.318 299.048 219.184 304.599 216.457C302.636 219.104 299.584 222.149 299.584 222.149C299.584 222.149 304.42 218.985 307.255 217.79C310.089 216.596 312.488 215.88 312.488 215.88L312.626 225.235C312.626 225.235 292.785 226.329 289.831 226.548C286.878 226.767 286.144 227.205 286.144 227.822C286.144 228.36 310.882 227.961 317.364 227.842L323.469 227.762V227.723C330.466 227.603 354.332 227.106 354.312 226.588C354.292 225.971 353.539 225.573 350.585 225.454C347.632 225.334 327.751 224.956 327.751 224.956L327.572 215.601C327.572 215.601 329.99 216.238 332.884 217.333C335.739 218.467 340.674 221.453 340.674 221.453C340.674 221.453 337.523 218.507 335.461 215.939C341.11 218.467 345.154 219.462 345.154 219.462C345.154 219.462 342.121 217.512 341.368 216.417C348.048 219.144 354.966 220.537 357.959 220.278C360.972 220.02 363.172 220.358 363.172 220.358C363.172 220.358 360.615 218.706 356.651 217.671C352.667 216.656 349.991 215.123 348.286 212.755C356.334 216.895 363.588 217.333 366.403 217.651C369.218 217.97 369.773 217.014 371.478 216.656C369.039 215.82 366.086 216.118 362.637 215.402C367.295 216.019 371.2 214.665 372.171 213.909C373.143 213.153 373.063 212.615 373.539 212.058C374.015 211.501 374.986 211.083 376.413 211.083C377.84 211.083 379.03 209.55 379.03 209.55C379.03 209.55 376.552 208.953 372.072 209.729C367.592 210.505 358.474 207.181 358.474 207.181C358.474 207.181 361.467 206.943 362.855 206.505C364.243 206.067 365.551 206.405 365.551 206.405C365.551 206.405 362.657 204.474 360.12 202.663C357.582 200.852 354.926 197.687 354.926 197.687C354.926 197.687 359.327 199.28 361.448 199.936C363.549 200.593 367.097 202.086 370.467 201.33C369.059 201.111 366.542 199.697 366.542 199.697C366.542 199.697 367.434 199.1 367.414 197.966C361.686 197.249 355.521 189.606 355.204 188.272C359.485 189.089 363.291 192.094 370.447 195.319C377.563 198.583 383.39 198.583 383.39 198.583Z" fill="#C4C4C4"/>
<path d="M295.736 227.836C295.736 227.836 299.609 229.461 307.291 228.746C315.004 228.031 308.42 232.322 307.549 233.134C306.677 233.947 301.933 236.32 299.448 236.71C296.93 237.068 290.572 238.173 290.572 238.173C290.572 238.173 294.542 241.749 293.961 243.504C293.412 245.259 287.538 243.927 283.924 243.504C280.309 243.081 274.919 242.951 270.917 239.473C274.306 242.464 275.016 244.057 273.596 244.967C272.175 245.877 263.784 245.389 258.362 243.732C260.686 246.787 260.363 247.827 258.943 248.77C257.523 249.713 245.645 248.77 245.645 248.77C245.645 248.77 246.969 250.525 245.968 251.273C244.968 252.021 233.994 250.395 231.67 248.51L232.251 262H216.082L216.662 248.477C214.339 250.395 203.365 251.988 202.365 251.24C201.364 250.493 202.687 248.737 202.687 248.737C202.687 248.737 190.81 249.68 189.39 248.737C188.002 247.795 187.647 246.722 189.971 243.699C184.549 245.357 176.157 245.844 174.737 244.934C173.317 244.057 174.027 242.431 177.416 239.441C173.414 242.886 168.024 243.049 164.409 243.471C160.795 243.894 154.953 245.227 154.372 243.471C153.791 241.716 157.793 238.14 157.793 238.14C157.793 238.14 151.403 237.068 148.917 236.678C146.432 236.288 141.72 233.915 140.816 233.102C139.913 232.322 133.361 228.031 141.042 228.746C148.724 229.461 152.597 227.836 152.597 227.836C152.597 227.836 151.725 226.211 152.726 224.943C153.694 223.675 156.631 224.943 163.441 221.302C170.283 217.597 173.156 210.673 173.156 210.673C173.156 210.673 171.607 210.933 168.185 212.948C164.764 214.964 162.731 214.443 161.537 214.086C160.343 213.728 161.827 211.55 160.407 211.55C158.987 211.55 155.889 214.573 153.145 214.443C150.402 214.313 149.918 214.281 149.176 213.436C148.433 212.591 146.594 212.103 145.335 211.225C144.044 210.315 143.043 207.227 146.109 208.332C149.208 209.437 152.532 206.122 157.115 203.879C161.698 201.636 163.635 198.548 163.635 198.548C163.635 198.548 160.988 198.548 157.987 197.93C154.953 197.313 153.629 194.192 156.05 193.802C158.471 193.412 162.86 191.104 166.798 188.113C170.735 185.188 175.48 181.645 180.063 178.557C175.48 178.167 171.736 179.174 169.961 180.344C168.218 181.515 166.895 181.645 164.635 180.052C160.052 180.117 158.568 177.841 158.632 176.639C158.697 175.436 160.698 175.078 161.698 175.078C162.666 175.078 164.183 174.071 166.604 172.933C168.315 171.145 172.543 167.602 172.543 167.602C172.543 167.602 173.124 163.669 175.221 160.841C177.319 158.013 180.03 158.435 182.161 155.412C180.192 157.2 175.254 155.64 175.254 155.64C175.254 155.64 171.413 158.208 168.347 158.5C165.281 158.793 162.925 158.5 162.021 156.907C161.117 155.315 162.086 154.437 163.732 154.177C164.022 153.169 165.636 153.137 167.346 151.934C168.056 150.211 170.638 149.008 171.026 148.358C171.413 147.741 173.608 145.01 176.351 143.775C179.094 142.54 181.031 140.134 181.031 140.134C181.031 140.134 176.545 142.247 174.996 142.28C173.446 142.312 172.51 142.41 171.316 141.369C169.67 141.369 169.347 140.427 169.476 139.289C169.638 138.151 171.187 138.639 171.703 137.826C172.22 137.014 174.156 136.884 176.609 135.128C179.062 133.373 179.546 130.155 179.546 130.155C179.546 130.155 171.671 130.155 170.961 129.57C170.283 128.985 170.283 128.139 170.316 126.904C170.348 125.669 170.897 124.921 172.769 124.824C174.673 124.726 174.156 123.914 175.512 123.101C176.867 122.288 177.416 122.613 178.61 121.281C179.772 119.948 180.87 119.07 182.322 118.323C183.807 117.575 184.936 116.372 186.292 113.674C184.968 112.959 185.259 111.659 185.259 111.659C185.259 111.659 182.58 111.626 181.386 111.626C180.224 111.626 178.643 111.886 177.384 110.424C176.093 108.961 176.997 106.815 178.643 106.685C180.321 106.555 182.322 106.165 183.936 104.182C185.517 102.2 187.454 101.192 188.777 99.8591C190.1 98.5263 191.359 98.7864 192.585 97.4211C193.812 96.0558 194.812 93.5854 194.812 93.5854C194.812 93.5854 190.423 95.6658 188.906 95.9583C187.389 96.2509 187.228 96.3809 183.677 98.0062C180.16 99.6315 178.707 98.9489 178.223 98.0062C177.771 97.0635 178.707 95.9908 179.934 94.8856C181.16 93.7804 182.451 92.3501 184.775 91.3099C187.066 90.2697 188.164 87.7993 188.164 87.7993C188.164 87.7993 187.325 87.3442 185.711 87.6367C184.097 87.9293 182.516 87.9293 182.031 86.7265C181.547 85.5563 182.257 84.7112 184.194 83.7035C186.13 82.6958 188.261 80.7129 190.229 79.8027C192.198 78.9251 191.811 78.1449 195.167 75.967C198.524 73.7891 203.753 66.9953 203.753 66.9953C203.753 66.9953 202.591 67.4829 201.171 68.1005C199.75 68.7181 199.492 68.1005 196.652 67.873C193.844 67.6129 193.941 67.3529 193.457 65.63C192.973 63.9072 196.426 61.8593 199.008 60.2015C201.59 58.5437 201.655 57.3084 202.687 55.163C203.72 53.0501 206.367 52.53 208.432 48.4342C206.076 49.572 203.43 49.1819 202.784 47.2315C202.139 45.2811 205.044 42.4856 210.046 37.4471C208.368 38.3898 205.528 37.9998 205.721 35.6268C205.915 33.2538 214.468 30.8809 214.952 27.5653C215.404 24.2171 216.63 24.3146 217.211 20.999C217.792 17.6834 221.084 16.5457 221.084 11.2146C221.084 5.88362 222.762 0 224.15 0C225.506 0 227.216 5.88362 227.216 11.2146C227.216 16.5457 230.508 17.6834 231.089 20.999C231.638 24.3471 232.865 24.2496 233.349 27.5653C233.8 30.8809 242.386 33.2538 242.579 35.6268C242.773 38.0323 239.965 38.3898 238.254 37.4471C243.257 42.4856 246.162 45.2811 245.516 47.2315C244.871 49.1819 242.224 49.572 239.868 48.4342C241.934 52.4975 244.58 53.0176 245.613 55.163C246.646 57.3084 246.71 58.5437 249.292 60.2015C251.874 61.8918 255.296 63.9072 254.844 65.63C254.392 67.3529 254.489 67.6454 251.649 67.873C248.841 68.1005 248.55 68.7181 247.13 68.1005C245.742 67.4829 244.548 66.9953 244.548 66.9953C244.548 66.9953 249.777 73.7891 253.133 75.967C256.458 78.1449 256.102 78.8926 258.071 79.8027C260.04 80.7129 262.17 82.6958 264.107 83.7035C266.043 84.6787 266.753 85.5238 266.269 86.7265C265.785 87.9293 264.204 87.9293 262.59 87.6367C260.976 87.3442 260.137 87.7993 260.137 87.7993C260.137 87.7993 261.202 90.2697 263.526 91.3099C265.817 92.3826 267.141 93.7804 268.367 94.8856C269.593 95.9583 270.562 97.0635 270.078 98.0062C269.626 98.9489 268.173 99.6315 264.623 98.0062C261.105 96.3809 260.911 96.2509 259.395 95.9583C257.878 95.6658 253.488 93.5854 253.488 93.5854C253.488 93.5854 254.489 96.0558 255.715 97.4211C256.942 98.8189 258.2 98.5263 259.524 99.8591C260.815 101.192 262.751 102.2 264.365 104.182C265.979 106.165 268.012 106.555 269.658 106.685C271.304 106.815 272.175 108.961 270.917 110.424C269.658 111.919 268.109 111.626 266.915 111.626C265.72 111.626 263.042 111.659 263.042 111.659C263.042 111.659 263.332 112.959 262.009 113.674C263.397 116.372 264.526 117.575 265.979 118.323C267.431 119.103 268.496 119.948 269.69 121.281C270.852 122.613 271.433 122.288 272.789 123.101C274.176 123.914 273.66 124.726 275.532 124.824C277.404 124.921 277.953 125.669 277.985 126.904C278.049 128.139 278.049 128.985 277.339 129.57C276.629 130.155 268.754 130.155 268.754 130.155C268.754 130.155 269.238 133.373 271.691 135.128C274.144 136.884 276.081 137.014 276.597 137.826C277.113 138.639 278.695 138.151 278.824 139.289C278.953 140.427 278.63 141.369 276.984 141.369C275.79 142.41 274.854 142.312 273.305 142.28C271.756 142.215 267.27 140.134 267.27 140.134C267.27 140.134 269.206 142.54 271.949 143.775C274.693 145.01 276.888 147.708 277.275 148.358C277.662 149.008 280.244 150.211 280.954 151.934C282.665 153.137 284.279 153.169 284.569 154.177C286.247 154.404 287.183 155.315 286.28 156.907C285.376 158.5 283.02 158.793 279.954 158.5C276.855 158.208 273.047 155.64 273.047 155.64C273.047 155.64 268.076 157.2 266.14 155.412C268.27 158.468 270.981 158.013 273.079 160.841C275.145 163.636 275.758 167.602 275.758 167.602C275.758 167.602 279.986 171.113 281.697 172.933C284.085 174.071 285.602 175.078 286.602 175.078C287.571 175.078 289.604 175.436 289.668 176.639C289.733 177.841 288.248 180.117 283.665 180.052C281.406 181.677 280.115 181.515 278.34 180.344C276.597 179.174 272.821 178.167 268.238 178.557C272.821 181.645 277.533 185.155 281.503 188.113C285.473 191.071 289.83 193.379 292.25 193.769C294.639 194.16 293.316 197.28 290.314 197.898C287.312 198.515 284.666 198.515 284.666 198.515C284.666 198.515 286.602 201.603 291.185 203.846C295.801 206.089 299.125 209.405 302.191 208.3C305.257 207.195 304.224 210.315 302.966 211.193C301.707 212.07 299.867 212.558 299.125 213.403C298.383 214.281 297.866 214.313 295.155 214.411C292.412 214.508 289.313 211.518 287.893 211.518C286.473 211.518 287.958 213.696 286.764 214.053C285.57 214.411 283.536 214.931 280.115 212.916C276.694 210.9 275.145 210.64 275.145 210.64C275.145 210.64 278.017 217.532 284.859 221.237C291.702 224.943 294.607 223.675 295.607 224.943C296.575 226.211 295.736 227.836 295.736 227.836Z" fill="#C4C4C4"/>
</svg>
