<svg width="316" height="300" viewBox="0 0 316 300" fill="none" xmlns="http://www.w3.org/2000/svg">
<g clip-path="url(#clip0)">
<path d="M307.774 149.74C308.118 148.369 307.774 146.997 307.431 145.625C307.088 144.253 306.058 143.224 304.684 142.538C301.937 141.166 299.19 141.852 296.443 142.195C291.292 143.224 286.141 145.282 280.647 145.625C280.647 144.253 280.304 142.881 279.617 141.509C279.274 140.824 278.587 140.138 277.9 140.138C277.213 139.795 276.526 139.795 275.84 140.138C275.84 140.481 275.84 140.824 275.84 141.166V144.253V150.083V155.914V159C275.84 159.343 275.84 159.686 275.84 160.029C276.526 160.029 277.213 160.029 277.9 160.029C278.587 159.686 279.274 159.343 279.617 158.657C280.304 157.286 280.647 155.914 280.647 154.542C286.141 154.885 290.949 156.943 296.443 157.971C299.19 158.314 301.937 159 304.684 157.628C306.058 156.943 306.744 155.914 307.431 154.542C308.118 152.484 308.118 151.112 307.774 149.74Z" fill="#C4C4C4"/>
<path d="M306.058 150.427C305.027 149.055 304.341 148.026 303.654 147.34C302.967 146.654 302.28 145.968 301.25 145.625C298.847 145.282 296.099 145.625 293.352 146.311V145.968C295.756 144.596 298.16 143.225 301.594 143.225C302.967 143.225 305.027 143.911 306.058 145.282C306.744 147.34 306.744 149.055 306.058 150.427Z" fill="#C4C4C4"/>
<path d="M243.562 159.343C242.532 171.347 238.754 183.007 232.23 193.296C232.23 193.639 231.887 193.982 231.543 194.325C238.068 183.693 242.188 171.69 243.562 159.343Z" fill="#C4C4C4"/>
<path d="M229.14 101.384C225.019 95.2108 219.868 89.7235 214.374 84.5791C219.868 88.3517 223.989 93.496 227.766 98.9834C228.109 99.6693 228.796 100.355 229.14 101.384Z" fill="#C4C4C4"/>
<path d="M238.754 149.74C238.754 154.198 238.411 158.314 237.724 162.429C236.694 162.086 235.664 162.086 234.633 161.743C233.603 161.743 232.573 161.4 231.886 161.4C231.886 161.4 231.2 160.714 231.2 160.371L231.543 155.227V149.397V143.566L231.2 138.422C231.2 138.079 231.543 137.736 231.886 137.393C231.886 137.393 231.886 137.393 232.23 137.393H232.917L234.29 137.05C235.32 136.707 236.35 136.707 237.724 136.364C238.754 141.166 238.754 145.281 238.754 149.74Z" fill="#C4C4C4"/>
<path d="M223.302 197.412C218.151 204.271 212.313 210.444 205.446 215.246C204.759 214.217 204.072 213.531 203.385 212.502L202.355 211.473L202.012 210.787C202.012 210.444 202.012 210.444 201.668 210.444C201.668 210.101 201.668 209.415 201.668 209.415L205.446 205.986L209.566 201.87L213.687 197.755L217.121 193.982C217.464 193.639 217.807 193.639 218.151 193.639C218.838 193.982 219.524 194.668 220.211 195.354C221.585 196.04 222.615 196.726 223.302 197.412Z" fill="#C4C4C4"/>
<path d="M223.302 102.069C222.272 102.755 221.585 103.441 220.555 103.784C219.868 104.127 218.838 105.156 218.495 105.498C218.151 105.498 217.808 105.499 217.464 105.156L214.031 101.383L209.91 97.2675L205.789 93.152L202.012 89.7224C201.669 89.3794 201.669 89.0365 202.012 88.6935C202.012 88.6935 202.012 88.3506 202.356 88.3506L202.699 87.6646L203.729 86.6358C204.416 85.6069 205.103 84.921 205.446 83.8921C212.314 89.0365 218.151 95.2097 223.302 102.069Z" fill="#C4C4C4"/>
<path d="M201.325 91.78C200.982 91.438 200.982 91.438 200.982 91.438C200.982 91.78 201.325 91.78 201.325 91.78Z" fill="#C4C4C4"/>
<path d="M170.764 229.65C166.644 230.336 162.18 230.679 158.059 230.679C153.595 230.679 149.474 230.336 145.354 229.65C145.697 228.621 145.697 227.592 146.041 226.221C146.041 225.192 146.384 224.163 146.384 223.477C146.727 223.477 147.071 222.791 147.414 222.791L152.565 223.134H158.402H164.24L169.391 222.791C169.734 222.791 170.077 223.134 170.421 223.477C170.421 223.477 170.421 223.477 170.421 223.82V224.506L170.764 225.878C170.421 227.249 170.764 228.278 170.764 229.65Z" fill="#C4C4C4"/>
<path d="M170.421 69.8313C170.077 70.8602 169.734 72.232 169.734 73.2609L169.39 74.6327V75.3186C169.39 75.6616 169.39 75.3186 169.39 75.6616C169.047 75.6616 168.704 76.0046 168.704 76.0046C168.704 76.0046 167.673 75.6616 166.643 75.6616L163.896 75.3186H158.059H152.221L149.474 75.6616H148.101H147.757C147.757 75.6616 147.414 75.3186 147.07 75.6616V74.9757V74.2898L146.727 72.9179C146.384 71.8891 146.384 70.5172 146.04 69.4883C150.161 68.8024 154.282 68.4595 158.402 68.4595C162.179 68.8024 166.3 69.1454 170.421 69.8313Z" fill="#C4C4C4"/>
<path d="M113.419 89.0371C113.419 89.3801 113.419 89.7231 113.075 89.7231C113.075 89.7231 112.045 90.409 111.358 91.0949L109.298 92.8097L105.178 96.5822L101.057 100.698L99.34 102.756L98.3098 103.784L97.9664 104.127C97.9664 104.47 97.6231 104.127 97.6231 104.47C97.6231 104.47 96.9363 104.127 97.2797 104.127L96.5929 103.784L95.5627 102.756C94.5326 102.07 93.8458 101.727 92.8157 101.041C97.6231 94.1815 103.461 88.3512 110.328 83.5498C111.015 84.5787 111.358 85.2646 112.045 86.2935L113.075 87.3224L113.419 89.0371C113.419 89.0371 113.075 89.0371 113.419 89.0371Z" fill="#C4C4C4"/>
<path d="M113.419 210.102C113.076 210.102 113.419 210.102 113.419 210.102L112.732 211.131L111.702 212.16C111.015 213.189 110.672 213.875 109.985 214.903C103.118 210.102 97.28 203.929 92.4727 197.413C93.5028 196.727 94.1896 196.384 95.2197 195.698L96.2499 194.669L96.9366 194.326L97.28 193.983C97.28 194.326 97.6234 193.983 97.6234 194.326L97.9668 194.669L98.997 195.698L100.714 197.755L104.834 201.871L108.955 205.986L111.015 207.701C111.702 208.387 112.389 209.073 112.732 209.073C113.076 209.416 113.419 209.759 113.419 210.102Z" fill="#C4C4C4"/>
<path d="M83.5448 160.715C83.5448 160.715 83.2014 160.715 83.2014 161.058H82.5147L81.1411 161.401C80.111 161.744 79.0808 161.744 78.0507 162.087C77.3639 157.972 77.0205 153.856 77.0205 149.741C77.0205 145.625 77.3639 141.51 78.0507 137.394C79.0808 137.737 80.111 137.737 81.1411 138.08L82.5147 138.423H83.2014C83.5448 138.423 83.2014 138.423 83.5448 138.423C83.8882 138.766 83.8882 138.766 83.8882 139.109C83.8882 139.109 83.8882 140.138 83.5448 141.167L83.2014 143.91L82.858 149.741V155.571L83.2014 158.315V159.686V160.029C83.8882 160.372 83.5448 160.715 83.5448 160.715Z" fill="#C4C4C4"/>
<path d="M229.139 149.74V155.571V157.628H213C213 156.943 213 156.257 213 155.571V149.74V143.91V142.538V142.195H229.139C229.139 144.596 229.483 147.34 229.139 149.74Z" fill="#C4C4C4"/>
<path d="M165.957 78.4048V94.5239C165.614 94.5239 165.27 94.5239 165.27 94.5239H163.897H158.059H152.222C151.535 94.5239 151.191 94.5239 150.505 94.5239V78.4048H152.222H158.059H163.897H165.957Z" fill="#C4C4C4"/>
<path d="M165.957 204.614V220.733C163.21 220.733 160.806 220.733 158.059 220.733H152.222H150.505V204.614C151.191 204.614 151.535 204.614 152.222 204.614H163.897H165.27C165.614 204.957 165.614 204.957 165.957 204.614Z" fill="#C4C4C4"/>
<path d="M102.431 157.628H86.2916V155.571V149.74V143.91V142.195H102.431V142.538V143.91V149.74V155.571C102.431 156.257 102.431 156.943 102.431 157.628Z" fill="#C4C4C4"/>
<path d="M124.407 104.813C124.064 104.813 124.064 105.156 123.72 105.156L122.69 106.185L118.569 110.3L114.449 114.416C114.105 114.759 113.762 115.102 113.419 115.787L102.087 104.47L103.461 103.098L107.581 99.3254L111.702 95.2099L113.419 93.4951L124.407 104.813Z" fill="#C4C4C4"/>
<path d="M124.407 194.325L113.075 205.643L111.358 203.928L107.581 200.156L103.461 196.04L102.087 194.668L113.419 183.351C113.762 183.694 114.449 184.037 114.449 184.722L118.569 188.838L122.69 192.953L123.72 193.982C124.064 193.982 124.407 194.325 124.407 194.325Z" fill="#C4C4C4"/>
<path d="M214.03 104.813L202.698 116.13C202.355 115.444 201.668 115.101 201.325 114.415L196.861 110.643L192.74 106.527L191.71 105.498C191.71 105.498 191.71 105.498 191.367 105.156L202.698 93.8379C204.415 95.5527 206.132 97.2675 207.849 99.3252L211.97 103.441L214.03 104.813Z" fill="#C4C4C4"/>
<path d="M214.03 194.668L212.314 196.383L208.193 200.499C206.476 202.213 204.759 203.928 203.042 205.986L191.711 194.668L192.054 194.325L193.084 193.296L197.205 189.181L201.325 185.065C201.669 184.379 202.355 184.037 202.699 183.351L214.03 194.668Z" fill="#C4C4C4"/>
<path d="M152.221 32.1053H158.059H163.896H166.987C167.33 32.1053 167.673 32.1053 168.017 32.1053C168.017 31.4194 168.017 30.7335 168.017 30.0476C167.673 29.3617 167.33 28.6757 166.643 28.3328C165.27 27.6469 163.896 27.3039 162.523 27.3039C162.866 21.8166 164.926 17.0151 165.956 11.5278C166.3 8.78412 166.987 6.04045 165.613 3.29678C164.926 1.92494 163.896 1.23902 162.523 0.553105C160.806 -0.132812 159.432 -0.132812 158.059 -0.132812V0.210146V-0.132812C156.685 -0.132812 155.311 -0.132812 153.938 0.553105C152.564 0.896064 151.534 1.92494 150.847 3.29678C149.474 6.04045 150.161 8.78412 150.504 11.5278C151.534 16.6722 153.595 21.8166 153.938 27.3039C152.564 27.3039 151.191 27.6469 149.817 28.3328C149.131 28.6757 148.444 29.3617 148.444 30.0476C148.1 30.7335 148.1 31.4194 148.444 32.1053C148.787 32.1053 149.131 32.1053 149.474 32.1053H152.221Z" fill="#C4C4C4"/>
<path d="M152.221 8.09941C151.877 6.72758 151.534 4.66982 152.908 2.95503C153.594 1.92615 154.624 1.58319 155.655 1.24023C156.685 1.24023 157.372 1.24023 158.058 1.92615V2.26911C156.685 3.29799 155.998 3.98391 155.655 4.66982C155.655 5.35574 154.968 6.38462 154.968 7.75645C154.968 10.5001 155.311 13.2438 155.998 16.3304H155.655C154.281 13.5868 152.908 11.186 152.221 8.09941Z" fill="#C4C4C4"/>
<path d="M163.897 267.376H158.059H152.222H149.131C148.788 267.376 148.444 267.376 148.101 267.376C148.101 268.062 148.101 268.748 148.101 269.434C148.444 270.12 148.788 270.806 149.474 271.149C150.848 271.834 152.222 272.177 153.595 272.177C153.252 277.665 151.191 282.466 150.161 287.954C149.818 290.697 149.131 293.441 150.505 296.185C151.191 297.556 152.222 298.242 153.595 298.928C154.969 299.271 156.342 299.614 157.716 299.614C159.089 299.614 160.463 299.614 161.836 298.928C163.21 298.585 164.24 297.556 164.927 296.185C166.3 293.441 165.614 290.697 165.27 287.954C164.24 282.809 162.18 277.665 161.836 272.177C163.21 272.177 164.583 271.834 165.957 271.149C166.644 270.806 167.33 270.12 167.33 269.434C167.674 268.748 167.674 268.062 167.33 267.376C166.987 267.376 166.644 267.376 166.3 267.376H163.897Z" fill="#C4C4C4"/>
<path d="M152.566 297.214C150.849 295.499 150.849 293.441 150.849 291.727C151.192 287.954 152.223 284.867 153.596 281.781H153.939C153.253 285.21 152.566 288.64 152.909 291.727C152.909 293.441 153.596 294.813 154.283 295.499C154.97 296.528 156.343 297.214 158.06 297.9V298.243C156.343 298.929 154.283 298.586 152.566 297.214Z" fill="#C4C4C4"/>
<path d="M70.496 70.5166L74.6166 66.4011L78.7372 62.2856L80.7975 60.2279C81.1409 59.8849 81.1409 59.8849 81.4843 59.5419C81.1409 58.856 80.4541 58.5131 80.1107 58.1701C79.424 57.8271 78.3938 57.8271 77.707 57.8271C76.3335 58.1701 74.96 58.856 73.9298 59.8849C70.1526 56.1123 68.0923 50.968 65.0018 46.5095C63.6283 44.4517 61.9114 41.7081 59.1643 41.0221C57.7908 40.6792 56.4172 40.6792 55.0437 41.3651C53.6702 42.051 52.64 42.7369 51.6099 43.7658C50.5797 44.7947 49.8929 45.8236 49.2062 47.1954C48.5194 48.5672 48.176 49.9391 48.8628 51.3109C49.8929 54.0546 52.2966 55.7694 54.3569 57.1412C58.8209 60.2279 63.9717 62.2856 67.7489 66.0582C66.7188 67.087 66.032 68.4589 65.6886 69.8307C65.6886 70.5166 65.6886 71.5455 66.032 72.2314C66.3754 72.9173 66.7187 73.2603 67.4055 73.6033C67.7489 73.2603 68.0923 72.9173 68.0923 72.9173L70.496 70.5166Z" fill="#C4C4C4"/>
<path d="M63.9719 60.5709C60.1947 59.1991 56.7609 57.8272 53.327 55.0836C52.6403 54.3977 51.6101 53.7117 50.9233 52.6829C50.2366 51.654 49.5498 50.2822 49.8932 48.9103C49.8932 47.5385 50.9233 46.1666 51.6101 45.4807C52.6403 44.7948 53.6704 44.1089 54.7006 44.1089L55.0439 44.4518C54.0138 46.5096 53.327 47.8814 53.6704 48.9103C53.6704 49.9392 54.3572 51.654 55.3873 53.0258C56.4175 54.3977 58.1344 55.7695 59.5079 56.7984C60.8815 57.8272 62.5984 59.1991 63.9719 60.5709Z" fill="#C4C4C4"/>
<path d="M78.7372 237.538L74.6166 233.422L70.496 229.307L68.4357 227.249C68.0923 226.906 67.7489 226.563 67.7489 226.563C67.0621 226.906 66.7187 227.592 66.3753 227.935C66.032 228.621 66.032 229.65 66.032 230.336C66.3753 231.707 67.0621 233.079 68.0923 234.108C64.315 237.881 59.1643 239.938 54.7003 243.025C52.64 244.397 49.8929 246.112 49.2061 248.855C48.8628 250.227 48.8628 251.599 49.5495 252.971C50.2363 254.343 51.2664 255.372 51.9532 256.4C52.9834 257.429 54.0135 258.458 55.3871 258.801C56.7606 259.487 58.1341 259.83 59.5077 259.144C62.2547 258.115 63.9717 255.715 65.3452 253.657C68.4357 249.198 70.496 244.054 74.2732 240.281C75.3033 241.31 76.6769 241.996 78.0504 242.339C78.7372 242.339 79.7673 242.339 80.4541 241.996C81.1409 241.653 81.4842 241.31 81.8276 240.624C81.4842 240.281 81.4842 240.281 81.1409 239.938L78.7372 237.538Z" fill="#C4C4C4"/>
<path d="M56.7616 245.426C55.388 246.455 54.3579 247.141 53.3277 248.513C52.2976 249.885 52.2976 250.913 52.641 251.942C52.9843 252.971 53.6711 254.343 54.3579 256.058V256.401C52.641 255.715 51.2674 254.686 50.2373 252.971C49.8939 251.942 49.8939 250.913 50.2373 249.885C50.5807 248.856 51.2674 248.17 51.9542 247.484C54.7013 245.083 57.7917 244.054 60.8822 243.025V243.368C59.5086 243.711 58.1351 244.397 56.7616 245.426Z" fill="#C4C4C4"/>
<path d="M237.38 62.286L241.501 66.4015L245.622 70.517L247.682 72.5747C248.025 72.9177 248.369 73.2606 248.369 73.2606C249.055 72.9177 249.399 72.2318 249.742 71.8888C250.086 71.2029 250.086 70.174 250.086 69.4881C249.742 68.1163 249.055 66.7444 248.025 65.7155C251.802 61.943 256.953 59.8852 261.417 56.7986C263.477 55.4268 266.225 53.712 266.911 50.9683C267.255 49.5965 267.255 48.2246 266.568 46.8528C265.881 45.481 264.851 44.4521 264.164 43.4232L263.821 43.7662L264.164 43.4232C263.134 42.3943 262.104 41.7084 260.73 41.0225C259.357 40.3366 257.983 39.9936 256.61 40.6795C253.863 41.7084 252.146 44.1091 250.772 46.1669C247.682 50.6254 245.622 55.7697 241.844 59.5423C240.814 58.5134 239.441 57.8275 238.067 57.4845C237.38 57.4845 236.35 57.4845 235.663 57.8275C234.977 58.1705 234.633 58.5134 234.29 59.1993C234.633 59.5423 234.633 59.5423 234.977 59.8852L237.38 62.286Z" fill="#C4C4C4"/>
<path d="M255.237 44.1085C255.923 43.4226 256.61 42.7367 257.64 42.3937C258.67 42.0508 259.701 42.0508 260.731 42.0508C262.791 42.7367 263.821 44.1085 264.508 45.8233H264.165C262.448 45.1374 261.418 44.4515 260.044 44.4515C259.014 44.4515 257.984 44.4515 256.61 45.4804C254.206 47.1952 252.49 49.9388 251.116 52.6825H250.773C251.803 49.5959 252.833 46.5092 255.237 44.1085Z" fill="#C4C4C4"/>
<path d="M245.622 228.964L241.501 233.079L237.38 237.195L235.32 239.252C234.977 239.595 234.977 239.595 234.633 239.938C234.977 240.624 235.664 240.967 236.007 241.31C236.694 241.653 237.724 241.653 238.411 241.653C239.784 241.31 241.158 240.624 242.188 239.595C245.965 243.368 248.025 248.512 251.116 252.971C252.489 255.028 254.206 257.772 256.953 258.458C258.327 258.801 259.7 258.801 261.074 258.115C262.447 257.429 263.478 256.743 264.508 255.714C265.538 254.685 266.225 253.657 266.911 252.285C267.598 250.913 267.942 249.541 267.255 248.169C266.225 245.426 263.821 243.711 261.761 242.339C257.297 239.252 252.146 237.195 248.369 233.422C249.399 232.393 250.086 231.021 250.429 229.649C250.429 228.964 250.429 227.935 250.086 227.249C249.742 226.563 249.399 226.22 248.712 225.877C248.369 226.22 248.025 226.563 248.025 226.563L245.622 228.964Z" fill="#C4C4C4"/>
<path d="M250.773 247.142C252.49 249.542 254.206 252.286 256.61 253.658C257.984 254.344 259.014 254.344 260.044 254.344C261.074 254.344 262.448 253.658 263.821 252.972H264.165C263.821 254.687 262.448 256.059 260.731 256.744C258.67 257.43 256.61 256.402 255.58 255.03C252.833 252.972 251.459 249.885 250.773 247.142Z" fill="#C4C4C4"/>
<path d="M40.2781 155.57V149.74V143.909V140.823C40.2781 140.48 40.2781 140.137 40.2781 139.794C39.5913 139.794 38.9046 139.794 38.2178 139.794C37.531 140.137 36.8443 140.48 36.5009 141.166C35.4707 142.538 35.1273 143.909 35.1273 145.281C29.6332 144.938 24.8258 142.881 19.3317 141.852C16.5846 141.509 13.8375 140.823 11.0905 142.195C9.71692 142.881 9.03015 143.909 8.34338 145.281C8 146.996 8 148.368 8 149.74C8 151.112 8 152.483 8.68677 153.855C9.03015 155.227 10.0603 156.256 11.4338 156.942C14.1809 158.314 16.928 157.628 19.6751 157.285C24.8258 156.256 29.9766 154.198 35.4707 153.855C35.4707 155.227 35.8141 156.599 36.5009 157.971C36.8443 158.657 37.531 159.343 38.2178 159.343C38.9046 159.686 39.5913 159.686 40.2781 159.343C40.2781 159 40.2781 158.657 40.2781 158.314V155.57Z" fill="#C4C4C4"/>
<path d="M17.959 155.57C16.2421 155.913 14.5252 155.913 12.8083 154.884C11.4347 154.198 10.0612 152.484 10.0612 150.769C10.0612 149.054 10.4046 147.339 11.4347 145.967H11.7781C12.1215 147.682 12.1215 149.054 12.4649 150.083C12.8083 151.455 13.1516 152.484 14.1818 153.169C15.2119 153.855 16.5855 154.198 17.959 154.198C19.3326 154.198 21.0495 153.855 22.423 153.512V153.855C21.0495 154.884 19.6759 155.227 17.959 155.57Z" fill="#C4C4C4"/>
<path d="M210.597 149.74V143.91V142.538V142.195C210.597 142.195 210.253 142.195 209.91 141.852H209.566C207.506 141.509 205.102 141.166 203.042 140.823C201.669 140.48 200.638 140.137 199.265 139.794C199.265 139.451 199.265 139.108 198.922 139.108C197.891 134.993 196.174 131.22 194.114 127.791C194.114 127.448 193.771 127.448 193.771 127.105C194.458 126.076 195.144 125.047 195.831 124.018C197.205 122.303 198.235 120.246 199.608 118.531V118.188C199.608 117.845 199.952 117.845 199.952 117.502C200.295 117.159 199.608 116.473 199.265 116.473L195.144 112.357L191.024 108.242L189.994 107.213V106.87C189.994 106.87 189.65 106.87 189.307 107.213H188.963C187.246 108.585 185.53 109.957 183.469 110.986C182.439 111.672 181.409 112.357 180.035 113.043C179.692 113.043 179.692 112.7 179.349 112.7C175.915 110.643 172.138 109.271 168.36 108.242C168.017 108.242 167.674 108.242 167.674 107.899C167.33 106.87 166.987 105.498 166.643 104.469C166.3 102.412 165.957 100.011 165.613 97.9532V97.6102C165.613 97.2673 165.613 97.2673 165.27 96.9243H164.927H163.553H157.715H151.878C151.191 96.9243 150.504 96.9243 150.161 96.9243C150.161 96.9243 149.818 97.2673 149.818 97.6102V97.9532C149.474 100.011 149.131 102.412 148.787 104.469C148.444 105.498 148.444 106.87 148.101 107.899C147.757 107.899 147.414 107.899 147.071 108.242C142.95 109.271 139.173 110.986 135.739 113.043C135.395 113.043 135.395 113.386 135.052 113.386C134.022 112.7 132.648 112.015 131.618 111.329C129.901 109.957 127.841 108.928 126.124 107.556H125.781C125.437 107.556 125.437 107.213 125.094 107.213V107.556L124.064 108.585L119.943 112.7L116.509 116.473C116.166 116.816 115.479 117.502 115.136 117.502C115.136 117.502 115.136 117.845 115.479 118.188V118.531C116.853 120.246 118.226 121.96 119.256 124.018C119.943 125.047 120.63 126.419 121.317 127.448C121.317 127.791 120.973 127.791 120.973 128.134C118.913 131.563 117.196 135.336 116.166 139.451C116.166 139.794 116.166 140.137 115.823 140.137C114.449 140.48 113.076 140.823 112.045 141.166C109.985 141.509 107.581 141.852 105.521 142.195H105.178C104.834 142.195 104.834 142.538 104.491 142.538V142.881V144.253V150.083V155.913C104.491 156.599 104.491 157.285 104.491 157.628C104.491 157.628 104.834 157.971 105.178 157.971H105.521C107.581 158.314 109.985 158.657 112.045 159C113.419 159.343 114.792 159.686 115.823 160.029C115.823 160.372 115.823 160.715 116.166 160.715C117.196 164.487 118.57 168.26 120.63 171.689C120.63 172.032 120.973 172.032 120.973 172.375C120.287 173.404 119.6 174.776 118.913 175.805C117.539 177.52 116.509 179.577 115.136 181.292V181.635C115.136 181.978 114.792 181.978 114.792 182.321C115.136 182.664 115.823 183.35 116.166 183.693L120.287 187.808L124.407 191.924L125.437 192.953V193.296C125.437 193.296 125.781 193.296 126.124 192.953L126.467 192.61C128.184 191.238 129.901 189.866 131.962 188.837C132.992 188.151 134.022 187.465 135.395 186.78C135.739 186.78 135.739 187.123 136.082 187.123C139.516 189.18 143.293 190.895 147.414 191.924C147.757 191.924 148.101 191.924 148.444 192.267C148.787 193.639 149.131 194.668 149.131 196.039C149.474 198.097 150.161 200.498 150.161 202.556V202.899C150.161 203.242 150.161 203.242 150.504 203.585C150.848 203.585 151.878 203.585 152.221 203.585H158.059H163.896H165.27H165.613C165.613 203.585 165.957 203.242 165.957 202.899V202.556C166.3 200.498 166.643 198.097 166.987 196.039C167.33 194.668 167.674 193.639 168.017 192.267C168.36 192.267 168.704 192.267 169.047 191.924C172.824 190.895 176.602 189.523 180.035 187.465C180.379 187.123 180.379 187.123 180.722 187.123C181.752 187.808 182.782 188.494 183.813 189.18C185.53 190.552 187.59 191.581 189.307 192.953L189.65 193.296C189.994 193.296 189.994 193.639 190.337 193.639L190.68 193.296L191.71 192.267L195.831 188.151L199.952 184.036C200.295 183.693 200.982 183.007 201.325 182.664C201.325 182.664 201.325 182.321 200.982 181.978V181.635C199.608 179.92 198.235 178.206 197.205 176.148C196.518 175.119 195.831 174.09 195.144 173.061C195.144 172.718 195.488 172.718 195.488 172.375C197.548 168.946 198.922 165.173 199.952 161.401C199.952 161.058 200.295 160.715 200.295 160.715C201.669 160.372 202.699 160.029 204.072 159.686C206.133 159.343 208.536 159 210.597 158.657H210.94C211.283 158.657 211.283 158.657 211.627 158.314C211.627 157.971 211.627 156.942 211.627 156.599L210.597 149.74ZM160.806 123.675C160.806 125.39 159.432 126.419 158.059 126.419C156.342 126.419 155.312 125.047 155.312 123.675C155.312 122.303 156.685 120.931 158.059 120.931C159.432 120.931 160.806 122.303 160.806 123.675ZM135.395 149.74C135.395 151.455 134.022 152.484 132.648 152.484C130.931 152.484 129.901 151.112 129.901 149.74C129.901 148.025 131.275 146.996 132.648 146.996C134.022 146.996 135.395 148.025 135.395 149.74ZM139.516 169.632C137.799 169.632 136.769 168.26 136.769 166.888C136.769 165.173 138.143 164.144 139.516 164.144C140.89 164.144 142.263 165.516 142.263 166.888C142.263 168.26 140.89 169.632 139.516 169.632ZM139.516 133.964C137.799 133.964 136.769 132.592 136.769 131.22C136.769 129.848 138.143 128.477 139.516 128.477C140.89 128.477 142.263 129.848 142.263 131.22C142.263 132.592 140.89 133.964 139.516 133.964ZM158.059 178.206C156.342 178.206 155.312 176.834 155.312 175.462C155.312 173.747 156.685 172.718 158.059 172.718C159.776 172.718 160.806 174.09 160.806 175.462C160.806 176.834 159.776 178.206 158.059 178.206ZM177.632 170.66C175.915 170.66 174.885 169.289 174.885 167.917C174.885 166.202 176.258 165.173 177.632 165.173C179.349 165.173 180.379 166.545 180.379 167.917C180.379 169.289 179.349 170.66 177.632 170.66ZM177.632 133.964C175.915 133.964 174.885 132.592 174.885 131.22C174.885 129.848 176.258 128.477 177.632 128.477C179.349 128.477 180.379 129.848 180.379 131.22C180.379 132.592 179.349 133.964 177.632 133.964ZM184.156 152.484C182.439 152.484 181.409 151.112 181.409 149.74C181.409 148.025 182.782 146.996 184.156 146.996C185.53 146.996 186.903 148.368 186.903 149.74C187.246 151.112 185.873 152.484 184.156 152.484Z" fill="#C4C4C4"/>
<path d="M136.426 181.978C133.335 179.577 130.245 176.834 127.841 173.747C125.438 170.66 123.377 166.888 121.66 163.115C118.57 155.227 118.226 146.31 120.63 138.079C123.377 130.191 128.185 122.646 135.052 117.845C138.486 115.444 142.263 113.386 146.041 112.014C150.161 110.986 154.282 110.3 158.059 110.986V111.329C150.161 111.329 142.607 115.101 136.769 119.903C130.932 125.047 126.124 131.906 124.064 139.108C121.66 146.653 121.66 154.884 124.407 162.086C126.468 169.632 131.275 176.148 136.426 181.978Z" fill="#C4C4C4"/>
<path d="M150.504 154.543C151.534 156.6 153.251 158.315 155.312 159.344C152.908 158.658 150.848 156.943 149.474 154.886C148.101 152.828 147.757 150.084 148.101 147.684C148.444 145.283 149.474 142.882 151.534 141.167C153.251 139.453 155.998 138.767 158.402 138.767C155.998 139.453 153.938 140.481 152.564 142.196C151.191 143.911 150.161 145.969 150.161 148.026C149.131 150.427 149.474 152.485 150.504 154.543Z" fill="#C4C4C4"/>
<path d="M168.017 144.939C168.704 146.311 169.391 148.026 169.391 149.74C169.391 151.455 169.048 153.17 168.017 154.542C168.704 153.17 169.048 151.455 169.048 149.74C169.048 148.026 168.704 146.311 168.017 144.939Z" fill="#C4C4C4"/>
<path d="M83.5442 160.715C83.5442 160.715 83.2008 160.715 83.2008 161.058H82.5141L81.1405 161.401C80.1104 161.744 79.0802 161.744 78.0501 162.087C77.3633 157.972 77.0199 153.856 77.0199 149.741C77.0199 145.625 77.3633 141.51 78.0501 137.394C79.0802 137.737 80.1104 137.737 81.1405 138.08L82.5141 138.423H83.2008C83.5442 138.423 83.2008 138.423 83.5442 138.423C83.8876 138.766 83.8876 138.766 83.8876 139.109C83.8876 139.109 83.8876 140.138 83.5442 141.167L83.2008 143.91L82.8575 149.741V155.571L83.2008 158.315V159.686V160.029C83.8876 160.372 83.5442 160.715 83.5442 160.715Z" fill="#C4C4C4"/>
<path d="M86.6347 155.571V149.74V143.91V142.195H102.774V142.538V143.91V149.74V155.571C102.774 156.257 102.774 156.943 102.774 157.628H86.6347V155.571Z" fill="#C4C4C4"/>
<path d="M95.2191 103.442C94.189 102.756 93.5022 102.413 92.4721 101.727C97.2795 94.8676 103.117 89.0373 109.985 84.2358C110.671 85.2647 111.015 85.9506 111.702 86.9795L112.732 88.0084L113.075 88.6943C113.075 89.0373 113.075 89.0373 113.075 89.0373C113.075 89.3802 113.075 89.7232 112.732 89.7232C112.732 89.7232 111.702 90.4091 111.015 91.095L108.955 92.8098L104.834 96.5824L100.713 100.698L98.9964 102.756L97.9662 103.785L97.6228 104.127C97.6228 104.47 97.2795 104.127 97.2795 104.47C97.2795 104.47 96.5927 104.127 96.9361 104.127L96.2493 103.785L95.2191 103.442Z" fill="#C4C4C4"/>
<path d="M113.419 210.102C113.075 210.102 113.419 210.102 113.419 210.102L112.732 211.131L111.702 212.16C111.015 213.189 110.671 213.875 109.985 214.903C103.117 210.102 97.2795 203.929 92.4721 197.413C93.5022 196.727 94.189 196.384 95.2191 195.698L96.2493 194.669L96.9361 194.326L97.2795 193.983C97.2795 194.326 97.6228 193.983 97.6228 194.326L97.9662 194.669L98.9964 195.698L100.713 197.755L104.834 201.871L108.955 205.986L111.015 207.701C111.702 208.387 112.388 209.073 112.732 209.073C113.075 209.416 113.419 209.759 113.419 210.102Z" fill="#C4C4C4"/>
<path d="M123.72 193.982C123.72 193.982 124.063 194.325 124.407 194.325L113.075 205.643L111.358 203.928L107.581 200.156L103.46 196.04L102.087 194.668L113.419 183.351C113.762 183.694 114.449 184.037 114.449 184.722L118.569 188.838L122.69 192.953L123.72 193.982Z" fill="#C4C4C4"/>
<path d="M113.075 93.4951L124.407 104.813C124.063 104.813 124.063 105.156 123.72 105.156L122.69 106.185L118.569 110.3L114.449 114.416C114.105 114.759 113.762 115.102 113.419 115.787L102.087 104.47L103.46 103.098L107.581 99.3254L111.702 95.2099L113.075 93.4951Z" fill="#C4C4C4"/>
<path d="M163.897 78.4048H165.957V94.5239C165.613 94.5239 165.27 94.5239 165.27 94.5239H163.897H158.059H152.221C151.535 94.5239 151.191 94.5239 150.505 94.5239V78.4048H152.221H158.059H163.897Z" fill="#C4C4C4"/>
<path d="M152.221 221.076H150.505V204.957C151.191 204.957 151.535 204.957 152.221 204.957H163.897H165.27C165.613 204.957 165.613 204.957 165.957 204.957V221.076C163.21 221.076 160.806 221.076 158.059 221.076H152.221Z" fill="#C4C4C4"/>
<path d="M146.383 72.9179C146.04 71.8891 146.04 70.5172 145.697 69.4883C149.817 68.8024 153.938 68.4595 158.059 68.4595C162.523 68.4595 166.643 68.8024 170.764 69.4883C170.42 70.5172 170.077 71.8891 170.077 72.9179L169.734 74.2898V74.9757C169.734 75.3186 169.734 74.9757 169.734 75.3186C169.39 75.3186 169.047 75.6616 169.047 75.6616C169.047 75.6616 168.017 75.3186 166.986 75.3186H163.896H158.059H152.221L149.474 75.6616H148.1H147.757C147.757 75.6616 147.414 75.3186 147.07 75.6616V74.9757V74.2898L146.383 72.9179Z" fill="#C4C4C4"/>
<path d="M170.078 226.22C170.421 227.249 170.421 228.278 170.764 229.307C166.644 229.993 162.18 230.336 158.059 230.336C153.595 230.336 149.475 229.993 145.354 229.307C145.697 228.278 145.697 227.249 146.041 225.877C146.041 224.848 146.384 223.82 146.384 223.134C146.727 223.134 147.071 222.448 147.414 222.448L152.565 222.791H158.403H164.24L169.391 222.448C169.734 222.448 170.078 222.791 170.421 223.134C170.421 223.134 170.421 223.134 170.421 223.477V224.163L170.078 226.22Z" fill="#C4C4C4"/>
<path d="M200.982 91.7797C200.982 91.4374 200.982 91.4374 200.982 91.7797C200.982 91.7797 201.326 91.7797 200.982 91.7797Z" fill="#C4C4C4"/>
<path d="M210.596 149.74V143.91V142.538V142.195C210.596 142.195 210.253 142.195 209.909 141.852H209.566C207.506 141.509 205.102 141.166 203.042 140.823C201.668 140.48 200.638 140.137 199.265 139.794C199.265 139.451 199.265 139.108 198.921 139.108C197.891 134.993 196.174 131.22 194.114 127.791C194.114 127.448 193.77 127.448 193.77 127.105C194.457 126.076 195.144 125.047 195.831 124.018C197.204 122.303 198.234 120.246 199.608 118.531V118.188C199.608 117.845 199.951 117.845 199.951 117.502C200.295 117.159 199.608 116.473 199.265 116.473L195.144 112.357L191.023 108.242L189.993 107.213V106.87C189.993 106.87 189.65 106.87 189.306 107.213H188.963C187.246 108.585 185.529 109.957 183.469 110.986C182.439 111.672 181.409 112.357 180.035 113.043C179.692 113.043 179.692 112.7 179.348 112.7C175.914 110.643 172.137 109.271 168.36 108.242C168.017 108.242 167.673 108.242 167.673 107.899C167.33 106.87 166.986 105.498 166.643 104.469C166.3 102.412 165.956 100.011 165.613 97.9532V97.6102C165.613 97.2673 165.613 97.2673 165.27 96.9243H164.926H163.553H157.715H151.878C151.191 96.9243 150.504 96.9243 150.161 96.9243C150.161 96.9243 149.817 97.2673 149.817 97.6102V97.9532C149.474 100.011 149.131 102.412 148.787 104.469C148.444 105.498 148.444 106.87 148.1 107.899C147.757 107.899 147.414 107.899 147.07 108.242C142.95 109.271 139.172 110.986 135.739 113.043C135.395 113.043 135.395 113.386 135.052 113.386C134.022 112.7 132.648 112.015 131.618 111.329C129.901 109.957 127.841 108.928 126.124 107.556H125.78C125.437 107.556 125.437 107.213 125.094 107.213V107.556L124.063 108.585L119.943 112.7L116.509 116.473C116.166 116.816 115.479 117.502 115.135 117.502C115.135 117.502 115.135 117.845 115.479 118.188V118.531C116.852 120.246 118.226 121.96 119.256 124.018C119.943 125.047 120.63 126.419 121.316 127.448C121.316 127.791 120.973 127.791 120.973 128.134C118.913 131.563 117.196 135.336 116.166 139.451C116.166 139.794 116.166 140.137 115.822 140.137C114.449 140.48 113.075 140.823 112.045 141.166C109.985 141.509 107.581 141.852 105.521 142.195H105.177C104.834 142.195 104.834 142.538 104.491 142.538V142.881V144.253V150.083V155.913C104.491 156.599 104.491 157.285 104.491 157.628C104.491 157.628 104.834 157.971 105.177 157.971H105.521C107.581 158.314 109.985 158.657 112.045 159C113.419 159.343 114.792 159.686 115.822 160.029C115.822 160.372 115.822 160.715 116.166 160.715C117.196 164.487 118.569 168.26 120.63 171.689C120.63 172.032 120.973 172.032 120.973 172.375C120.286 173.404 119.599 174.776 118.913 175.805C117.539 177.52 116.509 179.577 115.135 181.292V181.635C115.135 181.978 114.792 181.978 114.792 182.321C115.135 182.664 115.822 183.35 116.166 183.693L120.286 187.808L124.407 191.924L125.437 192.953V193.296C125.437 193.296 125.78 193.296 126.124 192.953L126.467 192.61C128.184 191.238 129.901 189.866 131.961 188.837C132.991 188.151 134.022 187.465 135.395 186.78C135.739 186.78 135.739 187.123 136.082 187.123C139.516 189.18 143.293 190.895 147.414 191.924C147.757 191.924 148.1 191.924 148.444 192.267C148.787 193.639 149.131 194.668 149.131 196.039C149.474 198.097 150.161 200.498 150.161 202.556V202.899C150.161 203.242 150.161 203.242 150.504 203.585C150.847 203.585 151.878 203.585 152.221 203.585H158.058H163.896H165.27H165.613C165.613 203.585 165.956 203.242 165.956 202.899V202.556C166.3 200.498 166.643 198.097 166.986 196.039C167.33 194.668 167.673 193.639 168.017 192.267C168.36 192.267 168.703 192.267 169.047 191.924C172.824 190.895 176.601 189.523 180.035 187.465C180.378 187.123 180.378 187.123 180.722 187.123C181.752 187.808 182.782 188.494 183.812 189.18C185.529 190.552 187.59 191.581 189.306 192.953L189.65 193.296C189.993 193.296 189.993 193.639 190.337 193.639L190.68 193.296L191.71 192.267L195.831 188.151L199.951 184.036C200.295 183.693 200.982 183.007 201.325 182.664C201.325 182.664 201.325 182.321 200.982 181.978V181.635C199.608 179.92 198.234 178.206 197.204 176.148C196.518 175.119 195.831 174.09 195.144 173.061C195.144 172.718 195.487 172.718 195.487 172.375C197.548 168.946 198.921 165.173 199.951 161.401C199.951 161.058 200.295 160.715 200.295 160.715C201.668 160.372 202.698 160.029 204.072 159.686C206.132 159.343 208.536 159 210.596 158.657H210.94C211.283 158.657 211.283 158.657 211.626 158.314C211.626 157.971 211.626 156.942 211.626 156.599L210.596 149.74ZM160.806 123.675C160.806 125.39 159.432 126.419 158.058 126.419C156.342 126.419 155.311 125.047 155.311 123.675C155.311 122.303 156.685 120.931 158.058 120.931C159.432 120.931 160.806 122.303 160.806 123.675ZM135.395 149.74C135.395 151.455 134.022 152.484 132.648 152.484C130.931 152.484 129.901 151.112 129.901 149.74C129.901 148.025 131.275 146.996 132.648 146.996C134.022 146.996 135.395 148.025 135.395 149.74ZM139.516 169.632C137.799 169.632 136.769 168.26 136.769 166.888C136.769 165.173 138.142 164.144 139.516 164.144C140.889 164.144 142.263 165.516 142.263 166.888C142.263 168.26 140.889 169.632 139.516 169.632ZM139.516 133.964C137.799 133.964 136.769 132.592 136.769 131.22C136.769 129.848 138.142 128.477 139.516 128.477C140.889 128.477 142.263 129.848 142.263 131.22C142.263 132.592 140.889 133.964 139.516 133.964ZM158.058 178.206C156.342 178.206 155.311 176.834 155.311 175.462C155.311 173.747 156.685 172.718 158.058 172.718C159.775 172.718 160.806 174.09 160.806 175.462C160.806 176.834 159.775 178.206 158.058 178.206ZM177.631 170.66C175.914 170.66 174.884 169.289 174.884 167.917C174.884 166.202 176.258 165.173 177.631 165.173C179.348 165.173 180.378 166.545 180.378 167.917C180.378 169.289 179.348 170.66 177.631 170.66ZM177.631 133.964C175.914 133.964 174.884 132.592 174.884 131.22C174.884 129.848 176.258 128.477 177.631 128.477C179.348 128.477 180.378 129.848 180.378 131.22C180.378 132.592 179.348 133.964 177.631 133.964ZM184.156 152.484C182.439 152.484 181.409 151.112 181.409 149.74C181.409 148.025 182.782 146.996 184.156 146.996C185.529 146.996 186.903 148.368 186.903 149.74C187.246 151.112 185.873 152.484 184.156 152.484Z" fill="#C4C4C4"/>
<path d="M203.042 205.299L191.71 193.982L192.054 193.639L193.084 192.61L197.205 188.494L201.325 184.379C201.669 183.693 202.355 183.35 202.699 182.664L214.03 193.982L212.313 195.696L208.193 199.812C206.476 201.87 204.759 203.585 203.042 205.299Z" fill="#C4C4C4"/>
<path d="M191.71 105.498C191.71 105.498 191.71 105.156 191.71 105.498L203.042 93.8379C204.759 95.5527 206.476 97.2675 208.193 99.3252L212.313 103.441L214.03 105.156L202.699 116.473C202.355 115.787 201.669 115.444 201.325 114.758L196.861 110.643L192.741 106.527L191.71 105.498Z" fill="#C4C4C4"/>
<path d="M202.011 90.0661C201.668 89.7232 201.668 89.3802 202.011 89.0373C202.011 89.0373 202.011 88.6943 202.355 88.6943L202.698 88.0084L203.728 86.9795C204.415 85.9506 205.102 85.2647 205.445 84.2358C212.313 89.3802 218.494 95.2105 223.301 102.07C222.271 102.756 221.584 103.442 220.554 103.784C219.867 104.127 218.837 105.156 218.494 105.499C218.15 105.499 217.807 105.499 217.464 105.156L214.03 101.384L209.909 97.2683L205.789 93.1528L202.011 90.0661Z" fill="#C4C4C4"/>
<path d="M220.554 195.354C221.584 196.04 222.271 196.726 223.301 197.412C218.151 204.271 212.313 210.444 205.445 215.246C204.759 214.217 204.072 213.531 203.385 212.502L202.355 211.473L202.012 210.787C202.012 210.444 202.012 210.444 201.668 210.444C201.668 210.101 201.668 209.415 201.668 209.415L205.445 205.986L209.566 201.87L213.687 197.755L217.12 193.982C217.464 193.639 217.807 193.639 218.151 193.639C219.181 193.982 219.868 195.011 220.554 195.354Z" fill="#C4C4C4"/>
<path d="M214.373 84.5791C219.868 88.3517 223.988 93.496 227.765 98.9834C228.109 99.6693 228.796 100.355 229.139 101.384C225.018 95.2108 219.868 89.3805 214.373 84.5791Z" fill="#C4C4C4"/>
<path d="M229.482 142.195C229.482 144.596 229.482 147.34 229.482 149.74V155.571V157.628H213.343C213.343 156.943 213.343 156.257 213.343 155.571V149.74V143.91V142.538V142.195H229.482Z" fill="#C4C4C4"/>
<path d="M231.886 193.982C238.067 183.693 242.188 171.69 243.561 159.343C242.531 171.347 238.754 183.007 232.23 193.296C232.23 193.296 231.886 193.639 231.886 193.982Z" fill="#C4C4C4"/>
<path d="M238.067 137.051C238.754 141.166 239.097 145.282 239.097 149.74C239.097 154.199 238.754 158.314 238.067 162.43C237.037 162.087 236.007 162.087 234.976 161.744C233.946 161.744 232.916 161.401 232.229 161.401C232.229 161.401 231.543 160.715 231.543 160.372L231.886 155.228V149.397V143.567L231.543 138.423C231.543 138.08 231.886 137.737 232.229 137.394C232.229 137.394 232.229 137.394 232.573 137.394H233.26L234.633 137.051C235.663 137.394 236.693 137.394 238.067 137.051Z" fill="#C4C4C4"/>
<path d="M273.436 149.74V143.91L273.779 139.108C273.779 138.766 273.092 138.423 272.749 138.08C272.405 138.08 272.062 138.08 271.375 137.737H270.002C268.972 137.394 267.598 137.394 266.568 137.051C266.568 136.708 266.568 136.365 266.568 136.365C264.164 116.473 256.266 98.2964 244.591 82.8633C244.591 82.8633 244.248 82.5203 244.248 82.1773C244.935 81.1485 245.622 80.1196 246.308 79.4337L247.338 78.4048C247.682 78.0618 248.025 77.7189 248.025 77.3759C248.369 76.69 248.369 76.347 248.025 76.0041C248.025 76.0041 248.025 76.0041 247.682 75.6611L246.652 74.6322L244.591 72.5745L240.127 68.459L236.007 64.0005L233.946 61.9428L232.916 60.9139C232.916 60.9139 232.916 60.9139 232.573 60.5709C232.23 60.228 231.543 60.5709 231.199 60.5709C230.513 60.9139 229.482 61.5998 228.796 62.2857C227.766 62.9716 226.735 63.6575 226.049 64.3435C226.049 64.3435 225.705 64.0005 225.362 64.0005C210.253 51.997 191.71 44.1089 171.794 41.7082C171.451 41.7082 171.451 41.7082 171.107 41.7082C171.107 40.6793 170.764 39.6504 170.42 38.2786L170.077 36.9068C170.077 36.5638 170.077 35.8779 169.734 35.5349C169.39 34.849 169.047 34.506 168.703 34.506L163.896 34.849H158.059H152.221L147.414 34.1631C147.07 34.1631 146.727 34.849 146.384 35.5349C146.384 35.8779 146.04 36.2208 146.04 36.9068V38.2786C145.697 39.3075 145.697 40.3363 145.353 41.7082C145.01 41.7082 144.667 41.7082 144.667 41.7082C124.407 44.1089 106.208 51.997 91.0987 64.0005L90.4119 64.3435C89.3818 63.6575 88.695 62.9716 87.6649 62.2857C86.9781 61.5998 85.9479 60.9139 85.2612 60.5709C84.9178 60.228 84.231 60.228 83.8876 60.5709C83.8876 60.5709 83.8876 60.5709 83.5443 60.9139L82.5141 61.9428L80.4538 64.0005L76.3332 68.459L71.8692 72.5745L69.8089 74.2893L68.7787 75.3182L68.4354 75.6611C68.4354 76.0041 68.4354 76.69 68.4354 77.0329C68.4354 77.3759 68.7787 77.7189 69.1221 78.0618L70.1523 79.0907C70.839 80.1196 71.5258 80.8055 72.2126 81.8344C72.2126 82.1773 71.8692 82.1773 71.8692 82.5203C59.8508 97.6105 51.9529 116.13 49.5492 136.022C49.5492 136.365 49.5492 136.708 49.5492 136.708C48.5191 136.708 47.4889 137.051 46.1154 137.394H44.7419C44.3985 137.394 43.7117 137.394 43.3683 137.737C42.6816 138.08 42.3382 138.423 41.9948 138.766L42.3382 143.567V149.397V155.228V160.372C42.3382 160.715 43.0249 161.058 43.7117 161.401C44.0551 161.401 44.3985 161.401 45.0852 161.744H46.4588C47.4889 162.087 48.5191 162.087 49.8926 162.43C49.8926 162.773 49.8926 162.773 49.8926 163.116C52.2963 183.35 60.1941 201.527 72.2126 216.96C72.2126 217.303 72.556 217.303 72.556 217.646C71.8692 218.675 71.1824 219.704 70.4957 220.733L69.4655 221.762C69.1221 222.105 68.7787 222.448 68.7787 222.79C68.4354 223.476 68.4354 224.162 68.7787 224.162C68.7787 224.162 68.7787 224.162 69.1221 224.505L70.1523 225.534L72.2126 227.592L76.6766 231.707L80.7972 236.166L82.8575 238.224L83.8876 239.253C83.8876 239.253 83.8876 239.595 84.231 239.595C84.5744 239.595 85.2612 239.595 85.6046 239.595C86.2913 239.253 86.9781 238.567 88.0082 237.881C89.0384 237.195 90.0686 236.509 91.0987 235.823C91.4421 235.823 91.4421 236.166 91.7855 236.166C106.894 247.826 125.094 255.715 145.353 258.115C145.697 258.115 145.697 258.115 146.04 258.115C146.384 259.144 146.384 260.516 146.727 261.545V262.917C146.727 263.603 146.727 263.946 147.07 264.288C147.07 264.974 147.757 265.317 148.1 265.317L152.908 264.974H158.745H164.583L169.39 265.317C169.734 265.317 170.077 264.631 170.42 264.288C170.42 263.946 170.42 263.603 170.764 262.917L171.107 261.545C171.451 260.516 171.451 259.144 171.794 258.115C172.137 258.115 172.137 258.115 172.481 258.115C192.397 255.715 210.596 247.826 225.705 236.166C226.049 236.166 226.049 235.823 226.392 235.823C227.422 236.509 228.452 237.195 229.482 237.881C230.169 238.567 231.199 239.253 231.886 239.595C232.23 239.938 232.916 239.938 233.26 239.595C233.26 239.595 233.26 239.595 233.603 239.253L234.633 238.224L236.694 236.166L240.814 231.707L245.278 227.592L247.682 225.534L248.712 224.505C248.712 224.848 249.055 224.162 249.055 224.162C249.055 223.819 249.055 223.133 248.712 222.79C248.712 222.448 248.369 222.105 248.025 221.762L246.995 220.733C246.308 219.704 245.622 218.675 244.935 217.646C244.935 217.646 245.278 217.303 245.278 216.96C257.297 201.87 265.194 183.35 267.598 163.459C267.598 163.116 267.598 162.773 267.598 162.773C268.628 162.43 270.002 162.43 271.032 162.087H272.405C273.092 162.087 273.436 162.087 273.779 161.744C274.466 161.744 274.809 161.058 274.809 160.715L274.466 155.913L273.436 149.74ZM224.332 78.4048C226.735 78.4048 228.452 80.1196 228.452 82.5203C228.452 84.578 226.735 86.6358 224.332 86.6358C221.928 86.6358 220.211 84.921 220.211 82.5203C220.554 80.4625 222.271 78.4048 224.332 78.4048ZM158.059 50.6251C160.119 50.6251 162.179 52.3399 162.179 54.7406C162.179 56.7984 160.462 58.8561 158.059 58.8561C155.655 58.8561 153.938 57.1413 153.938 54.7406C153.938 52.3399 155.998 50.6251 158.059 50.6251ZM62.9412 153.856C60.5375 153.856 58.8206 152.141 58.8206 149.74C58.8206 147.682 60.5375 145.625 62.9412 145.625C65.3449 145.625 67.0618 147.34 67.0618 149.74C66.7184 152.141 65.0015 153.856 62.9412 153.856ZM90.0686 78.4048C92.1289 78.4048 94.1892 80.1196 94.1892 82.5203C94.1892 84.578 92.4722 86.6358 90.0686 86.6358C87.6649 86.6358 85.9479 84.921 85.9479 82.5203C85.9479 80.4625 88.0082 78.4048 90.0686 78.4048ZM91.0987 221.076C88.695 221.076 86.9781 219.361 86.9781 216.96C86.9781 214.902 88.695 212.845 91.0987 212.845C93.159 212.845 95.2193 214.559 95.2193 216.96C95.2193 219.018 93.5024 221.076 91.0987 221.076ZM158.059 248.855C155.655 248.855 153.938 247.141 153.938 244.74C153.938 242.682 155.655 240.624 158.059 240.624C160.119 240.624 162.179 242.339 162.179 244.74C161.836 247.141 160.119 248.855 158.059 248.855ZM224.332 221.419C221.928 221.419 220.211 219.704 220.211 217.303C220.211 214.902 221.928 213.188 224.332 213.188C226.735 213.188 228.452 214.902 228.452 217.303C228.452 219.704 226.735 221.419 224.332 221.419ZM246.308 155.571C245.622 169.289 241.501 182.664 233.946 193.982C230.169 199.469 225.705 204.957 220.898 209.415C217.121 212.845 213 216.274 208.536 219.018C194.457 229.307 176.601 235.48 157.715 235.48C110.328 235.48 71.5258 197.069 71.5258 149.397C71.5258 102.069 110.328 63.3146 157.715 63.3146C179.348 63.3146 198.921 71.2026 214.03 84.2351V83.8921C219.868 87.3217 224.332 92.4661 228.452 97.6105C232.573 103.098 235.663 108.928 238.41 115.101C244.248 128.134 246.652 141.852 246.308 155.571ZM253.519 153.856C251.116 153.856 249.399 152.141 249.399 149.74C249.399 147.682 251.116 145.625 253.519 145.625C255.58 145.625 257.64 147.34 257.64 149.74C257.297 152.141 255.58 153.856 253.519 153.856Z" fill="#C4C4C4"/>
<path d="M69.8087 209.758C65.6881 202.556 62.2542 195.011 59.5072 187.123C56.7601 179.235 55.0432 171.004 53.6696 162.773C51.6093 145.968 53.6696 128.82 59.5072 112.701C66.0315 96.925 75.9896 82.8636 88.3514 71.546C101.057 60.5713 115.479 50.9685 131.961 47.8818V48.2248C124.063 50.2826 116.509 54.0551 109.641 58.1706C102.774 62.6291 96.2493 67.7735 90.0683 73.2608C78.0499 84.5784 68.4352 98.2968 62.5976 113.73C56.4167 129.163 54.3564 145.968 56.0733 162.087C58.1336 178.892 63.2844 194.668 69.8087 209.758Z" fill="#C4C4C4"/>
<path d="M83.5442 160.715C83.5442 160.715 83.2008 160.715 83.2008 161.058H82.5141L81.1405 161.401C80.1104 161.744 79.0802 161.744 78.0501 162.087C77.3633 157.972 77.0199 153.856 77.0199 149.741C77.0199 145.625 77.3633 141.51 78.0501 137.394C79.0802 137.737 80.1104 137.737 81.1405 138.08L82.5141 138.423H83.2008C83.5442 138.423 83.2008 138.423 83.5442 138.423C83.8876 138.766 83.8876 138.766 83.8876 139.109C83.8876 139.109 83.8876 140.138 83.5442 141.167L83.2008 143.91L82.8575 149.741V155.571L83.2008 158.315V159.686V160.029C83.8876 160.372 83.5442 160.715 83.5442 160.715Z" fill="#C4C4C4"/>
<path d="M86.6347 155.571V149.74V143.91V142.195H102.774V142.538V143.91V149.74V155.571C102.774 156.257 102.774 156.943 102.774 157.628H86.6347V155.571Z" fill="#C4C4C4"/>
<path d="M95.2191 103.442C94.189 102.756 93.5022 102.413 92.4721 101.727C97.2795 94.8676 103.117 89.0373 109.985 84.2358C110.671 85.2647 111.015 85.9506 111.702 86.9795L112.732 88.0084L113.075 88.6943C113.075 89.0373 113.075 89.0373 113.075 89.0373C113.075 89.3802 113.075 89.7232 112.732 89.7232C112.732 89.7232 111.702 90.4091 111.015 91.095L108.955 92.8098L104.834 96.5824L100.713 100.698L98.9964 102.756L97.9662 103.785L97.6228 104.127C97.6228 104.47 97.2795 104.127 97.2795 104.47C97.2795 104.47 96.5927 104.127 96.9361 104.127L96.2493 103.785L95.2191 103.442Z" fill="#C4C4C4"/>
<path d="M113.419 210.102C113.075 210.102 113.419 210.102 113.419 210.102L112.732 211.131L111.702 212.16C111.015 213.189 110.671 213.875 109.985 214.903C103.117 210.102 97.2795 203.929 92.4721 197.413C93.5022 196.727 94.189 196.384 95.2191 195.698L96.2493 194.669L96.9361 194.326L97.2795 193.983C97.2795 194.326 97.6228 193.983 97.6228 194.326L97.9662 194.669L98.9964 195.698L100.713 197.755L104.834 201.871L108.955 205.986L111.015 207.701C111.702 208.387 112.388 209.073 112.732 209.073C113.075 209.416 113.419 209.759 113.419 210.102Z" fill="#C4C4C4"/>
<path d="M123.72 193.982C123.72 193.982 124.063 194.325 124.407 194.325L113.075 205.643L111.358 203.928L107.581 200.156L103.46 196.04L102.087 194.668L113.419 183.351C113.762 183.694 114.449 184.037 114.449 184.722L118.569 188.838L122.69 192.953L123.72 193.982Z" fill="#C4C4C4"/>
<path d="M113.075 93.4951L124.407 104.813C124.063 104.813 124.063 105.156 123.72 105.156L122.69 106.185L118.569 110.3L114.449 114.416C114.105 114.759 113.762 115.102 113.419 115.787L102.087 104.47L103.46 103.098L107.581 99.3254L111.702 95.2099L113.075 93.4951Z" fill="#C4C4C4"/>
<path d="M163.897 78.4048H165.957V94.5239C165.613 94.5239 165.27 94.5239 165.27 94.5239H163.897H158.059H152.221C151.535 94.5239 151.191 94.5239 150.505 94.5239V78.4048H152.221H158.059H163.897Z" fill="#C4C4C4"/>
<path d="M152.221 221.076H150.505V204.957C151.191 204.957 151.535 204.957 152.221 204.957H163.897H165.27C165.613 204.957 165.613 204.957 165.957 204.957V221.076C163.21 221.076 160.806 221.076 158.059 221.076H152.221Z" fill="#C4C4C4"/>
<path d="M146.383 72.9179C146.04 71.8891 146.04 70.5172 145.697 69.4883C149.817 68.8024 153.938 68.4595 158.059 68.4595C162.523 68.4595 166.643 68.8024 170.764 69.4883C170.42 70.5172 170.077 71.8891 170.077 72.9179L169.734 74.2898V74.9757C169.734 75.3186 169.734 74.9757 169.734 75.3186C169.39 75.3186 169.047 75.6616 169.047 75.6616C169.047 75.6616 168.017 75.3186 166.986 75.3186H163.896H158.059H152.221L149.474 75.6616H148.1H147.757C147.757 75.6616 147.414 75.3186 147.07 75.6616V74.9757V74.2898L146.383 72.9179Z" fill="#C4C4C4"/>
<path d="M170.078 226.22C170.421 227.249 170.421 228.278 170.764 229.307C166.644 229.993 162.18 230.336 158.059 230.336C153.595 230.336 149.475 229.993 145.354 229.307C145.697 228.278 145.697 227.249 146.041 225.877C146.041 224.848 146.384 223.82 146.384 223.134C146.727 223.134 147.071 222.448 147.414 222.448L152.565 222.791H158.403H164.24L169.391 222.448C169.734 222.448 170.078 222.791 170.421 223.134C170.421 223.134 170.421 223.134 170.421 223.477V224.163L170.078 226.22Z" fill="#C4C4C4"/>
<path d="M200.982 91.7797C200.982 91.4374 200.982 91.4374 200.982 91.7797C200.982 91.7797 201.326 91.7797 200.982 91.7797Z" fill="#C4C4C4"/>
<path d="M210.596 149.74V143.91V142.538V142.195C210.596 142.195 210.253 142.195 209.909 141.852H209.566C207.506 141.509 205.102 141.166 203.042 140.823C201.668 140.48 200.638 140.137 199.265 139.794C199.265 139.451 199.265 139.108 198.921 139.108C197.891 134.993 196.174 131.22 194.114 127.791C194.114 127.448 193.77 127.448 193.77 127.105C194.457 126.076 195.144 125.047 195.831 124.018C197.204 122.303 198.234 120.246 199.608 118.531V118.188C199.608 117.845 199.951 117.845 199.951 117.502C200.295 117.159 199.608 116.473 199.265 116.473L195.144 112.357L191.023 108.242L189.993 107.213V106.87C189.993 106.87 189.65 106.87 189.306 107.213H188.963C187.246 108.585 185.529 109.957 183.469 110.986C182.439 111.672 181.409 112.357 180.035 113.043C179.692 113.043 179.692 112.7 179.348 112.7C175.914 110.643 172.137 109.271 168.36 108.242C168.017 108.242 167.673 108.242 167.673 107.899C167.33 106.87 166.986 105.498 166.643 104.469C166.3 102.412 165.956 100.011 165.613 97.9532V97.6102C165.613 97.2673 165.613 97.2673 165.27 96.9243H164.926H163.553H157.715H151.878C151.191 96.9243 150.504 96.9243 150.161 96.9243C150.161 96.9243 149.817 97.2673 149.817 97.6102V97.9532C149.474 100.011 149.131 102.412 148.787 104.469C148.444 105.498 148.444 106.87 148.1 107.899C147.757 107.899 147.414 107.899 147.07 108.242C142.95 109.271 139.172 110.986 135.739 113.043C135.395 113.043 135.395 113.386 135.052 113.386C134.022 112.7 132.648 112.015 131.618 111.329C129.901 109.957 127.841 108.928 126.124 107.556H125.78C125.437 107.556 125.437 107.213 125.094 107.213V107.556L124.063 108.585L119.943 112.7L116.509 116.473C116.166 116.816 115.479 117.502 115.135 117.502C115.135 117.502 115.135 117.845 115.479 118.188V118.531C116.852 120.246 118.226 121.96 119.256 124.018C119.943 125.047 120.63 126.419 121.316 127.448C121.316 127.791 120.973 127.791 120.973 128.134C118.913 131.563 117.196 135.336 116.166 139.451C116.166 139.794 116.166 140.137 115.822 140.137C114.449 140.48 113.075 140.823 112.045 141.166C109.985 141.509 107.581 141.852 105.521 142.195H105.177C104.834 142.195 104.834 142.538 104.491 142.538V142.881V144.253V150.083V155.913C104.491 156.599 104.491 157.285 104.491 157.628C104.491 157.628 104.834 157.971 105.177 157.971H105.521C107.581 158.314 109.985 158.657 112.045 159C113.419 159.343 114.792 159.686 115.822 160.029C115.822 160.372 115.822 160.715 116.166 160.715C117.196 164.487 118.569 168.26 120.63 171.689C120.63 172.032 120.973 172.032 120.973 172.375C120.286 173.404 119.599 174.776 118.913 175.805C117.539 177.52 116.509 179.577 115.135 181.292V181.635C115.135 181.978 114.792 181.978 114.792 182.321C115.135 182.664 115.822 183.35 116.166 183.693L120.286 187.808L124.407 191.924L125.437 192.953V193.296C125.437 193.296 125.78 193.296 126.124 192.953L126.467 192.61C128.184 191.238 129.901 189.866 131.961 188.837C132.991 188.151 134.022 187.465 135.395 186.78C135.739 186.78 135.739 187.123 136.082 187.123C139.516 189.18 143.293 190.895 147.414 191.924C147.757 191.924 148.1 191.924 148.444 192.267C148.787 193.639 149.131 194.668 149.131 196.039C149.474 198.097 150.161 200.498 150.161 202.556V202.899C150.161 203.242 150.161 203.242 150.504 203.585C150.847 203.585 151.878 203.585 152.221 203.585H158.058H163.896H165.27H165.613C165.613 203.585 165.956 203.242 165.956 202.899V202.556C166.3 200.498 166.643 198.097 166.986 196.039C167.33 194.668 167.673 193.639 168.017 192.267C168.36 192.267 168.703 192.267 169.047 191.924C172.824 190.895 176.601 189.523 180.035 187.465C180.378 187.123 180.378 187.123 180.722 187.123C181.752 187.808 182.782 188.494 183.812 189.18C185.529 190.552 187.59 191.581 189.306 192.953L189.65 193.296C189.993 193.296 189.993 193.639 190.337 193.639L190.68 193.296L191.71 192.267L195.831 188.151L199.951 184.036C200.295 183.693 200.982 183.007 201.325 182.664C201.325 182.664 201.325 182.321 200.982 181.978V181.635C199.608 179.92 198.234 178.206 197.204 176.148C196.518 175.119 195.831 174.09 195.144 173.061C195.144 172.718 195.487 172.718 195.487 172.375C197.548 168.946 198.921 165.173 199.951 161.401C199.951 161.058 200.295 160.715 200.295 160.715C201.668 160.372 202.698 160.029 204.072 159.686C206.132 159.343 208.536 159 210.596 158.657H210.94C211.283 158.657 211.283 158.657 211.626 158.314C211.626 157.971 211.626 156.942 211.626 156.599L210.596 149.74ZM160.806 123.675C160.806 125.39 159.432 126.419 158.058 126.419C156.342 126.419 155.311 125.047 155.311 123.675C155.311 122.303 156.685 120.931 158.058 120.931C159.432 120.931 160.806 122.303 160.806 123.675ZM135.395 149.74C135.395 151.455 134.022 152.484 132.648 152.484C130.931 152.484 129.901 151.112 129.901 149.74C129.901 148.025 131.275 146.996 132.648 146.996C134.022 146.996 135.395 148.025 135.395 149.74ZM139.516 169.632C137.799 169.632 136.769 168.26 136.769 166.888C136.769 165.173 138.142 164.144 139.516 164.144C140.889 164.144 142.263 165.516 142.263 166.888C142.263 168.26 140.889 169.632 139.516 169.632ZM139.516 133.964C137.799 133.964 136.769 132.592 136.769 131.22C136.769 129.848 138.142 128.477 139.516 128.477C140.889 128.477 142.263 129.848 142.263 131.22C142.263 132.592 140.889 133.964 139.516 133.964ZM158.058 178.206C156.342 178.206 155.311 176.834 155.311 175.462C155.311 173.747 156.685 172.718 158.058 172.718C159.775 172.718 160.806 174.09 160.806 175.462C160.806 176.834 159.775 178.206 158.058 178.206ZM177.631 170.66C175.914 170.66 174.884 169.289 174.884 167.917C174.884 166.202 176.258 165.173 177.631 165.173C179.348 165.173 180.378 166.545 180.378 167.917C180.378 169.289 179.348 170.66 177.631 170.66ZM177.631 133.964C175.914 133.964 174.884 132.592 174.884 131.22C174.884 129.848 176.258 128.477 177.631 128.477C179.348 128.477 180.378 129.848 180.378 131.22C180.378 132.592 179.348 133.964 177.631 133.964ZM184.156 152.484C182.439 152.484 181.409 151.112 181.409 149.74C181.409 148.025 182.782 146.996 184.156 146.996C185.529 146.996 186.903 148.368 186.903 149.74C187.246 151.112 185.873 152.484 184.156 152.484Z" fill="#C4C4C4"/>
<path d="M203.042 205.299L191.71 193.982L192.054 193.639L193.084 192.61L197.205 188.494L201.325 184.379C201.669 183.693 202.355 183.35 202.699 182.664L214.03 193.982L212.313 195.696L208.193 199.812C206.476 201.87 204.759 203.585 203.042 205.299Z" fill="#C4C4C4"/>
<path d="M191.71 105.498C191.71 105.498 191.71 105.156 191.71 105.498L203.042 93.8379C204.759 95.5527 206.476 97.2675 208.193 99.3252L212.313 103.441L214.03 105.156L202.699 116.473C202.355 115.787 201.669 115.444 201.325 114.758L196.861 110.643L192.741 106.527L191.71 105.498Z" fill="#C4C4C4"/>
<path d="M202.011 90.0661C201.668 89.7232 201.668 89.3802 202.011 89.0373C202.011 89.0373 202.011 88.6943 202.355 88.6943L202.698 88.0084L203.728 86.9795C204.415 85.9506 205.102 85.2647 205.445 84.2358C212.313 89.3802 218.494 95.2105 223.301 102.07C222.271 102.756 221.584 103.442 220.554 103.784C219.867 104.127 218.837 105.156 218.494 105.499C218.15 105.499 217.807 105.499 217.464 105.156L214.03 101.384L209.909 97.2683L205.789 93.1528L202.011 90.0661Z" fill="#C4C4C4"/>
<path d="M220.554 195.354C221.584 196.04 222.271 196.726 223.301 197.412C218.151 204.271 212.313 210.444 205.445 215.246C204.759 214.217 204.072 213.531 203.385 212.502L202.355 211.473L202.012 210.787C202.012 210.444 202.012 210.444 201.668 210.444C201.668 210.101 201.668 209.415 201.668 209.415L205.445 205.986L209.566 201.87L213.687 197.755L217.12 193.982C217.464 193.639 217.807 193.639 218.151 193.639C219.181 193.982 219.868 195.011 220.554 195.354Z" fill="#C4C4C4"/>
<path d="M214.373 84.5791C219.868 88.3517 223.988 93.496 227.765 98.9834C228.109 99.6693 228.796 100.355 229.139 101.384C225.018 95.2108 219.868 89.3805 214.373 84.5791Z" fill="#C4C4C4"/>
<path d="M229.482 142.195C229.482 144.596 229.482 147.34 229.482 149.74V155.571V157.628H213.343C213.343 156.943 213.343 156.257 213.343 155.571V149.74V143.91V142.538V142.195H229.482Z" fill="#C4C4C4"/>
<path d="M243.561 159.343C242.531 171.347 238.754 183.007 232.229 193.296C232.229 193.639 231.886 193.982 231.543 194.325C238.067 183.693 242.188 171.69 243.561 159.343Z" fill="#C4C4C4"/>
<path d="M231.886 155.571V149.741V143.911L231.543 138.766C231.543 138.423 231.886 138.08 232.229 137.737C232.229 137.737 232.229 137.737 232.573 137.737H233.26L234.633 137.394C235.663 137.051 236.693 137.051 238.067 136.708C238.754 140.824 239.097 144.94 239.097 149.398C239.097 153.856 238.754 157.972 238.067 162.087C237.037 161.744 236.007 161.744 234.976 161.402C233.946 161.402 232.916 161.059 232.229 161.059C232.229 161.059 231.543 160.373 231.543 160.03L231.886 155.571Z" fill="#C4C4C4"/>
</g>
<defs>
<clipPath id="clip0">
<rect width="316" height="300" fill="white"/>
</clipPath>
</defs>
</svg>
