<svg width="204" height="200" viewBox="0 0 204 200" fill="none" xmlns="http://www.w3.org/2000/svg">
<g clip-path="url(#clip0)">
<path d="M102 115.052V156.094L161.531 146.979V124.167L102 115.052Z" fill="#C4C4C4"/>
<path d="M158.042 135.521C158.042 139.74 159.344 143.646 161.531 146.927L178.563 144.323V126.719L161.531 124.115C159.344 127.396 158.042 131.302 158.042 135.521Z" fill="#C4C4C4"/>
<path d="M102 115.052L25.4375 126.771V144.375L102 156.094V115.052Z" fill="#C4C4C4"/>
<path d="M102 150.208L25.4375 161.927V179.531L102 191.25V150.208Z" fill="#C4C4C4"/>
<path d="M102 150.208V191.25L161.531 182.135V159.323L102 150.208Z" fill="#C4C4C4"/>
<path d="M158.042 170.677C158.042 174.896 159.344 178.802 161.531 182.083L178.563 179.479V161.875L161.531 159.271C159.344 162.552 158.042 166.458 158.042 170.677Z" fill="#C4C4C4"/>
<path d="M25.4375 179.479V197.083H78.5625L102 179.479H25.4375Z" fill="#C4C4C4"/>
<path d="M102 144.323H25.4375V161.927H102V144.323Z" fill="#C4C4C4"/>
<path d="M160.021 144.323H102V161.927H160.021V144.323Z" fill="#C4C4C4"/>
<path d="M158.042 153.125C158.042 156.25 158.771 159.271 160.021 161.927H178.563V144.323H160.021C158.771 146.979 158.042 150 158.042 153.125Z" fill="#C4C4C4"/>
<path d="M102 179.479L125.438 197.083H160.021V179.479H102Z" fill="#C4C4C4"/>
<path d="M158.042 188.281C158.042 191.406 158.771 194.427 160.021 197.083H178.563V179.479H160.021C158.771 182.135 158.042 185.156 158.042 188.281Z" fill="#C4C4C4"/>
<path d="M125.438 115.052H78.5625V197.083H125.438V115.052Z" fill="#B2B2B1"/>
<path d="M25.4375 97.4479V126.771H160.021L178.562 97.4479H25.4375Z" fill="#C4C4C4"/>
<path d="M178.563 97.4479C167.26 97.4479 158.042 106.667 158.042 117.969C158.042 121.094 158.771 124.115 160.021 126.771H178.563V97.4479Z" fill="#C4C4C4"/>
<path d="M102 8.80212L89.1354 20.8334L102 99.7917H178.562L179.24 99.6875L188.927 90L102 8.80212Z" fill="#B2B2B1"/>
<path d="M173.615 99.7917L89.1354 20.8334L15.0729 90L24.7083 99.6355L25.4375 99.7396H173.615V99.7917Z" fill="#C4C4C4"/>
<path d="M102 91.6146L90.2812 100.417L102 109.219H160.021V91.6146H102Z" fill="#C4C4C4"/>
<path d="M102 91.6146H25.4375V109.219H102V91.6146Z" fill="#C4C4C4"/>
<path d="M158.042 100.365C158.042 103.49 158.771 106.51 160.021 109.167H178.563V91.5625H160.021C158.771 94.2708 158.042 97.2396 158.042 100.365Z" fill="#C4C4C4"/>
<path d="M34.2395 188.281C34.2395 193.125 30.2812 197.083 25.4375 197.083C20.5937 197.083 16.6354 193.125 16.6354 188.281C16.6354 183.438 20.5937 179.479 25.4375 179.479C27.7812 179.479 30.0208 180.417 31.6354 182.031C33.302 183.698 34.2395 185.938 34.2395 188.281Z" fill="#B2B2B1"/>
<path d="M34.2395 170.677C34.2395 175.521 30.2812 179.479 25.4375 179.479C20.5937 179.479 16.6354 175.521 16.6354 170.677C16.6354 165.833 20.5937 161.875 25.4375 161.875C27.7812 161.875 30.0208 162.813 31.6354 164.427C33.302 166.146 34.2395 168.385 34.2395 170.677Z" fill="#C4C4C4"/>
<path d="M34.2395 153.125C34.2395 157.969 30.2812 161.927 25.4375 161.927C20.5937 161.927 16.6354 157.969 16.6354 153.125C16.6354 148.281 20.5937 144.323 25.4375 144.323C27.7812 144.323 30.0208 145.26 31.6354 146.875C33.302 148.542 34.2395 150.781 34.2395 153.125Z" fill="#B2B2B1"/>
<path d="M187.365 188.281C187.365 193.125 183.406 197.083 178.563 197.083C173.719 197.083 169.76 193.125 169.76 188.281C169.76 183.438 173.719 179.479 178.563 179.479C183.406 179.479 187.365 183.438 187.365 188.281Z" fill="#B2B2B1"/>
<path d="M187.365 170.677C187.365 175.521 183.406 179.479 178.563 179.479C173.719 179.479 169.76 175.521 169.76 170.677C169.76 165.833 173.719 161.875 178.563 161.875C183.406 161.927 187.365 165.833 187.365 170.677Z" fill="#C4C4C4"/>
<path d="M187.365 153.125C187.365 157.969 183.406 161.927 178.563 161.927C173.719 161.927 169.76 157.969 169.76 153.125C169.76 148.281 173.719 144.323 178.563 144.323C183.406 144.323 187.365 148.281 187.365 153.125Z" fill="#B2B2B1"/>
<path d="M34.2395 135.521C34.2395 140.365 30.2812 144.323 25.4375 144.323C20.5937 144.323 16.6354 140.365 16.6354 135.521C16.6354 130.677 20.5937 126.719 25.4375 126.719C27.7812 126.719 30.0208 127.656 31.6354 129.271C33.302 130.99 34.2395 133.229 34.2395 135.521Z" fill="#C4C4C4"/>
<path d="M34.2395 117.969C34.2395 122.813 30.2812 126.771 25.4375 126.771C20.5937 126.771 16.6354 122.813 16.6354 117.969C16.6354 113.125 20.5937 109.167 25.4375 109.167C27.7812 109.167 30.0208 110.104 31.6354 111.719C33.302 113.385 34.2395 115.625 34.2395 117.969Z" fill="#B2B2B1"/>
<path d="M187.365 135.521C187.365 140.365 183.406 144.323 178.563 144.323C173.719 144.323 169.76 140.365 169.76 135.521C169.76 130.677 173.719 126.719 178.563 126.719C183.406 126.771 187.365 130.677 187.365 135.521Z" fill="#C4C4C4"/>
<path d="M187.365 117.969C187.365 122.813 183.406 126.771 178.563 126.771C173.719 126.771 169.76 122.813 169.76 117.969C169.76 113.125 173.719 109.167 178.563 109.167C183.406 109.167 187.365 113.125 187.365 117.969Z" fill="#B2B2B1"/>
<path d="M34.2395 100.365C34.2395 105.208 30.2812 109.167 25.4375 109.167C20.5937 109.167 16.6354 105.208 16.6354 100.365C16.6354 95.5208 20.5937 91.5625 25.4375 91.5625C27.7812 91.5625 30.0208 92.5 31.6354 94.1146C33.302 95.8333 34.2395 98.0729 34.2395 100.365Z" fill="#C4C4C4"/>
<path d="M187.365 100.365C187.365 105.208 183.406 109.167 178.563 109.167C173.719 109.167 169.76 105.208 169.76 100.365C169.76 95.5208 173.719 91.5625 178.563 91.5625C183.406 91.6146 187.365 95.5208 187.365 100.365Z" fill="#C4C4C4"/>
<path d="M113.719 62.2916C113.719 68.75 108.458 74.0104 102 74.0104C95.5417 74.0104 90.2812 68.75 90.2812 62.2916C90.2812 55.8333 95.5417 50.5729 102 50.5729C108.458 50.5729 113.719 55.8333 113.719 62.2916Z" fill="white"/>
<path d="M106.01 4.47913C103.771 2.39579 100.281 2.39579 97.9896 4.47913L4.91663 91.5104V107.552L102 16.8229L199.083 107.552V91.5104L106.01 4.47913Z" fill="#C4C4C4"/>
<path d="M102 47.6562C93.9271 47.6562 87.3646 54.2188 87.3646 62.2917C87.3646 70.3646 93.9271 76.9271 102 76.9271C110.073 76.9271 116.635 70.3646 116.635 62.2917C116.635 54.2188 110.073 47.6562 102 47.6562ZM102 71.0938C97.1563 71.0938 93.198 67.1354 93.198 62.2917C93.198 57.4479 97.1563 53.4896 102 53.4896C106.844 53.4896 110.802 57.4479 110.802 62.2917C110.802 67.1354 106.844 71.0938 102 71.0938Z" fill="#B2B2B1"/>
<path d="M201.062 89.375L107.99 2.34375C104.604 -0.78125 99.3438 -0.78125 96.0104 2.34375C51.1863 44.2112 41.7016 53.0852 2.9375 89.375C2.36458 89.9479 2 90.7292 2 91.5104V107.552C2 108.698 2.67708 109.792 3.77083 110.26C4.86458 110.729 6.0625 110.521 6.94792 109.687L14.0312 103.073C14.6042 105.469 15.9062 107.604 17.7292 109.219C15.2812 111.354 13.7708 114.531 13.7708 118.021C13.7708 121.51 15.3333 124.687 17.7292 126.823C15.2812 128.958 13.7708 132.135 13.7708 135.625C13.7708 139.115 15.3333 142.292 17.7292 144.427C15.2812 146.562 13.7708 149.74 13.7708 153.229C13.7708 156.719 15.3333 159.896 17.7292 162.031C15.2812 164.167 13.7708 167.344 13.7708 170.833C13.7708 174.323 15.3333 177.5 17.7292 179.635C15.2812 181.771 13.7708 184.948 13.7708 188.437C13.7708 194.896 19.0312 200.156 25.4896 200.156H178.615C185.073 200.156 190.333 194.896 190.333 188.437C190.333 184.948 188.771 181.771 186.375 179.635C188.823 177.5 190.333 174.323 190.333 170.833C190.333 167.344 188.771 164.167 186.375 162.031C188.823 159.896 190.333 156.719 190.333 153.229C190.333 149.74 188.771 146.562 186.375 144.427C188.823 142.292 190.333 139.115 190.333 135.625C190.333 132.135 188.771 128.958 186.375 126.823C188.823 124.687 190.333 121.51 190.333 118.021C190.333 114.531 188.771 111.354 186.375 109.219C188.198 107.656 189.5 105.521 190.073 103.073L197.156 109.687C197.99 110.469 199.24 110.677 200.333 110.26C201.427 109.792 202.104 108.75 202.104 107.552V91.5104C202 90.6771 201.688 89.8958 201.062 89.375ZM25.4375 194.115C22.2083 194.115 19.5521 191.51 19.5521 188.229C19.5521 184.948 22.1562 182.344 25.4375 182.344C28.6667 182.344 31.2708 184.948 31.2708 188.229C31.2708 191.51 28.6667 194.115 25.4375 194.115ZM25.4375 176.562C22.2083 176.562 19.5521 173.958 19.5521 170.677C19.5521 167.396 22.1562 164.792 25.4375 164.792C28.6667 164.792 31.2708 167.396 31.2708 170.677C31.2708 173.958 28.6667 176.562 25.4375 176.562ZM25.4375 158.958C22.2083 158.958 19.5521 156.354 19.5521 153.073C19.5521 149.792 22.1562 147.187 25.4375 147.187C28.6667 147.187 31.2708 149.792 31.2708 153.073C31.2708 156.354 28.6667 158.958 25.4375 158.958ZM25.4375 141.406C22.2083 141.406 19.5521 138.802 19.5521 135.521C19.5521 132.24 22.2083 129.687 25.4375 129.687C28.6667 129.687 31.2708 132.292 31.2708 135.573C31.2708 138.854 28.6667 141.406 25.4375 141.406ZM25.4375 123.802C22.2083 123.802 19.5521 121.198 19.5521 117.917C19.5521 114.635 22.1562 112.031 25.4375 112.031C28.6667 112.031 31.2708 114.635 31.2708 117.917C31.2708 121.198 28.6667 123.802 25.4375 123.802ZM25.4375 106.25C22.2083 106.25 19.5521 103.646 19.5521 100.365C19.5521 98.75 20.1771 97.2917 21.2188 96.25L21.4271 96.0417C22.4688 95.1042 23.875 94.4792 25.3854 94.4792C28.6146 94.4792 31.2187 97.0833 31.2187 100.365C31.2187 103.646 28.6667 106.25 25.4375 106.25ZM29.3958 88.6458L102 20.8333L174.604 88.6979H29.3958V88.6458ZM75.6458 194.115H35.5938C36.5833 192.396 37.1562 190.365 37.1562 188.229C37.1562 186.094 36.5833 184.115 35.5938 182.344H75.6458V194.115ZM75.6458 176.562H35.5938C36.5833 174.844 37.1562 172.812 37.1562 170.677C37.1562 168.542 36.5833 166.562 35.5938 164.792H75.6458V176.562ZM75.6458 158.958H35.5938C36.5833 157.24 37.1562 155.208 37.1562 153.073C37.1562 150.937 36.5833 148.958 35.5938 147.187H75.6458V158.958ZM75.6458 141.406H35.5938C36.5833 139.687 37.1562 137.656 37.1562 135.521C37.1562 133.385 36.5833 131.406 35.5938 129.635H75.6458V141.406ZM122.521 194.115H81.5312V129.687H122.521V194.115ZM168.406 194.115H128.354V182.396H168.406C167.417 184.115 166.844 186.146 166.844 188.281C166.844 190.417 167.417 192.396 168.406 194.115ZM168.406 176.562H128.354V164.844H168.406C167.417 166.562 166.844 168.594 166.844 170.729C166.844 172.812 167.417 174.844 168.406 176.562ZM168.406 158.958H128.354V147.24H168.406C167.417 148.958 166.844 150.99 166.844 153.125C166.844 155.26 167.417 157.24 168.406 158.958ZM168.406 141.406H128.354V129.687H168.406C167.417 131.406 166.844 133.437 166.844 135.573C166.844 137.656 167.417 139.687 168.406 141.406ZM168.406 123.802H35.5938C36.5833 122.083 37.1562 120.052 37.1562 117.917C37.1562 115.781 36.5833 113.802 35.5938 112.031H50.5417C52.1562 112.031 53.4583 110.729 53.4583 109.115C53.4583 107.5 52.1562 106.198 50.5417 106.198H35.5938C36.5833 104.479 37.1562 102.448 37.1562 100.312C37.1562 98.1771 36.5833 96.1979 35.5938 94.4271H99.0833V106.25H62.2604C60.6458 106.25 59.3438 107.552 59.3438 109.167C59.3438 110.781 60.6458 112.083 62.2604 112.083H168.406C167.417 113.802 166.844 115.833 166.844 117.969C166.844 120.104 167.417 122.083 168.406 123.802ZM168.406 106.25H104.917V94.5312H168.406C167.417 96.25 166.844 98.2812 166.844 100.417C166.844 102.5 167.417 104.531 168.406 106.25ZM178.562 194.115C175.333 194.115 172.677 191.51 172.677 188.229C172.677 184.948 175.281 182.344 178.562 182.344C181.792 182.344 184.448 184.948 184.448 188.229C184.448 191.51 181.792 194.115 178.562 194.115ZM178.562 176.562C175.333 176.562 172.677 173.958 172.677 170.677C172.677 167.396 175.281 164.792 178.562 164.792C181.792 164.792 184.448 167.396 184.448 170.677C184.448 173.958 181.792 176.562 178.562 176.562ZM178.562 158.958C175.333 158.958 172.677 156.354 172.677 153.073C172.677 149.792 175.281 147.187 178.562 147.187C181.792 147.187 184.448 149.792 184.448 153.073C184.448 156.354 181.792 158.958 178.562 158.958ZM178.562 141.406C175.333 141.406 172.677 138.802 172.677 135.521C172.677 132.24 175.281 129.635 178.562 129.635C181.792 129.635 184.448 132.24 184.448 135.521C184.448 138.802 181.792 141.406 178.562 141.406ZM178.562 123.802C175.333 123.802 172.677 121.198 172.677 117.917C172.677 114.635 175.281 112.031 178.562 112.031C181.792 112.031 184.448 114.635 184.448 117.917C184.448 121.198 181.792 123.802 178.562 123.802ZM184.448 100.365C184.448 103.594 181.844 106.25 178.562 106.25C175.333 106.25 172.677 103.646 172.677 100.365C172.677 97.0833 175.281 94.4792 178.562 94.4792C180.073 94.4792 181.479 95.0521 182.521 96.0417L182.729 96.25C183.771 97.3437 184.448 98.8021 184.448 100.365ZM196.167 100.781L103.979 14.6354C103.406 14.1146 102.677 13.8542 102 13.8542C101.271 13.8542 100.542 14.1146 100.021 14.6354L7.88542 100.781V92.7604L100.021 6.66667C101.167 5.625 102.885 5.625 104.031 6.66667L196.167 92.8125V100.781Z" fill="#B2B2B1"/>
<path d="M116.635 161.927C116.635 163.542 115.333 164.844 113.719 164.844C112.104 164.844 110.802 163.542 110.802 161.927C110.802 160.312 112.104 159.01 113.719 159.01C115.333 159.01 116.635 160.312 116.635 161.927Z" fill="#B2B2B1"/>
</g>
<defs>
<clipPath id="clip0">
<rect width="204" height="200" fill="white"/>
</clipPath>
</defs>
</svg>
