<svg width="428" height="302" viewBox="0 0 428 302" fill="none" xmlns="http://www.w3.org/2000/svg">
<g clip-path="url(#clip0)">
<g style="mix-blend-mode:luminosity">
<path d="M62.3391 244.256C62.5662 244.269 76.7503 247.327 84.7624 242.532C93.0016 237.749 94.2372 231.897 92.0154 226.765C91.3969 225.592 90.7784 224.42 89.9201 223.462C89.491 222.983 89.0493 222.731 88.3805 222.466C87.9388 222.214 87.2699 221.95 86.6011 221.685C85.2508 221.383 83.888 221.308 82.2603 221.901C80.6451 222.268 78.7777 223.076 76.658 224.325C68.6585 228.893 62.3391 244.256 62.3391 244.256Z" fill="#B2B2B1"/>
</g>
<g style="mix-blend-mode:luminosity">
<path d="M355.259 101.691C354.805 101.666 340.785 99.7553 332.962 105.244C325.14 110.733 324.358 116.61 327.047 121.54C327.665 122.713 328.511 123.898 329.382 124.629C329.811 125.108 330.48 125.372 330.922 125.625C331.59 125.889 332.032 126.141 332.714 126.179C334.064 126.481 335.439 126.329 337.067 125.735C338.695 125.142 340.335 124.322 342.455 123.072C350.063 117.344 355.259 101.691 355.259 101.691Z" fill="#B2B2B1"/>
</g>
<g style="mix-blend-mode:luminosity">
<path d="M37.6486 122.445C37.8631 122.685 46.8118 133.88 56.0868 135.074C65.5763 136.507 70.1184 132.659 71.556 127.274C71.8587 125.924 72.1613 124.575 71.997 123.427C72.0348 122.746 71.8328 122.28 71.6434 121.586C71.4414 121.12 71.0249 120.413 70.8229 119.947C69.9646 118.989 68.8793 118.018 67.327 117.25C65.7748 116.481 63.9828 115.927 61.4969 115.562C51.9821 114.583 37.6486 122.445 37.6486 122.445Z" fill="#B2B2B1"/>
</g>
<g style="mix-blend-mode:luminosity">
<path d="M147.173 300.389C147.64 300.187 169.746 287.743 174.412 273.428C179.079 259.113 173.361 251.284 164.187 248.274C161.953 247.467 159.467 247.103 157.41 247.217C156.274 247.155 155.126 247.319 154.192 247.723C153.044 247.887 152.11 248.291 150.937 248.91C148.83 249.932 147.139 251.661 145.423 253.843C143.708 256.025 142.181 258.901 141.071 262.483C136.178 276.786 147.173 300.389 147.173 300.389Z" fill="#B2B2B1"/>
</g>
<g style="mix-blend-mode:luminosity">
<path d="M299.29 1.60979C298.824 1.81176 274.799 11.8728 268.568 25.6466C262.097 39.6348 267.095 48.1072 275.98 52.2399C278.201 53.273 280.447 53.8521 282.706 54.2043C283.842 54.2669 284.977 54.3294 286.125 54.165C287.274 54.0006 288.422 53.8362 289.368 53.2052C291.463 52.4098 293.595 50.9335 295.538 48.7636C297.481 46.5937 299.222 43.9572 301.013 40.4128C307.472 26.6516 299.29 1.60979 299.29 1.60979Z" fill="#B2B2B1"/>
</g>
<path d="M328.094 237.011L330.066 234.319L330.562 233.54L333.516 229.714L334.992 227.801L338.442 223.195L333.505 220.153L330.055 224.758L328.821 226.493L325.868 230.319L325.62 230.709L323.648 233.401L322.176 235.102L319.222 238.929C320.861 240.225 322.267 241.276 323.911 242.361L326.865 238.535L328.094 237.011Z" fill="#C4C4C4"/>
<path d="M325.249 233.856C310.527 223.275 296.505 212.792 282.707 202.746C282.717 202.342 282.965 201.768 282.975 201.364L282.98 201.161C282.98 201.161 282.98 201.162 282.985 200.959C291.036 206.752 299.087 212.545 307.142 218.135C313.585 222.689 320.256 227.477 326.932 232.063L328.868 229.494L329.107 229.324L332.006 225.673L333.212 224.219L336.37 219.589L294.626 194.069C294.864 193.899 295.103 193.73 295.341 193.56C300.101 190.372 301.884 184.536 298.599 175.354C297.944 173.436 297.051 171.688 295.691 169.875C293.661 166.751 290.926 163.731 288.181 161.115C292.897 159.747 296.506 155.789 297.162 148.172C298.394 136.174 283.857 118.113 283.857 118.113C283.857 118.113 283.147 118.419 282.189 119.299C281.474 119.808 280.754 120.519 279.801 121.197C279.32 121.738 278.843 122.077 278.128 122.585C277.965 119.722 277.106 116.559 275.096 112.626C271.741 106.274 264.162 100.344 257.248 95.928C250.333 91.5115 244.084 88.6082 243.856 88.3734C243.856 88.3734 243.608 88.9472 243.349 89.9253C243.171 87.6689 242.298 85.1124 240.729 82.2557C234.923 70.8943 213.4 60.7815 213.4 60.7815C213.4 60.7815 212.144 64.2571 211.086 69.1805C210.818 70.563 210.545 72.1476 210.272 73.7322C209.994 75.519 209.944 77.5406 209.894 79.5622C208.047 78.4922 206.201 77.4224 204.35 76.5546C204.176 74.0961 203.079 71.1025 200.821 67.7436C197.436 62.604 190.755 58.2202 184.749 54.9452C178.743 51.6702 173.407 49.7061 173.174 49.6735C173.174 49.6735 172.385 53.2144 172.037 57.8314C171.724 61.0333 171.634 64.6721 172.244 68.409C172.016 68.1742 171.782 68.1415 171.321 67.874C165.776 64.8665 159.502 62.9739 154.151 61.6163C148.8 60.2587 144.601 59.6709 144.601 59.6709C144.601 59.6709 144.735 63.7467 145.777 68.964C146.203 70.6466 146.625 72.5313 147.047 74.4161C143.101 73.0523 138.44 72.197 134.235 71.8113C133.535 71.7133 132.602 71.5827 131.897 71.6869L131.431 71.6215C130.264 71.4583 129.093 71.4971 127.921 71.536C123.712 71.3525 120.897 71.5671 120.659 71.7366C120.659 71.7366 122.411 76.6475 125.548 82.3609C120.638 82.0794 115.709 82.6065 112.18 83.3296C110.532 83.7075 109.122 83.9159 107.945 84.1569C106.536 84.3653 105.826 84.6716 105.826 84.6716C105.826 84.6716 111.439 94.3831 119.237 100.952C120.155 101.689 120.84 102.393 121.763 102.928C111.711 102.333 101.58 104.971 101.58 104.971C101.58 104.971 108.756 117.742 118.192 124.337C119.572 125.342 121.19 126.177 122.58 126.777C124.203 127.41 125.593 128.01 126.987 128.408C122.982 129.47 119.204 130.767 116.603 131.823C114.945 132.605 113.525 133.218 112.815 133.524C112.344 133.661 112.105 133.831 112.105 133.831C112.105 133.831 112.105 133.831 112.334 134.065C112.334 134.065 112.334 134.065 112.562 134.3C112.79 134.535 113.247 135.005 113.703 135.474C114.84 136.851 116.9 138.762 119.188 140.908C120.335 141.88 121.481 142.852 122.856 144.058C124.231 145.265 125.839 146.505 127.452 147.542C128.37 148.279 129.527 148.846 130.679 149.616C127.348 151.787 124.473 154.428 122.314 156.56C120.388 158.724 118.938 160.55 118.938 160.55C118.938 160.55 128.408 165.73 137.72 167.845C140.014 169.789 145.99 174.277 152.919 178.087C154.994 179.391 157.078 180.292 159.391 181.427C157.485 182.783 156.055 183.8 155.102 184.478C154.387 184.987 154.144 185.358 154.144 185.358C154.144 185.358 154.834 185.86 155.752 186.598C157.132 187.602 159.664 189.377 162.895 191.249C168.663 194.693 176.53 198.432 183.072 198.942C181.076 203.937 179.815 207.615 179.815 207.615C179.815 207.615 190.284 210.297 200.112 210.456C204.56 210.47 209.256 209.91 212.572 208.346C213.287 207.837 214.23 207.563 214.945 207.055C211.956 214.345 211.076 221.525 211.076 221.525C211.076 221.525 234.868 225.058 245.332 218.409C250.326 215.253 252.749 211.941 253.3 208.57C256.303 210.207 259.55 211.473 262.811 212.132C263.744 212.263 264.444 212.361 265.377 212.492C272.614 213.302 277.33 211.933 279.971 209.26C280.453 208.719 280.706 207.943 281.187 207.402C294.524 217.18 308.323 227.226 322.35 237.507L325.249 233.856ZM152.337 135.202C143.685 134.803 132.205 125.69 131.976 125.455C131.976 125.455 142.014 117.123 150.666 117.523C152.771 117.615 154.637 117.876 156.26 118.509C157.889 118.939 159.04 119.709 160.187 120.681C160.643 121.151 161.1 121.62 161.557 122.09C162.013 122.56 162.237 122.997 162.455 123.636C162.897 124.712 163.333 125.99 163.537 127.236C163.894 131.749 160.989 135.602 152.337 135.202ZM197.461 166.065C198.26 171.654 195.102 176.283 185.274 176.124C175.445 175.966 161.652 165.718 161.423 165.483C161.423 165.483 172.444 155.26 182.506 155.451C185.082 155.406 187.177 155.902 189.038 156.366C190.9 156.829 192.284 157.631 193.664 158.636C194.354 159.138 194.811 159.608 195.267 160.078C195.724 160.547 196.176 161.219 196.394 161.858C196.831 163.136 197.262 164.617 197.461 166.065ZM197.958 107.914C197.705 108.69 197.457 109.264 197.208 109.838C196.727 110.379 196.478 110.953 195.764 111.461C194.801 112.544 193.381 113.156 191.961 113.769C185.816 116.154 178.827 114.77 172.96 105.835C167.327 96.9321 170.987 81.4187 171.23 81.0471C171.23 81.0471 189.556 87.8724 195.184 96.9774C196.534 99.1949 197.423 101.145 197.844 103.03C198.266 104.914 198.226 106.532 197.958 107.914ZM257.542 178.938C257.279 180.118 256.549 181.233 255.591 182.113C251.982 186.071 246.1 187.276 238.282 181.516C230.465 175.756 226.833 161.656 226.609 161.219C226.609 161.219 243 161.079 251.051 166.872C253.121 168.379 254.49 169.788 255.627 171.164C256.764 172.54 257.434 173.851 257.637 175.097C257.85 175.938 257.835 176.545 257.82 177.151C257.806 177.758 257.557 178.331 257.542 178.938ZM254.236 132.629C253.749 133.373 253.501 133.946 252.781 134.657C251.58 135.909 250.15 136.926 248.492 137.708C241.622 141.006 233.223 139.831 225.749 129.656C218.507 119.514 221.537 101.072 221.547 100.668C221.547 100.668 243.382 107.579 250.857 117.753C252.669 120.238 254.014 122.658 254.664 124.778C255.314 126.897 255.502 128.749 255.229 130.334C254.737 131.279 254.484 132.055 254.236 132.629Z" fill="#C4C4C4"/>
<path d="M325.313 245.498C336.554 253.691 348.028 261.916 359.73 270.374L362.622 266.76C350.921 258.302 339.219 249.844 327.974 241.852L325.313 245.498Z" fill="#C4C4C4"/>
<path d="M379.069 258.415C364.175 249.28 349.513 240.177 335.083 231.105L332.2 234.646C345.027 242.709 358.08 251.001 371.371 259.128C373.433 260.396 375.495 261.664 377.558 262.932L380.445 259.195C379.982 259.131 379.523 258.871 379.069 258.415Z" fill="#C4C4C4"/>
<path d="M375.148 249.832L378.035 246.108L340.462 223.688L337.097 227.935L375.148 249.832Z" fill="#C4C4C4"/>
<path d="M370.146 263.472C357.981 255.385 344.911 246.174 331.617 236.531L329.687 239.062C341.377 247.482 352.84 255.671 363.6 263.962C364.743 264.921 366.118 265.911 367.266 266.67L370.389 263.105C370.389 263.105 370.389 263.105 370.156 263.073L370.146 263.472Z" fill="#C4C4C4"/>
</g>
<defs>
<clipPath id="clip0">
<rect width="428" height="302" fill="white"/>
</clipPath>
</defs>
</svg>
