<svg width="59" height="43" viewBox="0 0 59 43" fill="none" xmlns="http://www.w3.org/2000/svg">
<path fill-rule="evenodd" clip-rule="evenodd" d="M12.9452 1.03591L6.76767 5.85037L17.3779 5.86757L23.7444 0L12.9452 1.03591ZM29.0695 21.3742C28.0967 21.4888 27.1214 21.6135 26.155 21.6056L25.7553 16.6751C25.5969 14.7178 25.376 14.3398 23.586 14.3253L23.1414 14.174C23.1414 14.174 24.7997 12.0037 23.1108 9.4835C22.3157 8.29748 19.9336 8.14658 19.3741 10.2196L17.6164 10.4111C17.6164 10.4111 16.8129 12.0694 18.8719 12.3246C18.8719 12.3246 18.219 13.3449 18.8719 14.2378L18.3328 14.3574C18.3328 14.3574 18.1569 12.7582 16.121 12.6299L15.5682 12.2781L0.713793 11.4463L0.83952 12.406L7.09779 12.662V13.4618L8.90749 13.7178L10.2649 13.8777C10.2649 13.8777 10.3906 15.0294 10.9184 15.4769C10.9184 15.4769 10.7674 19.4122 13.5324 20.18L17.7298 20.8195L18.1421 24.4315C17.6431 24.4421 16.9758 26.322 16.9758 26.322C17.9058 22.8671 16.3725 22.0032 16.3725 22.0032C16.875 22.8671 16.9003 23.5708 16.9003 23.5708C17.0763 25.2982 15.8699 26.6738 15.8699 26.6738C16.8501 23.3468 15.4927 22.579 15.4927 22.579C16.4982 24.3065 14.6383 26.9619 14.6383 26.9619C15.0657 22.0032 13.0295 22.0673 13.0295 22.0673C14.9147 23.251 13.9345 27.3137 13.9345 27.3137C14.1104 22.579 11.421 22.8351 11.421 22.8351C14.8644 24.2427 13.1302 27.3458 13.1302 27.3458C13.6075 24.7544 11.3961 24.1466 11.3961 24.1466C13.4066 25.6825 12.6526 27.4736 12.6526 27.4736C12.6435 26.4205 12.3453 25.3678 11.6703 25.2106C12.2365 26.0132 12.3 27.0073 11.7982 27.3458C11.1446 25.0105 9.78723 24.9464 9.78723 24.9464C11.3205 25.7145 10.9686 27.9537 10.9686 27.9537C10.0134 26.8657 9.48591 27.2817 9.48591 27.2817C10.8808 27.6179 10.667 28.8492 10.667 28.8492C6.29391 25.842 5.1599 27.3755 5.1599 27.3755C8.07376 26.3533 10.5342 29.5439 10.5342 29.5439L12.7654 29.5181C12.8317 28.9771 12.9143 28.1171 12.8033 27.8903C12.6382 27.5522 13.0196 28.266 13.1085 29.0173C13.1973 29.7687 13.1468 29.205 13.1468 29.205L13.388 28.6792C13.388 28.6792 13.6296 28.266 13.3245 27.4396C13.3245 27.4396 13.833 27.6648 13.833 29.1674C13.833 29.1674 14.3036 28.4161 14.1255 27.4767C14.1255 27.4767 14.3759 27.8856 14.3475 29.4997L14.6337 29.4966C14.914 28.9325 15.0653 28.6229 14.5118 26.9772C14.5118 26.9772 14.8599 27.5846 15.0839 28.6444C15.0755 28.2734 15.3884 27.9028 15.0674 27.1398C15.0674 27.1398 15.4295 27.0772 15.3522 28.6424C15.4035 28.4407 15.7951 28.7957 15.8007 27.7457C15.8938 27.9814 15.9872 28.3688 15.7863 28.7433C15.7863 28.7433 16.8245 28.6291 16.2204 26.6742C16.2204 26.6742 16.6127 26.7751 16.7388 28.6929C16.7388 28.6929 17.2712 28.3399 17.1451 27.3806C17.1451 27.3806 17.5374 27.9361 17.5374 29.1475C17.5374 29.1475 18.1674 27.4818 18.5035 27.8856C18.5035 27.8856 17.8447 28.173 18.3904 29.4528L18.6243 29.4501C18.9962 26.3415 19.5803 25.7814 19.5803 25.7814C19.0148 27.3223 19.66 29.0396 19.66 29.0396C20.0547 26.3486 21.0244 26.3474 21.0244 26.3474C20.2609 27.5858 20.5847 28.517 20.5847 28.517L20.8207 29.4247L20.9745 29.4227L20.997 29.3437C21.3534 28.0686 22.2241 27.0921 21.8391 27.5667C21.6632 27.784 21.5712 28.5971 21.5227 29.4164L22.216 29.4082C22.4667 28.8958 22.5742 28.5353 22.0502 26.9772C22.0502 26.9772 22.3982 27.5846 22.6227 28.6444C22.6139 28.2734 22.9271 27.9028 22.6058 27.1398C22.6058 27.1398 22.9679 27.0772 22.8906 28.6424C22.9419 28.4407 23.3338 28.7957 23.3391 27.7457C23.4325 27.9814 23.5259 28.3688 23.325 28.7433C23.325 28.7433 24.3628 28.6291 23.7591 26.6742C23.7591 26.6742 24.1514 26.7751 24.2775 28.6929C24.2775 28.6929 24.8095 28.3399 24.6835 27.3806C24.6835 27.3806 25.0757 27.9361 25.0757 29.1475C25.0757 29.1475 25.7061 27.4818 26.0422 27.8856C26.0422 27.8856 25.3978 28.1667 25.9116 29.4114L26.2052 29.4164L26.2083 29.3621L26.2754 29.3609C26.7007 27.5565 27.2286 25.8138 28.7152 24.652C27.4997 25.3584 27.1429 26.1046 26.47 27.8024C26.4004 27.483 26.3622 27.1765 26.3509 26.8802L26.405 25.9377C26.5371 25.0765 26.8823 24.2885 27.3069 23.4984C26.9666 23.9625 26.6723 24.4761 26.4338 25.0484L26.2638 22.948C27.0034 22.9469 27.9861 22.8249 29.1331 22.3906L29.1696 22.3703C29.5408 24.9831 30.6692 27.1894 30.9245 27.6632C29.3357 27.7817 27.8674 28.1104 27.1741 28.8516C28.0939 28.3625 29.0639 28.0956 30.0504 27.974C26.943 28.7808 28.5104 29.4075 30.9874 29.2269H36.1102L36.1208 29.2171C38.4826 29.298 41.4189 29.1393 42.4935 27.9908C41.2784 28.637 39.9762 28.895 38.6631 28.9427C38.7217 28.9337 38.7797 28.9243 38.8366 28.9137C39.2173 28.8434 39.6085 26.3408 40.0482 26.2759C41.7069 26.03 43.702 25.865 45.392 26.1C45.392 26.1 53.1772 27.1843 55.0856 25.1434L54.3825 25.3345C54.3825 25.3345 49.8128 26.3564 45.1152 25.6864C42.6189 25.3302 41.0874 25.2986 39.914 25.4049C40.1005 25.3248 40.2248 25.2665 40.2248 25.2665C40.7407 23.862 40.307 23.335 39.8389 23.1415L40.0015 21.2538C40.1107 21.1573 40.1493 21.0756 40.1493 21.0756C40.602 20.8195 41.7079 16.0848 41.7079 16.0848C43.0397 14.5814 42.5122 12.7898 42.5122 12.7898C43.2915 7.86317 46.8354 3.67261 46.8354 3.67261C50.4154 -0.0363545 53.2271 1.65785 53.9783 2.93848C54.0141 2.97288 54.0366 2.98969 54.0499 2.99516C54.2828 3.59755 56.4626 10.1082 50.4576 15.5489C50.4305 15.5024 50.3908 15.4625 50.3406 15.4277C50.2862 15.4191 50.2318 15.4109 50.1773 15.4023C50.1436 15.4109 50.1095 15.4199 50.0755 15.4285C50.0281 15.4633 49.9806 15.4977 49.9329 15.5325C48.5847 16.8702 46.8926 17.7798 47.963 20.1464C47.9961 20.5334 48.1365 20.6514 48.3511 20.5854C48.6753 20.8582 49.8574 22.4817 49.9835 21.1764L49.9627 21.047L49.8869 20.8567C50.1278 21.2276 50.303 21.5576 50.6167 21.8218C51.2246 22.0306 50.8699 20.2941 50.9801 19.7758C50.8456 18.931 50.1587 19.9032 50.0224 20.0889L49.8591 20.0635C50.0614 19.6769 49.9508 19.6925 49.6544 19.4427C48.8256 19.3133 48.6001 19.5631 49.2312 18.062C49.529 18.5933 49.6038 18.2532 49.6516 17.7599L49.6716 17.5527L49.7935 17.3193L50.2405 16.4636C50.315 16.265 50.3894 16.0664 50.4639 15.8675C50.5043 15.7592 50.5067 15.6701 50.4797 15.5954C51.062 15.1079 56.5346 10.2794 54.0584 2.94473H54.0577C54.0468 2.91581 54.031 2.88531 54.031 2.88531C52.8829 0.891277 50.7494 1.12661 49.5283 1.46826C48.9731 1.62384 48.6064 1.80132 48.6064 1.80132C43.7845 4.79882 41.9843 12.2461 41.9843 12.2461L41.6826 12.3743C40.2751 12.7582 40.9216 16.1509 40.9216 16.1509C39.8167 17.1715 38.9128 18.8298 38.9128 18.8298C37.9582 17.4901 34.1913 15.4496 34.1913 15.4496C34.3768 14.7643 34.3286 14.1385 34.3483 13.685C34.3515 13.6111 34.5432 13.6451 34.5397 13.574C34.4976 12.7844 34.1674 12.2781 34.1674 12.2781C35.4746 12.182 36.0274 11.0624 36.0274 11.0624C36.3038 10.3584 34.5446 10.9025 34.5446 10.9025C33.2375 7.89523 30.8497 9.20713 30.8497 9.20713C29.2114 10.4635 29.702 13.5799 30.966 15.2502L30.2738 16.4061C29.2444 17.9448 28.9726 19.7058 29.0695 21.3742ZM26.1567 21.6283C26.4847 21.7268 27.8375 22.0896 29.1018 21.798L29.1029 21.8078C28.9354 21.8984 28.0605 22.3347 26.2357 22.6025L26.1567 21.6283ZM41.0017 7.83151H41.604V11.8141H41.0017V7.83151ZM42.0876 7.83151C42.3116 7.83151 42.8075 7.83151 43.0319 7.83151C43.0049 7.86943 42.9575 8.36119 42.935 8.40107C42.4953 9.17663 42.0725 11.3384 41.92 11.7703C41.9618 11.397 42.0461 8.20444 42.0876 7.83151ZM56.7573 35.3516C57.1201 35.4654 57.3986 35.6601 57.5959 35.9275C57.7954 36.1972 57.9078 36.5287 57.9078 36.9395C57.9078 37.5501 57.6669 38.0681 57.2275 38.5059C56.7882 38.9441 56.1451 39.274 55.3061 39.4652C54.1556 39.7275 53.0104 39.9812 51.8655 40.2286C51.8655 39.5379 51.8655 38.8456 51.8655 38.1537C51.8655 37.4614 51.8655 36.7691 51.8655 36.0783C51.8655 35.3872 51.8599 34.6961 51.8599 34.0042C51.8599 33.313 51.8599 32.62 51.8599 31.9265C52.9482 31.9218 54.0422 31.9155 55.1306 31.9105C55.9411 31.9065 56.5613 32.0782 56.9838 32.4136C57.4 32.7439 57.6075 33.1821 57.6075 33.7368C57.6075 34.0652 57.5313 34.3642 57.3922 34.641C57.2535 34.917 57.0407 35.1546 56.7573 35.3516ZM53.8891 33.7728C53.8891 34.1617 53.8891 34.5522 53.8891 34.9416C54.2066 34.9138 54.524 34.8845 54.8471 34.8552C55.2949 34.8145 55.5214 34.6089 55.5214 34.2368C55.5214 33.865 55.2949 33.6918 54.8471 33.7172C54.524 33.7356 54.2066 33.7544 53.8891 33.7728ZM55.1362 37.7135C55.5896 37.6342 55.8164 37.3992 55.8164 37.0087C55.8164 36.6194 55.5892 36.4564 55.1362 36.5193C54.7221 36.5768 54.3088 36.6366 53.8951 36.6921C53.8951 37.1045 53.8951 37.5165 53.8951 37.9289C54.3088 37.8586 54.7225 37.7862 55.1362 37.7135ZM47.949 41.2294C47.0081 41.4131 46.2805 41.1637 45.7554 40.4683C45.4927 40.1204 45.2961 39.6704 45.1658 39.1314C45.0355 38.5911 44.9674 37.9614 44.9674 37.2413C44.9674 36.8027 44.9617 36.3629 44.9617 35.9228C44.9617 35.4818 44.9617 35.0417 44.9617 34.6019C44.9617 34.1617 44.9617 33.7208 44.9617 33.281C44.9617 32.84 44.9617 32.3975 44.9617 31.9566C45.6476 31.9542 46.3335 31.9519 47.025 31.9484C47.025 32.3655 47.025 32.7834 47.025 33.2001C47.025 33.616 47.025 34.0331 47.025 34.4486C47.025 34.8657 47.025 35.2813 47.025 35.6968C47.025 36.1127 47.0285 36.5287 47.0306 36.9442C47.0341 37.6217 47.1079 38.1091 47.2687 38.3929C47.431 38.6791 47.66 38.796 47.9659 38.7526C48.2665 38.7096 48.4976 38.5212 48.6573 38.2041C48.8203 37.8808 48.9046 37.3981 48.9011 36.7472C48.899 36.3477 48.8955 35.9482 48.8955 35.5471C48.8955 35.1464 48.8955 34.7469 48.8955 34.3462C48.8955 33.9451 48.8955 33.5445 48.8955 33.1438C48.8955 32.7443 48.8955 32.342 48.8955 31.9402C49.5701 31.937 50.2444 31.9347 50.919 31.9312C50.919 32.3213 50.919 32.7134 50.919 33.1023C50.919 33.4917 50.919 33.8818 50.919 34.2712C50.919 34.6605 50.919 35.0499 50.919 35.4392C50.919 35.8286 50.9226 36.2175 50.9247 36.6057C50.9282 37.2401 50.8562 37.8171 50.7262 38.3308C50.5956 38.8479 50.3958 39.3081 50.1369 39.7126C49.6133 40.5312 48.8842 41.0472 47.949 41.2294ZM39.6282 31.975C40.3137 31.9726 40.9996 31.9703 41.6914 31.9679C41.6914 32.591 41.6914 33.2153 41.6914 33.8361C41.6914 34.4576 41.6914 35.0811 41.6914 35.7027C41.6914 36.3246 41.6914 36.9477 41.6914 37.5697C41.6914 38.1916 41.697 38.8135 41.697 39.4355C42.6151 39.3327 43.5334 39.2291 44.4574 39.1165C44.4574 39.9617 44.4574 40.806 44.4574 41.6512C42.8475 41.9068 41.2377 42.1406 39.6338 42.3501C39.6338 41.4862 39.6338 40.6215 39.6338 39.7564C39.6338 38.8929 39.6338 38.0266 39.6338 37.1631C39.6338 36.2996 39.6282 35.4345 39.6282 34.5694C39.6282 33.7047 39.6282 32.84 39.6282 31.975ZM36.295 42.9396C35.6491 42.9959 35.0633 42.8087 34.5436 42.3595C34.0263 41.9119 33.6263 41.2509 33.3365 40.4003C33.1901 39.9706 33.0812 39.5125 33.0078 39.0231C32.9341 38.5313 32.9 38.0075 32.9 37.452C32.9 36.9039 32.9341 36.3813 33.0078 35.8872C33.0812 35.3919 33.1901 34.9283 33.3365 34.4901C33.6266 33.6199 34.0277 32.9382 34.5436 32.4585C35.0647 31.9746 35.6491 31.7342 36.295 31.7342C36.8846 31.7342 37.4216 31.921 37.8824 32.2803C38.3452 32.6411 38.7326 33.1555 39.0329 33.8279C38.5963 34.5006 38.1654 35.1812 37.7349 35.8641C37.3552 35.0499 36.9075 34.648 36.3972 34.6593C35.9666 34.6687 35.6217 34.9166 35.3601 35.4138C35.1006 35.906 34.9633 36.5713 34.9633 37.3922C34.9633 38.2194 35.0999 38.8722 35.3601 39.3444C35.6214 39.819 35.9666 40.0418 36.3972 40.0133C36.9131 39.9796 37.3609 39.5297 37.7405 38.6763C38.1714 39.3167 38.602 39.9488 39.0385 40.5695C38.7382 41.2779 38.3519 41.8376 37.888 42.2442C37.4223 42.6527 36.8903 42.888 36.295 42.9396ZM26.6364 40.2103C26.4496 40.2079 26.2624 40.2044 26.0812 40.2021C26.0812 41.1227 26.0812 42.0429 26.0812 42.9615C25.3841 42.942 24.6982 42.9212 24.0123 42.8962C24.0123 41.9874 24.0123 41.0785 24.0123 40.1688C24.0123 39.2604 24.0123 38.3503 24.0123 37.4418C24.0123 36.5341 24.0123 35.6245 24.0123 34.716C24.0123 33.806 24.0123 32.8963 24.0123 31.9867C24.9929 31.9875 25.9734 31.9886 26.9595 31.9886C27.5264 31.9886 28.0198 32.1548 28.4391 32.4921C28.8528 32.8248 29.1773 33.3068 29.4084 33.9397C29.6367 34.5655 29.7484 35.3032 29.7484 36.1428C29.7484 36.9294 29.6434 37.617 29.4481 38.2029C29.2525 38.7893 28.9663 39.2557 28.5922 39.5989C28.8019 40.1677 29.0228 40.7357 29.2325 41.3021C29.4421 41.8677 29.6634 42.4365 29.879 42.9998C29.1419 43.001 28.4051 42.9963 27.6739 42.9916C27.3283 42.0636 26.9824 41.1363 26.6364 40.2103ZM27.6683 36.1382C27.6683 35.7293 27.6005 35.4111 27.4586 35.1847C27.3174 34.9596 27.107 34.8458 26.8293 34.8446C26.5799 34.8438 26.3306 34.8427 26.0812 34.8415C26.0812 35.698 26.0812 36.5537 26.0812 37.4129C26.3306 37.4153 26.5799 37.4176 26.8293 37.42C27.107 37.4223 27.3192 37.3121 27.4586 37.0869C27.5966 36.8641 27.6683 36.5471 27.6683 36.1382ZM23.2186 40.0926C23.2186 41.0156 23.2186 41.9377 23.2186 42.8579C21.5241 42.7625 19.8293 42.6371 18.1344 42.4826C18.1344 41.6086 18.1288 40.7333 18.1288 39.8581C18.1288 38.9816 18.1316 38.1052 18.1344 37.2311C18.1372 36.3571 18.1344 35.4795 18.1344 34.6042C18.1344 33.729 18.14 32.8537 18.14 31.9773C19.7896 31.9808 21.4448 31.9839 23.1052 31.9867C23.1052 32.9077 23.1052 33.829 23.1052 34.7492C22.1247 34.7356 21.1441 34.718 20.1636 34.6984C20.1636 35.1167 20.1636 35.5334 20.1636 35.9505C21.0251 35.9759 21.8866 35.9966 22.7484 36.0162C22.7484 36.8934 22.7484 37.7714 22.7484 38.6498C21.8866 38.6189 21.0251 38.5853 20.1636 38.5438C20.1636 39.0125 20.1636 39.4801 20.1636 39.9488C21.1782 40.0054 22.1984 40.0539 23.2186 40.0926ZM17.8113 31.9773C17.596 32.8479 17.3811 33.7153 17.1651 34.5776C16.9502 35.4357 16.7345 36.2902 16.5189 37.1389C16.3036 37.9852 16.0831 38.8253 15.8671 39.6622C15.6522 40.4949 15.4362 41.3205 15.2209 42.1382C14.5406 42.0413 13.8663 41.9447 13.1917 41.8329C12.9764 40.9784 12.7562 40.1282 12.5399 39.2858C12.3253 38.4481 12.1125 37.6142 11.8993 36.7867C11.6875 35.9642 11.4638 35.1476 11.2531 34.3392C11.0445 33.5374 10.8282 32.7407 10.6129 31.9519C11.3497 31.9542 12.0865 31.9578 12.8289 31.9601C12.948 32.4401 13.073 32.9229 13.1917 33.4053C13.3108 33.8889 13.4382 34.3751 13.5601 34.8642C13.682 35.354 13.8042 35.8477 13.9229 36.341C14.0419 36.8348 14.1666 37.3336 14.2913 37.8312C14.4103 37.3531 14.5354 36.8707 14.6597 36.3891C14.7847 35.9056 14.9118 35.4204 15.0341 34.931C15.1556 34.444 15.2778 33.951 15.4021 33.4592C15.5271 32.9667 15.6574 32.4702 15.7821 31.9714C16.4564 31.9738 17.131 31.975 17.8113 31.9773ZM8.22091 31.9402C8.90644 31.9437 9.59232 31.946 10.2842 31.9495C10.2842 32.729 10.2782 33.5101 10.2782 34.2895C10.2782 35.0694 10.281 35.8493 10.2782 36.6287C10.2754 37.4071 10.2726 38.1869 10.2726 38.9652C10.2726 39.7451 10.2782 40.5257 10.2782 41.3044C9.5867 41.1547 8.90082 41.0062 8.21494 40.8506C8.21494 40.109 8.20932 39.3651 8.20932 38.6236C8.20932 37.8804 8.21213 37.1377 8.21494 36.3962C8.2181 35.6534 8.21494 34.9103 8.21494 34.1687C8.21494 33.426 8.22091 32.6821 8.22091 31.9402ZM4.32687 37.8402C4.13969 37.7987 3.9525 37.7561 3.77129 37.717C3.77129 38.3667 3.77129 39.016 3.77129 39.6646C3.07978 39.4605 2.39952 39.2396 1.71364 39.0184C1.71364 38.4254 1.71364 37.832 1.71364 37.239C1.71364 36.646 1.71364 36.0518 1.71364 35.4588C1.71364 34.8657 1.71364 34.2723 1.71364 33.6793C1.71364 33.0863 1.71364 32.4921 1.71364 31.8987C2.69453 31.9058 3.67506 31.912 4.65559 31.9183C5.22242 31.9222 5.7162 32.0492 6.13482 32.3123C6.5552 32.5766 6.87865 32.9624 7.10411 33.4651C7.33169 33.9725 7.44442 34.5616 7.44442 35.2285C7.44442 35.8512 7.33906 36.384 7.1438 36.8187C6.94818 37.2542 6.65634 37.5685 6.28794 37.7679C6.4976 38.2444 6.71429 38.7287 6.92255 39.2107C7.13361 39.6974 7.35346 40.1954 7.56874 40.6942C6.83194 40.5156 6.10075 40.3221 5.36957 40.1262C5.01837 39.3522 4.67245 38.59 4.32687 37.8402ZM5.36395 35.0162C5.36395 34.7113 5.29301 34.4678 5.15429 34.2895C5.01521 34.1109 4.80836 34.0136 4.52495 33.9905C4.2756 33.9698 4.02625 33.9487 3.7769 33.9279C3.7769 34.5339 3.7769 35.1398 3.7769 35.7453C4.02625 35.7836 4.2756 35.8203 4.52495 35.8583C4.80836 35.9013 5.01556 35.8481 5.15429 35.6996C5.29336 35.5498 5.36395 35.3204 5.36395 35.0162ZM31.5851 7.83151H32.3957V8.36901H31.5851V7.83151ZM34.1804 7.83151C33.7783 7.83151 33.3762 7.83151 32.9741 7.83151C33.0148 7.86943 32.952 8.38739 33.0338 8.40107C33.7794 8.52577 33.9936 8.91902 34.1804 9.35098C34.1804 8.97766 34.1804 8.20483 34.1804 7.83151ZM29.845 7.83151C30.2471 7.83151 30.6492 7.83151 31.051 7.83151C31.0102 7.86943 31.0734 8.38699 30.9913 8.40107C30.2457 8.52577 30.0318 9.35059 29.845 9.78294C29.845 9.40962 29.845 8.20483 29.845 7.83151ZM19.0875 7.83151C19.4897 7.83151 19.8918 7.83151 20.2939 7.83151C20.2528 7.86943 20.316 8.38699 20.2338 8.40107C19.4879 8.52577 19.274 9.35059 19.0875 9.78294C19.0875 9.40962 19.0875 8.20483 19.0875 7.83151ZM21.6386 7.83151H22.2918V8.36901H21.6386V7.83151ZM20.6328 7.83151H21.2741V8.37527H20.6328V7.83151ZM8.66903 7.83151H10.7551V10.9987H8.66903V7.83151ZM12.5522 7.83151H13.3817V10.9987H12.5522V7.83151ZM11.2454 7.83151H12.037V10.9987H11.2454V7.83151ZM27.7582 7.83151H28.3489V13.4939H27.7582V7.83151ZM26.6526 7.83151H27.3058V13.4939H26.6526V7.83151ZM43.0649 12.9497C44.4054 12.5873 45.746 12.2246 47.0865 11.8622C47.1367 10.5292 47.1869 9.19618 47.2375 7.86356C47.6737 7.81236 48.1102 7.76154 48.5467 7.71072C48.5457 7.53755 48.545 7.36476 48.5443 7.19159C47.3713 7.20214 46.1983 7.21309 45.0253 7.22364C43.7965 8.85765 43.2707 10.8275 43.0649 12.9497ZM41.5095 12.0776C39.3584 12.1784 36.9914 12.2691 34.8403 12.37C35.1269 13.4454 35.2741 14.2182 35.0061 14.805C36.7571 14.4 38.9398 13.771 40.6909 13.3656C40.7745 12.9497 40.7625 12.361 41.5095 12.0776ZM26.2227 16.6931C26.49 15.6478 26.1047 14.7045 25.317 14.0462C26.5223 13.9399 28.4152 13.8336 29.6205 13.7276C29.6205 13.7276 29.8695 14.5173 30.3721 15.0614C29.0319 15.6052 27.5632 16.1489 26.2227 16.6931ZM56.2354 28.1069C52.0643 27.5796 47.7017 28.3743 43.433 28.3379C43.433 28.3379 46.2822 28.8735 48.8962 28.5236C48.8962 28.5236 46.6594 29.2734 41.1046 29.4903C41.1046 29.4903 44.2464 30.1068 48.8962 29.1236C48.8962 29.1236 52.8422 27.8696 55.0038 28.1698C57.1654 28.4697 59 29.1068 59 29.1068C59 29.1068 58.6232 28.4736 56.2354 28.1069ZM8.38 25.3302L7.75136 23.9226V23.027C7.75136 23.027 10.491 22.1951 8.2037 18.9963L7.02264 20.4677L5.46439 18.3564C5.46439 18.3564 3.90614 19.1883 4.83575 21.1713L3.22729 20.6917C3.22729 20.6917 2.4357 19.7961 1.78212 20.3719C1.78212 20.3719 0.830741 20.0791 0.198943 20.0956C0.0222927 20.1003 -0.0918453 20.0682 0.0985017 20.2308L1.71224 20.7441C1.71224 20.7441 2.28503 21.4594 2.78759 21.3953C4.45049 22.8175 5.98556 25.279 8.38 25.3302ZM15.6072 16.8526L16.3103 15.3859C16.3103 15.3859 15.1552 15.5133 14.8037 14.3015L12.6438 13.8551L12.7443 14.8753C12.7443 14.8753 13.7989 16.98 15.6072 16.8526ZM39.3967 21.5275C38.9128 21.6197 38.1409 21.5611 36.9324 21.0435C36.9324 21.0435 37.2316 23.1087 36.9106 24.136C36.9212 24.154 36.9324 24.172 36.9433 24.19C37.4237 24.5375 37.9797 24.747 38.6111 24.1231C38.6111 24.1231 38.511 23.4214 39.1137 23.0387C39.1137 23.0387 39.173 23.0317 39.2668 23.0329L39.3967 21.5275ZM40.2006 7.83151H40.7302V11.8141H40.2006V7.83151ZM39.0627 7.83151H39.7785V11.8141H39.0627V7.83151ZM34.5952 7.83151H35.3113V9.79897H34.5952V7.83151ZM35.7011 7.83151H36.4172V10.2305H35.7011V7.83151ZM37.9066 7.83151H38.6227V11.8141H37.9066V7.83151ZM36.832 7.83151H37.548V11.8141H36.832V7.83151ZM28.751 7.83151H29.3417V13.4939H28.751V7.83151ZM25.5341 7.83151H26.1873V13.4939H25.5341V7.83151ZM24.3779 7.83151H25.0189V13.5576H24.3779V7.83151ZM23.7872 7.83151C23.3851 7.83151 22.983 7.83151 22.5809 7.83151C22.622 7.86943 22.5545 8.39677 22.6406 8.40107C23.5249 8.44602 23.6004 9.57458 23.7872 10.0069C23.7872 9.63361 23.7872 8.20483 23.7872 7.83151ZM17.7298 7.83151H18.559V9.8146H17.7298V7.83151ZM15.1661 7.83151H15.9956V10.9987H15.1661V7.83151ZM16.4982 7.83151H17.3277V10.9987H16.4982V7.83151ZM13.8593 7.83151H14.6509V10.9987H13.8593V7.83151ZM7.62107 6.3609L43.6858 6.93242L43.308 7.66811L7.62107 7.70016V6.3609ZM48.9622 6.94688C47.7035 6.93124 46.4445 6.91561 45.1858 6.89997C45.5433 5.77727 46.069 4.99311 46.8399 4.29025C47.4752 5.11507 48.3265 6.12245 48.9622 6.94688ZM43.9816 6.39179L43.1268 4.93603L44.9365 4.95206L43.9816 6.39179ZM38.6539 6.42384L41.0793 0.90535L43.3919 6.40781L38.6539 6.42384ZM29.2946 6.0427L25.8912 1.77004L40.8212 0.716931L38.1967 6.41055L29.2946 6.0427ZM17.9177 5.87774L24.0081 0.190374L28.7166 5.87774H17.9177Z" fill="white"/>
</svg>
